<svg width="18" height="18" viewBox="0 0 18 18" fill="none" xmlns="http://www.w3.org/2000/svg">
<path id="Vector" d="M8.4401 9.64007V12.9049C8.4401 13.0735 8.49744 13.2148 8.61212 13.3289C8.7268 13.443 8.8689 13.5 9.03841 13.5C9.20795 13.5 9.34899 13.443 9.46153 13.3289C9.57408 13.2148 9.63036 13.0735 9.63036 12.9049V9.64007H12.9049C13.0735 9.64007 13.2148 9.58273 13.3289 9.46805C13.443 9.35337 13.5 9.21126 13.5 9.04173C13.5 8.87222 13.443 8.73118 13.3289 8.61864C13.2148 8.50609 13.0735 8.44981 12.9049 8.44981H9.63036V5.09513C9.63036 4.92651 9.57302 4.78517 9.45834 4.67111C9.34366 4.55704 9.20155 4.50001 9.03202 4.50001C8.8625 4.50001 8.72147 4.55704 8.60892 4.67111C8.49638 4.78517 8.4401 4.92651 8.4401 5.09513V8.44981H5.09513C4.92651 8.44981 4.78517 8.50715 4.67111 8.62183C4.55704 8.73651 4.50001 8.87861 4.50001 9.04813C4.50001 9.21766 4.55704 9.3587 4.67111 9.47125C4.78517 9.58379 4.92651 9.64007 5.09513 9.64007H8.4401ZM9.00578 18C7.75975 18 6.59091 17.7638 5.49925 17.2914C4.40758 16.8189 3.45444 16.1752 2.63983 15.3601C1.8252 14.5449 1.18157 13.5918 0.708941 12.5007C0.236314 11.4096 0 10.2416 0 8.99673C0 7.75184 0.236211 6.58258 0.708634 5.48895C1.18106 4.39533 1.82483 3.44343 2.63994 2.63322C3.45506 1.823 4.40817 1.18157 5.49927 0.708942C6.59038 0.236315 7.75837 0 9.00327 0C10.2482 0 11.4174 0.236212 12.5111 0.708634C13.6047 1.18106 14.5566 1.82219 15.3668 2.63203C16.177 3.44189 16.8184 4.39423 17.2911 5.48904C17.7637 6.58384 18 7.75223 18 8.99422C18 10.2403 17.7638 11.4091 17.2914 12.5007C16.8189 13.5924 16.1778 14.5446 15.368 15.3573C14.5581 16.17 13.6058 16.8136 12.511 17.2881C11.4162 17.7627 10.2478 18 9.00578 18ZM9.00485 16.8097C11.1773 16.8097 13.0213 16.0504 14.5366 14.5318C16.052 13.0132 16.8097 11.1676 16.8097 8.99514C16.8097 6.82267 16.0532 4.97873 14.54 3.46335C13.0269 1.94795 11.1802 1.19025 9 1.19025C6.83076 1.19025 4.98683 1.94682 3.46821 3.45996C1.94957 4.97311 1.19025 6.81978 1.19025 9C1.19025 11.1692 1.94957 13.0132 3.46821 14.5318C4.98683 16.0504 6.83237 16.8097 9.00485 16.8097Z" fill="white"/>
</svg>
