<svg width="43" height="43" viewBox="0 0 43 43" fill="none" xmlns="http://www.w3.org/2000/svg">
<rect width="43" height="43" rx="4" fill="#333333"/>
<mask id="mask0_600_2923" style="mask-type:luminance" maskUnits="userSpaceOnUse" x="0" y="0" width="43" height="43">
<rect width="43" height="43" rx="4" fill="white"/>
</mask>
<g mask="url(#mask0_600_2923)">
</g>
<path fill-rule="evenodd" clip-rule="evenodd" d="M22.0004 13.3665C23.4773 13.3665 24.6745 12.1651 24.6745 10.6832C24.6745 9.20136 23.4773 8 22.0004 8C20.5236 8 19.3263 9.20136 19.3263 10.6832C19.3263 12.1651 20.5236 13.3665 22.0004 13.3665ZM19.1771 13.8974H24.8226H24.8227C25.7277 13.8974 26.4614 14.6323 26.4626 15.5409V23.2498C26.4626 24.1585 25.7279 24.8941 24.8229 24.8941H24.8149V30.3557C24.8149 31.2644 24.101 32 23.2206 32H20.7794C19.8973 32 19.1854 31.2638 19.1854 30.3557V24.8941H19.1771C18.2728 24.8941 17.5377 24.1577 17.5377 23.2498V15.5409C17.5377 14.6326 18.2728 13.8974 19.1771 13.8974ZM34.5965 14.5377H29.7595C28.9821 14.5377 28.354 15.1687 28.354 15.9468V22.5538C28.354 23.3328 28.9822 23.9629 29.7595 23.9629H29.7668V28.6423C29.7668 29.4205 30.3772 30.0506 31.1303 30.0506H33.2236C33.9775 30.0506 34.5876 29.4205 34.5876 28.6423V23.9622H34.5949C35.3713 23.9622 35.9998 23.3311 35.9998 22.5525L36 15.9462C36.0005 15.1691 35.3721 14.5381 34.5964 14.5381L34.5965 14.5377ZM34.4693 11.784C34.4693 10.5148 33.4425 9.4854 32.1783 9.4854C30.9124 9.4854 29.8866 10.5148 29.8866 11.784C29.8866 13.0545 30.9124 14.0841 32.1783 14.0841C33.4425 14.0841 34.4693 13.0542 34.4693 11.784ZM14.2413 14.5377H9.40432C8.62844 14.5377 8 15.1687 8 15.9461V22.5524C8 23.331 8.62819 23.9621 9.40432 23.9621H9.41165V28.6407C9.41165 29.4197 10.0227 30.0498 10.7767 30.0498H12.8692C13.6224 30.0498 14.2327 29.4197 14.2327 28.6407L14.2329 23.9619H14.2403C15.0159 23.9619 15.6446 23.3308 15.6446 22.5522V15.9459C15.6446 15.1688 15.0169 14.5377 14.2413 14.5377L14.2413 14.5377ZM11.8228 14.0834C13.0882 14.0834 14.1138 13.054 14.1138 11.7845C14.1138 10.5148 13.0882 9.4854 11.8228 9.4854C10.5574 9.4854 9.53151 10.5148 9.53151 11.7845C9.53151 13.054 10.5574 14.0834 11.8228 14.0834Z" fill="#2DA1D7"/>
</svg>
