<svg width="20" height="21" viewBox="0 0 20 21" fill="none" xmlns="http://www.w3.org/2000/svg">
<path d="M2.12671 20.5C1.53244 20.5 1.02941 20.2941 0.617649 19.8824C0.205883 19.4706 0 18.9676 0 18.3733V2.62671C0 2.03244 0.205883 1.52941 0.617649 1.11765C1.02941 0.705883 1.53244 0.5 2.12671 0.5H17.8733C18.4676 0.5 18.9706 0.705883 19.3824 1.11765C19.7941 1.52941 20 2.03244 20 2.62671V18.3733C20 18.9676 19.7941 19.4706 19.3824 19.8824C18.9706 20.2941 18.4676 20.5 17.8733 20.5H2.12671ZM2.12671 18.7353H17.8733C17.9638 18.7353 18.0468 18.6976 18.1222 18.6222C18.1976 18.5468 18.2353 18.4638 18.2353 18.3733V5.8846H1.76468V18.3733C1.76468 18.4638 1.80239 18.5468 1.8778 18.6222C1.95323 18.6976 2.0362 18.7353 2.12671 18.7353Z" fill="#B791B6"/>
</svg>
