<svg width="9" height="16" viewBox="0 0 9 16" fill="none" xmlns="http://www.w3.org/2000/svg">
<path d="M1.95039 0.715404L8.82376 7.58877C8.88903 7.65405 8.93473 7.71932 8.96084 7.7846C8.98695 7.84987 9 7.92167 9 8C9 8.07833 8.98695 8.15013 8.96084 8.2154C8.93473 8.28068 8.88903 8.34595 8.82376 8.41123L1.95039 15.2846C1.80679 15.4282 1.62402 15.5 1.40209 15.5C1.18016 15.5 0.997389 15.4282 0.853786 15.2846C0.697127 15.1279 0.618798 14.9419 0.618798 14.7265C0.618798 14.5111 0.697127 14.3251 0.853786 14.1684L7.02219 8L0.853787 1.83159C0.684074 1.66188 0.605745 1.47258 0.6188 1.26371C0.631854 1.05483 0.710183 0.87859 0.853787 0.734987C1.01044 0.578328 1.19648 0.499999 1.41188 0.499999C1.62729 0.499999 1.80679 0.571802 1.95039 0.715404Z" fill="white"/>
</svg>
