<svg width="50" height="50" viewBox="0 0 50 50" fill="none" xmlns="http://www.w3.org/2000/svg">
<rect width="50" height="50" rx="10" fill="#333333"/>
<path d="M33.7232 25C33.7232 23.1273 33.2002 21.4439 32.1543 19.9497C31.1084 18.4555 29.7387 17.3697 28.0453 16.6924C27.8062 16.5927 27.6369 16.4334 27.5373 16.2142C27.4377 15.9951 27.4377 15.7759 27.5373 15.5568C27.6369 15.3177 27.8112 15.1534 28.0602 15.0637C28.3093 14.974 28.5633 14.979 28.8223 15.0786C30.8344 15.8955 32.4531 17.2004 33.6784 18.9934C34.9036 20.7864 35.5162 22.7886 35.5162 25C35.5162 27.2114 34.9036 29.2136 33.6784 31.0066C32.4531 32.7996 30.8344 34.1045 28.8223 34.9214C28.5633 35.021 28.3093 35.026 28.0602 34.9363C27.8112 34.8466 27.6369 34.6823 27.5373 34.4432C27.4377 34.2241 27.4377 34.0049 27.5373 33.7858C27.6369 33.5666 27.8062 33.4073 28.0453 33.3076C29.7387 32.6303 31.1084 31.5445 32.1543 30.0503C33.2002 28.5561 33.7232 26.8727 33.7232 25ZM18.7814 28.6159H14.8965C14.6375 28.6159 14.4234 28.5312 14.254 28.3619C14.0847 28.1926 14 27.9784 14 27.7194V22.3404C14 22.0814 14.0847 21.8672 14.254 21.6979C14.4234 21.5285 14.6375 21.4439 14.8965 21.4439H18.7814L23.234 16.9912C23.5129 16.7123 23.8367 16.6475 24.2053 16.7969C24.5738 16.9464 24.7581 17.2203 24.7581 17.6187V32.441C24.7581 32.8395 24.5738 33.1134 24.2053 33.2628C23.8367 33.4122 23.5129 33.3475 23.234 33.0686L18.7814 28.6159ZM30.1371 25.0299C30.1371 26.0658 29.8782 27.0022 29.3602 27.8389C28.8422 28.6757 28.115 29.3132 27.1787 29.7515C27.0193 29.8312 26.8749 29.8212 26.7454 29.7216C26.6159 29.622 26.5511 29.4925 26.5511 29.3331V20.6968C26.5511 20.5374 26.6159 20.4079 26.7454 20.3083C26.8749 20.2087 27.0193 20.1987 27.1787 20.2784C28.115 20.7167 28.8422 21.3642 29.3602 22.2208C29.8782 23.0775 30.1371 24.0138 30.1371 25.0299ZM22.9651 20.0094L19.5882 23.2369H15.793V26.8229H19.5882L22.9651 30.0802V20.0094Z" fill="white"/>
</svg>
