<svg xmlns="http://www.w3.org/2000/svg" width="9" height="15" viewBox="0 0 9 15" fill="none">
<path d="M1.95039 0.215404L8.82376 7.08877C8.88903 7.15405 8.93473 7.21932 8.96084 7.2846C8.98695 7.34987 9 7.42167 9 7.5C9 7.57833 8.98695 7.65013 8.96084 7.7154C8.93473 7.78068 8.88903 7.84595 8.82376 7.91123L1.95039 14.7846C1.80679 14.9282 1.62402 15 1.40209 15C1.18016 15 0.997389 14.9282 0.853786 14.7846C0.697127 14.6279 0.618798 14.4419 0.618798 14.2265C0.618798 14.0111 0.697127 13.8251 0.853786 13.6684L7.02219 7.5L0.853787 1.33159C0.684074 1.16188 0.605745 0.972584 0.6188 0.763706C0.631854 0.554829 0.710183 0.37859 0.853787 0.234987C1.01044 0.0783284 1.19648 -6.82206e-07 1.41188 -6.63375e-07C1.62729 -6.44543e-07 1.80679 0.0718015 1.95039 0.215404Z" fill="white"/>
</svg>