<svg width="12" height="20" viewBox="0 0 12 20" fill="none" xmlns="http://www.w3.org/2000/svg">
<path d="M9.39948 19.7128L0.234987 10.5483C0.147955 10.4613 0.0870322 10.3742 0.0522193 10.2872C0.0174064 10.2002 0 10.1044 0 10C0 9.89556 0.0174064 9.79983 0.0522193 9.71279C0.0870322 9.62576 0.147955 9.53873 0.234987 9.4517L9.39948 0.287206C9.59095 0.0957354 9.83464 0 10.1305 0C10.4265 0 10.6701 0.0957354 10.8616 0.287206C11.0705 0.496084 11.1749 0.744125 11.1749 1.03133C11.1749 1.31854 11.0705 1.56658 10.8616 1.77546L2.63708 10L10.8616 18.2245C11.0879 18.4508 11.1923 18.7032 11.1749 18.9817C11.1575 19.2602 11.0531 19.4952 10.8616 19.6867C10.6527 19.8956 10.4047 20 10.1175 20C9.83029 20 9.59095 19.9043 9.39948 19.7128Z" fill="white"/>
</svg>
