<svg width="50" height="50" viewBox="0 0 50 50" fill="none" xmlns="http://www.w3.org/2000/svg">
<rect width="50" height="50" rx="10" fill="#EA4646"/>
<path d="M14.8701 29.35L12.2387 26.7185C12.0707 26.5506 11.9914 26.3546 12.0007 26.1307C12.0101 25.9067 12.0894 25.7014 12.2387 25.5148C13.769 23.7232 15.6073 22.3562 17.7535 21.4137C19.8997 20.4712 22.1485 20 24.5 20C26.8515 20 29.1003 20.4712 31.2465 21.4137C33.3927 22.3562 35.231 23.7232 36.7613 25.5148C36.9106 25.7014 36.9899 25.9067 36.9993 26.1307C37.0086 26.3546 36.9293 26.5506 36.7613 26.7185L34.1299 29.35C33.9806 29.4993 33.766 29.5832 33.486 29.6019C33.2061 29.6206 32.9821 29.5646 32.8142 29.4339L29.6229 27.0545C29.5109 26.9705 29.4269 26.8725 29.3709 26.7605C29.3149 26.6485 29.287 26.5226 29.287 26.3826V22.4915C28.5031 22.1929 27.7053 21.9829 26.8935 21.8616C26.0817 21.7403 25.2838 21.6796 24.5 21.6796C23.7162 21.6796 22.9183 21.7403 22.1065 21.8616C21.2947 21.9829 20.4969 22.1929 19.713 22.4915V26.3826C19.713 26.5226 19.6851 26.6485 19.6291 26.7605C19.5731 26.8725 19.4891 26.9705 19.3771 27.0545L16.1806 29.4417C15.9601 29.6045 15.7315 29.6773 15.4947 29.66C15.2579 29.6428 15.0497 29.5395 14.8701 29.35ZM17.8934 23.1913C17.1843 23.5459 16.5031 23.9705 15.8499 24.465C15.1967 24.9596 14.5715 25.4868 13.9743 26.0467L15.57 27.6983L17.8934 25.9907V23.1913ZM30.9666 23.0793V25.8227L33.4021 27.6703L35.0257 26.0467C34.4285 25.4308 33.7893 24.8849 33.1081 24.409C32.4269 23.9331 31.7131 23.4899 30.9666 23.0793Z" fill="white"/>
</svg>
