<svg width="12" height="13" viewBox="0 0 12 13" fill="none" xmlns="http://www.w3.org/2000/svg">
<path id="Vector" d="M11.25 12.5C9.89444 12.5 8.54722 12.1667 7.20833 11.5C5.86944 10.8333 4.66667 9.96667 3.6 8.9C2.53333 7.83333 1.66667 6.63056 1 5.29167C0.333333 3.95278 0 2.60556 0 1.25C0 1.03571 0.0714277 0.857139 0.214283 0.714283C0.357139 0.571428 0.535711 0.5 0.75 0.5H3.08333C3.23457 0.5 3.3696 0.552778 3.48843 0.658333C3.60726 0.763889 3.68333 0.905556 3.71667 1.08333L4.16667 3.18333C4.18889 3.33889 4.18611 3.48056 4.15833 3.60833C4.13056 3.73611 4.07222 3.84444 3.98333 3.93333L2.31667 5.61667C2.93889 6.65 3.63611 7.55 4.40833 8.31667C5.18056 9.08333 6.05556 9.73333 7.03333 10.2667L8.61667 8.63333C8.72778 8.51111 8.85556 8.425 9 8.375C9.14445 8.325 9.28889 8.31667 9.43333 8.35L11.4167 8.78333C11.5868 8.82083 11.7266 8.90521 11.8359 9.03647C11.9453 9.16771 12 9.32222 12 9.5V11.75C12 11.9643 11.9286 12.1429 11.7857 12.2857C11.6429 12.4286 11.4643 12.5 11.25 12.5ZM1.81667 4.7L3.16667 3.33333L2.78333 1.5H1C1 1.93333 1.06667 2.40833 1.2 2.925C1.33333 3.44167 1.53889 4.03333 1.81667 4.7ZM11 11.5V9.71667L9.28333 9.36667L7.96667 10.75C8.42222 10.9611 8.91667 11.1333 9.45 11.2667C9.98333 11.4 10.5 11.4778 11 11.5Z" fill="#666666"/>
</svg>
