<svg width="20" height="20" viewBox="0 0 20 20" fill="none" xmlns="http://www.w3.org/2000/svg">
<path id="Vector" d="M14.7778 5.22222H12.0556C11.8194 5.22222 11.6215 5.1419 11.4618 4.98125C11.3021 4.82058 11.2222 4.62151 11.2222 4.38403C11.2222 4.14653 11.3021 3.94907 11.4618 3.79167C11.6215 3.63426 11.8194 3.55556 12.0556 3.55556H14.7778V0.833333C14.7778 0.597222 14.8581 0.399306 15.0188 0.239583C15.1794 0.0798611 15.3785 0 15.616 0C15.8535 0 16.0509 0.0798611 16.2083 0.239583C16.3657 0.399306 16.4444 0.597222 16.4444 0.833333V3.55556H19.1667C19.4028 3.55556 19.6007 3.63588 19.7604 3.79653C19.9201 3.95719 20 4.15627 20 4.39375C20 4.63125 19.9201 4.8287 19.7604 4.98611C19.6007 5.14352 19.4028 5.22222 19.1667 5.22222H16.4444V7.94444C16.4444 8.18056 16.3641 8.37847 16.2035 8.53819C16.0428 8.69792 15.8437 8.77778 15.6063 8.77778C15.3688 8.77778 15.1713 8.69792 15.0139 8.53819C14.8565 8.37847 14.7778 8.18056 14.7778 7.94444V5.22222ZM18.75 20C16.6019 20 14.412 19.4815 12.1806 18.4444C9.94907 17.4074 7.87963 15.9352 5.97222 14.0278C4.06482 12.1204 2.59259 10.0509 1.55556 7.81944C0.518519 5.58796 0 3.39815 0 1.25C0 0.892852 0.119046 0.595231 0.357139 0.357139C0.595231 0.119046 0.892852 0 1.25 0H5.13889C5.39815 0 5.62037 0.0925926 5.80556 0.277778C5.99074 0.462963 6.12037 0.694444 6.19444 0.972222L6.94247 4.46225C6.98082 4.72816 6.97685 4.96759 6.93056 5.18056C6.88426 5.39352 6.78492 5.57617 6.63253 5.7285L3.86111 8.52778C4.34259 9.34259 4.85185 10.1019 5.38889 10.8056C5.92593 11.5093 6.51852 12.1759 7.16667 12.8056C7.85185 13.5093 8.57407 14.1528 9.33333 14.7361C10.0926 15.3194 10.8889 15.8333 11.7222 16.2778L14.3611 13.5556C14.5463 13.3519 14.7607 13.213 15.0042 13.1389C15.2477 13.0648 15.4871 13.0463 15.7222 13.0833L19.0278 13.8056C19.3056 13.8796 19.537 14.0282 19.7222 14.2512C19.9074 14.4743 20 14.7239 20 15V18.75C20 19.1071 19.881 19.4048 19.6429 19.6429C19.4048 19.881 19.1071 20 18.75 20ZM3.02778 7L5.27778 4.72222L4.63889 1.66667H1.66667C1.7037 2.44444 1.8287 3.26389 2.04167 4.125C2.25463 4.98611 2.58333 5.94444 3.02778 7ZM13.2778 17.0833C14.037 17.4352 14.8611 17.7222 15.75 17.9444C16.6389 18.1667 17.5 18.2963 18.3333 18.3333V15.3611L15.4722 14.7778L13.2778 17.0833Z" fill="white"/>
</svg>
