<svg width="35" height="35" viewBox="0 0 35 35" fill="none" xmlns="http://www.w3.org/2000/svg">
<circle cx="17.5" cy="17.5" r="17.5" fill="#666666"/>
<path d="M17.4831 21.9375C18.49 21.9375 19.3338 21.5972 20.0143 20.9167C20.6949 20.2361 21.0352 19.3924 21.0352 18.3854C21.0352 17.3785 20.6949 16.5382 20.0143 15.8646C19.3338 15.191 18.49 14.8542 17.4831 14.8542C16.4761 14.8542 15.6359 15.191 14.9622 15.8646C14.2886 16.5382 13.9518 17.3785 13.9518 18.3854C13.9518 19.3924 14.2886 20.2361 14.9622 20.9167C15.6359 21.5972 16.4761 21.9375 17.4831 21.9375ZM17.4831 20.6875C16.8234 20.6875 16.2782 20.4688 15.8477 20.0312C15.4171 19.5938 15.2018 19.0451 15.2018 18.3854C15.2018 17.7257 15.4171 17.1806 15.8477 16.75C16.2782 16.3194 16.8234 16.1042 17.4831 16.1042C18.1428 16.1042 18.6914 16.3194 19.1289 16.75C19.5664 17.1806 19.7852 17.7257 19.7852 18.3854C19.7852 19.0451 19.5664 19.5938 19.1289 20.0312C18.6914 20.4688 18.1428 20.6875 17.4831 20.6875ZM10.4102 25C10.0768 25 9.78516 24.875 9.53516 24.625C9.28516 24.375 9.16016 24.0833 9.16016 23.75V13.0625C9.16016 12.7431 9.28516 12.4549 9.53516 12.1979C9.78516 11.941 10.0768 11.8125 10.4102 11.8125H13.4727L14.6185 10.4375C14.7296 10.2847 14.8685 10.1736 15.0352 10.1042C15.2018 10.0347 15.3824 10 15.5768 10H19.4102C19.6046 10 19.7852 10.0347 19.9518 10.1042C20.1185 10.1736 20.2574 10.2847 20.3685 10.4375L21.5143 11.8125H24.5768C24.8963 11.8125 25.1845 11.941 25.4414 12.1979C25.6983 12.4549 25.8268 12.7431 25.8268 13.0625V23.75C25.8268 24.0833 25.6983 24.375 25.4414 24.625C25.1845 24.875 24.8963 25 24.5768 25H10.4102ZM10.4102 23.75H24.5768V13.0625H20.931L19.4102 11.25H15.5768L14.056 13.0625H10.4102V23.75Z" fill="white"/>
</svg>
