<svg width="23" height="20" viewBox="0 0 23 20" fill="none" xmlns="http://www.w3.org/2000/svg">
<path d="M11.0972 15.9444C12.4398 15.9444 13.5648 15.4907 14.4722 14.5833C15.3796 13.6759 15.8333 12.5509 15.8333 11.2083C15.8333 9.86574 15.3796 8.74537 14.4722 7.84722C13.5648 6.94907 12.4398 6.5 11.0972 6.5C9.75463 6.5 8.63426 6.94907 7.73611 7.84722C6.83796 8.74537 6.38889 9.86574 6.38889 11.2083C6.38889 12.5509 6.83796 13.6759 7.73611 14.5833C8.63426 15.4907 9.75463 15.9444 11.0972 15.9444ZM1.66667 20C1.22222 20 0.833333 19.8333 0.5 19.5C0.166667 19.1667 0 18.7778 0 18.3333V4.08333C0 3.65741 0.166667 3.27315 0.5 2.93056C0.833333 2.58796 1.22222 2.41667 1.66667 2.41667H5.75L7.27778 0.583333C7.42593 0.37963 7.61111 0.231481 7.83333 0.138889C8.05556 0.0462963 8.2963 0 8.55556 0H13.6667C13.9259 0 14.1667 0.0462963 14.3889 0.138889C14.6111 0.231481 14.7963 0.37963 14.9444 0.583333L16.4722 2.41667H20.5556C20.9815 2.41667 21.3657 2.58796 21.7083 2.93056C22.0509 3.27315 22.2222 3.65741 22.2222 4.08333V18.3333C22.2222 18.7778 22.0509 19.1667 21.7083 19.5C21.3657 19.8333 20.9815 20 20.5556 20H1.66667ZM20.5556 18.3333V4.08333H1.66667V18.3333H20.5556Z" fill="white"/>
</svg>
