<svg width="17" height="15" viewBox="0 0 17 15" fill="none" xmlns="http://www.w3.org/2000/svg">
<path id="Vector" d="M8.48283 11.9375C9.48977 11.9375 10.3335 11.5972 11.0141 10.9167C11.6946 10.2361 12.0349 9.39236 12.0349 8.38542C12.0349 7.37847 11.6946 6.53819 11.0141 5.86458C10.3335 5.19097 9.48977 4.85417 8.48283 4.85417C7.47588 4.85417 6.63561 5.19097 5.962 5.86458C5.28838 6.53819 4.95158 7.37847 4.95158 8.38542C4.95158 9.39236 5.28838 10.2361 5.962 10.9167C6.63561 11.5972 7.47588 11.9375 8.48283 11.9375ZM8.48283 10.6875C7.82311 10.6875 7.27797 10.4688 6.84741 10.0312C6.41686 9.59375 6.20158 9.04514 6.20158 8.38542C6.20158 7.72569 6.41686 7.18056 6.84741 6.75C7.27797 6.31944 7.82311 6.10417 8.48283 6.10417C9.14255 6.10417 9.69116 6.31944 10.1287 6.75C10.5662 7.18056 10.7849 7.72569 10.7849 8.38542C10.7849 9.04514 10.5662 9.59375 10.1287 10.0312C9.69116 10.4688 9.14255 10.6875 8.48283 10.6875ZM1.40991 15C1.07658 15 0.784912 14.875 0.534912 14.625C0.284912 14.375 0.159912 14.0833 0.159912 13.75V3.0625C0.159912 2.74306 0.284912 2.45486 0.534912 2.19792C0.784912 1.94097 1.07658 1.8125 1.40991 1.8125H4.47241L5.61825 0.4375C5.72936 0.284722 5.86825 0.173611 6.03491 0.104167C6.20158 0.0347222 6.38213 0 6.57658 0H10.4099C10.6044 0 10.7849 0.0347222 10.9516 0.104167C11.1182 0.173611 11.2571 0.284722 11.3682 0.4375L12.5141 1.8125H15.5766C15.896 1.8125 16.1842 1.94097 16.4412 2.19792C16.6981 2.45486 16.8266 2.74306 16.8266 3.0625V13.75C16.8266 14.0833 16.6981 14.375 16.4412 14.625C16.1842 14.875 15.896 15 15.5766 15H1.40991ZM1.40991 13.75H15.5766V3.0625H11.9307L10.4099 1.25H6.57658L5.05575 3.0625H1.40991V13.75Z" fill="white"/>
</svg>
