<svg xmlns="http://www.w3.org/2000/svg" width="12" height="15" viewBox="0 0 12 15" fill="none">
  <path d="M1.39055 15C1.00815 15 0.680792 14.8638 0.408483 14.5915C0.136161 14.3192 0 13.9919 0 13.6095V6.39053C0 6.00813 0.136161 5.68078 0.408483 5.40847C0.680792 5.13615 1.00815 4.99999 1.39055 4.99999H2.3077V3.46152C2.3077 2.50097 2.64449 1.68392 3.31806 1.01035C3.99164 0.336784 4.8087 0 5.76924 0C6.72978 0 7.54685 0.336784 8.22043 1.01035C8.89399 1.68392 9.23078 2.50097 9.23078 3.46152V4.99999H10.1479C10.5303 4.99999 10.8577 5.13615 11.13 5.40847C11.4023 5.68078 11.5385 6.00813 11.5385 6.39053V13.6095C11.5385 13.9919 11.4023 14.3192 11.13 14.5915C10.8577 14.8638 10.5303 15 10.1479 15H1.39055ZM5.76924 11.3461C6.14301 11.3461 6.46081 11.2152 6.72263 10.9534C6.98446 10.6916 7.11538 10.3738 7.11538 9.99999C7.11538 9.62622 6.98446 9.30843 6.72263 9.0466C6.46081 8.78477 6.14301 8.65385 5.76924 8.65385C5.39547 8.65385 5.07767 8.78477 4.81585 9.0466C4.55402 9.30843 4.4231 9.62622 4.4231 9.99999C4.4231 10.3738 4.55402 10.6916 4.81585 10.9534C5.07767 11.2152 5.39547 11.3461 5.76924 11.3461ZM3.46154 4.99999H8.07694V3.46152C8.07694 2.82049 7.85258 2.27561 7.40386 1.82689C6.95514 1.37817 6.41027 1.15381 5.76924 1.15381C5.12821 1.15381 4.58334 1.37817 4.13462 1.82689C3.6859 2.27561 3.46154 2.82049 3.46154 3.46152V4.99999Z" fill="#979797"/>
</svg>