<svg width="15" height="20" viewBox="0 0 15 20" fill="none" xmlns="http://www.w3.org/2000/svg">
<path id="Vector" d="M7.32494 12.0263C6.57056 12.0263 5.93898 11.7551 5.43021 11.2127C4.92143 10.6703 4.66705 10.0117 4.66705 9.23684V2.63158C4.66705 1.90058 4.9253 1.27924 5.44181 0.767552C5.95832 0.255851 6.58551 0 7.32339 0C8.06127 0 8.68898 0.255851 9.20652 0.767552C9.72407 1.27924 9.98284 1.90058 9.98284 2.63158V9.23684C9.98284 10.0117 9.72845 10.6703 9.21968 11.2127C8.71091 11.7551 8.07933 12.0263 7.32494 12.0263ZM7.32034 20C7.09534 20 6.90828 19.9243 6.75915 19.773C6.61003 19.6217 6.53547 19.4342 6.53547 19.2105V16.4211C4.81617 16.2281 3.34687 15.5395 2.12757 14.3553C0.908276 13.1711 0.202136 11.7456 0.00915332 10.0789C-0.0259344 9.85088 0.0398551 9.65351 0.206522 9.48684C0.373188 9.32018 0.579329 9.23684 0.824943 9.23684C1.00915 9.23684 1.17363 9.30702 1.31836 9.44737C1.4631 9.58772 1.55301 9.75439 1.5881 9.94737C1.78108 11.3684 2.41987 12.5482 3.50447 13.4868C4.58905 14.4254 5.86098 14.8947 7.32026 14.8947C8.77952 14.8947 10.053 14.4254 11.1407 13.4868C12.2285 12.5482 12.8688 11.3684 13.0618 9.94737C13.101 9.75 13.1959 9.58224 13.3464 9.44408C13.4968 9.30592 13.6636 9.23684 13.8468 9.23684C14.0954 9.23684 14.2986 9.32018 14.4565 9.48684C14.6144 9.65351 14.6758 9.85088 14.6407 10.0789C14.4478 11.7456 13.7416 13.1711 12.5223 14.3553C11.303 15.5395 9.83372 16.2281 8.11442 16.4211V19.2105C8.11442 19.4342 8.03832 19.6217 7.88613 19.773C7.73392 19.9243 7.54532 20 7.32034 20ZM7.32494 10.4474C7.64073 10.4474 7.8995 10.3289 8.10126 10.0921C8.30301 9.85526 8.40389 9.57018 8.40389 9.23684V2.63158C8.40389 2.33333 8.30049 2.08333 8.09368 1.88158C7.88689 1.67982 7.63064 1.57895 7.32494 1.57895C7.01924 1.57895 6.763 1.67982 6.55621 1.88158C6.3494 2.08333 6.246 2.33333 6.246 2.63158V9.23684C6.246 9.57018 6.34687 9.85526 6.54863 10.0921C6.75038 10.3289 7.00915 10.4474 7.32494 10.4474Z" fill="white"/>
</svg>
