<svg width="19" height="20" viewBox="0 0 19 20" fill="none" xmlns="http://www.w3.org/2000/svg">
<path d="M4.9325 9.37125C5.23 9.37125 5.47937 9.27062 5.68062 9.06937C5.88188 8.86812 5.9825 8.61875 5.9825 8.32125C5.9825 8.02375 5.88188 7.77437 5.68062 7.57312C5.47937 7.37187 5.23 7.27125 4.9325 7.27125C4.635 7.27125 4.38562 7.37187 4.18437 7.57312C3.98312 7.77437 3.8825 8.02375 3.8825 8.32125C3.8825 8.61875 3.98312 8.86812 4.18437 9.06937C4.38562 9.27062 4.635 9.37125 4.9325 9.37125ZM9.57875 9.37125C9.87625 9.37125 10.1256 9.27062 10.3269 9.06937C10.5281 8.86812 10.6287 8.61875 10.6287 8.32125C10.6287 8.02375 10.5281 7.77437 10.3269 7.57312C10.1256 7.37187 9.87625 7.27125 9.57875 7.27125C9.28125 7.27125 9.03187 7.37187 8.83062 7.57312C8.62937 7.77437 8.52875 8.02375 8.52875 8.32125C8.52875 8.61875 8.62937 8.86812 8.83062 9.06937C9.03187 9.27062 9.28125 9.37125 9.57875 9.37125ZM14.0412 9.37125C14.3387 9.37125 14.5881 9.27062 14.7894 9.06937C14.9906 8.86812 15.0912 8.61875 15.0912 8.32125C15.0912 8.02375 14.9906 7.77437 14.7894 7.57312C14.5881 7.37187 14.3387 7.27125 14.0412 7.27125C13.7437 7.27125 13.4944 7.37187 13.2931 7.57312C13.0919 7.77437 12.9913 8.02375 12.9913 8.32125C12.9913 8.61875 13.0919 8.86812 13.2931 9.06937C13.4944 9.27062 13.7437 9.37125 14.0412 9.37125ZM0 19.11V1.575C0 1.1725 0.1575 0.809375 0.4725 0.485625C0.7875 0.161875 1.155 0 1.575 0H17.425C17.8275 0 18.1906 0.161875 18.5144 0.485625C18.8381 0.809375 19 1.1725 19 1.575V15.225C19 15.6275 18.8381 15.9906 18.5144 16.3144C18.1906 16.6381 17.8275 16.8 17.425 16.8H4.2L1.33875 19.6612C1.09375 19.9062 0.809375 19.9618 0.485625 19.8278C0.161875 19.6938 0 19.4545 0 19.11ZM1.575 17.1937L3.54375 15.225H17.425V1.575H1.575V17.1937Z" fill="#666666"/>
</svg>
