<svg width="22" height="18" viewBox="0 0 22 18" fill="none" xmlns="http://www.w3.org/2000/svg">
<path id="Vector" d="M1.59375 17.5C1.16875 17.5 0.796875 17.3406 0.478125 17.0219C0.159375 16.7031 0 16.3313 0 15.9062V2.09375C0 1.66875 0.159375 1.29688 0.478125 0.978125C0.796875 0.659375 1.16875 0.5 1.59375 0.5H15.4062C15.8313 0.5 16.2031 0.659375 16.5219 0.978125C16.8406 1.29688 17 1.66875 17 2.09375V7.80469L20.5594 4.24531C20.6833 4.12135 20.8294 4.09074 20.9977 4.15346C21.1659 4.21616 21.25 4.33532 21.25 4.51094V13.4891C21.25 13.6647 21.1659 13.7838 20.9977 13.8465C20.8294 13.9093 20.6833 13.8786 20.5594 13.7547L17 10.1953V15.9062C17 16.3313 16.8406 16.7031 16.5219 17.0219C16.2031 17.3406 15.8313 17.5 15.4062 17.5H1.59375ZM1.59375 15.9062H15.4062V2.09375H1.59375V15.9062Z" fill="white"/>
</svg>
