<svg width="26" height="24" viewBox="0 0 26 24" fill="none" xmlns="http://www.w3.org/2000/svg">
<path id="Vector" d="M7.40519 11.3027C7.76401 11.3027 8.06478 11.1813 8.30751 10.9386C8.55024 10.6959 8.6716 10.3951 8.6716 10.0363C8.6716 9.67745 8.55024 9.37668 8.30751 9.13396C8.06478 8.89123 7.76401 8.76986 7.40519 8.76986C7.04638 8.76986 6.74561 8.89123 6.50288 9.13396C6.26015 9.37668 6.13879 9.67745 6.13879 10.0363C6.13879 10.3951 6.26015 10.6959 6.50288 10.9386C6.74561 11.1813 7.04638 11.3027 7.40519 11.3027ZM13.009 11.3027C13.3679 11.3027 13.6686 11.1813 13.9114 10.9386C14.1541 10.6959 14.2754 10.3951 14.2754 10.0363C14.2754 9.67745 14.1541 9.37668 13.9114 9.13396C13.6686 8.89123 13.3679 8.76986 13.009 8.76986C12.6502 8.76986 12.3495 8.89123 12.1067 9.13396C11.864 9.37668 11.7426 9.67745 11.7426 10.0363C11.7426 10.3951 11.864 10.6959 12.1067 10.9386C12.3495 11.1813 12.6502 11.3027 13.009 11.3027ZM18.3913 11.3027C18.7501 11.3027 19.0509 11.1813 19.2936 10.9386C19.5363 10.6959 19.6577 10.3951 19.6577 10.0363C19.6577 9.67745 19.5363 9.37668 19.2936 9.13396C19.0509 8.89123 18.7501 8.76986 18.3913 8.76986C18.0325 8.76986 17.7317 8.89123 17.489 9.13396C17.2462 9.37668 17.1249 9.67745 17.1249 10.0363C17.1249 10.3951 17.2462 10.6959 17.489 10.9386C17.7317 11.1813 18.0325 11.3027 18.3913 11.3027ZM0.25 23.0486V1.89961C0.25 1.41415 0.439961 0.976188 0.819883 0.585713C1.1998 0.195238 1.64305 0 2.14961 0H23.6785C24.164 0 24.6019 0.195238 24.9924 0.585713C25.3829 0.976188 25.5781 1.41415 25.5781 1.89961V18.3629C25.5781 18.8483 25.3829 19.2863 24.9924 19.6768C24.6019 20.0673 24.164 20.2625 23.6785 20.2625H5.31562L1.86467 23.7135C1.56917 24.009 1.22619 24.0759 0.835713 23.9143C0.445238 23.7527 0.25 23.4641 0.25 23.0486ZM2.14961 20.7374L4.52412 18.3629H23.6785V1.89961H2.14961V20.7374Z" fill="white"/>
</svg>
