<svg width="18" height="18" viewBox="0 0 18 18" fill="none" xmlns="http://www.w3.org/2000/svg">
<path id="Vector" d="M16.1875 17.5C14.2671 17.5 12.3586 17.0278 10.4618 16.0833C8.56505 15.1389 6.86111 13.9111 5.35 12.4C3.83889 10.8889 2.61111 9.18495 1.66667 7.28819C0.722222 5.39144 0.25 3.48287 0.25 1.5625C0.25 1.25892 0.351189 1.00595 0.553568 0.803568C0.755947 0.601189 1.00892 0.5 1.3125 0.5H4.61806C4.8323 0.5 5.0236 0.574768 5.19195 0.724306C5.36028 0.873843 5.46806 1.07454 5.51528 1.32639L6.15278 4.30139C6.18426 4.52176 6.18032 4.72245 6.14097 4.90347C6.10162 5.08449 6.01898 5.23796 5.89306 5.36389L3.53194 7.74861C4.41343 9.2125 5.40116 10.4875 6.49514 11.5736C7.58912 12.6597 8.8287 13.5806 10.2139 14.3361L12.4569 12.0222C12.6144 11.8491 12.7954 11.7271 13 11.6562C13.2046 11.5854 13.4093 11.5736 13.6139 11.6208L16.4236 12.2347C16.6646 12.2878 16.8626 12.4074 17.0176 12.5933C17.1725 12.7793 17.25 12.9981 17.25 13.25V16.4375C17.25 16.7411 17.1488 16.9941 16.9464 17.1964C16.7441 17.3988 16.4911 17.5 16.1875 17.5ZM2.82361 6.45L4.73611 4.51389L4.19306 1.91667H1.66667C1.66667 2.53056 1.76111 3.20347 1.95 3.93542C2.13889 4.66736 2.43009 5.50556 2.82361 6.45ZM15.8333 16.0833V13.5569L13.4014 13.0611L11.5361 15.0208C12.1815 15.3199 12.8819 15.5639 13.6375 15.7528C14.3931 15.9417 15.125 16.0519 15.8333 16.0833Z" fill="white"/>
</svg>
