<svg width="20" height="15" viewBox="0 0 20 15" fill="none" xmlns="http://www.w3.org/2000/svg">
<path d="M6.75235 12.2563L18.3401 0.668646C18.533 0.477114 18.7621 0.381348 19.0274 0.381348C19.2927 0.381348 19.5212 0.477677 19.7127 0.670337C19.9042 0.862976 20 1.09175 20 1.35666C20 1.62155 19.9042 1.84976 19.7127 2.04129L7.42272 14.3313C7.23118 14.5228 7.00773 14.6186 6.75235 14.6186C6.49698 14.6186 6.27352 14.5228 6.08199 14.3313L0.272177 8.52147C0.0806451 8.32851 -0.00980063 8.09939 0.000840054 7.83409C0.0114807 7.56878 0.113131 7.34035 0.305791 7.14882C0.49843 6.95729 0.727205 6.86152 0.992115 6.86152C1.257 6.86152 1.48522 6.95729 1.67675 7.14882L6.75235 12.2563Z" fill="#2DA1D7"/>
</svg>
