<svg width="74" height="74" viewBox="0 0 74 74" fill="none" xmlns="http://www.w3.org/2000/svg">
<path d="M31.5425 45.4175L22.4775 36.3525C21.9225 35.7975 21.2442 35.52 20.4425 35.52C19.6408 35.52 18.9317 35.8283 18.315 36.445C17.76 37 17.4825 37.6783 17.4825 38.48C17.4825 39.2817 17.76 39.96 18.315 40.515L29.6 51.8925C30.155 52.4475 30.8025 52.725 31.5425 52.725C32.2825 52.725 32.93 52.4475 33.485 51.8925L55.5925 29.785C56.2092 29.1683 56.5175 28.4592 56.5175 27.6575C56.5175 26.8558 56.2092 26.1467 55.5925 25.53C54.9758 24.975 54.2513 24.7129 53.4188 24.7437C52.5863 24.7746 51.8925 25.0675 51.3375 25.6225L31.5425 45.4175ZM37 74C31.9433 74 27.1642 73.0287 22.6625 71.0863C18.1608 69.1438 14.2296 66.4921 10.8688 63.1313C7.50792 59.7704 4.85625 55.8392 2.91375 51.3375C0.97125 46.8358 0 42.0567 0 37C0 31.8817 0.97125 27.0717 2.91375 22.57C4.85625 18.0683 7.50792 14.1525 10.8688 10.8225C14.2296 7.4925 18.1608 4.85625 22.6625 2.91375C27.1642 0.97125 31.9433 0 37 0C42.1183 0 46.9283 0.97125 51.43 2.91375C55.9317 4.85625 59.8475 7.4925 63.1775 10.8225C66.5075 14.1525 69.1438 18.0683 71.0863 22.57C73.0287 27.0717 74 31.8817 74 37C74 42.0567 73.0287 46.8358 71.0863 51.3375C69.1438 55.8392 66.5075 59.7704 63.1775 63.1313C59.8475 66.4921 55.9317 69.1438 51.43 71.0863C46.9283 73.0287 42.1183 74 37 74ZM37 68.45C45.7567 68.45 53.1875 65.3821 59.2925 59.2463C65.3975 53.1104 68.45 45.695 68.45 37C68.45 28.2433 65.3975 20.8125 59.2925 14.7075C53.1875 8.6025 45.7567 5.55 37 5.55C28.305 5.55 20.8896 8.6025 14.7537 14.7075C8.61792 20.8125 5.55 28.2433 5.55 37C5.55 45.695 8.61792 53.1104 14.7537 59.2463C20.8896 65.3821 28.305 68.45 37 68.45Z" fill="#2DA1D7"/>
</svg>
