<svg width="20" height="20" viewBox="0 0 20 20" fill="none" xmlns="http://www.w3.org/2000/svg">
<path d="M1.66667 20C1.22222 20 0.833333 19.8333 0.5 19.5C0.166667 19.1667 0 18.7778 0 18.3333V1.66667C0 1.22222 0.166667 0.833333 0.5 0.5C0.833333 0.166667 1.22222 0 1.66667 0H18.3333C18.7778 0 19.1667 0.166667 19.5 0.5C19.8333 0.833333 20 1.22222 20 1.66667V18.3333C20 18.7778 19.8333 19.1667 19.5 19.5C19.1667 19.8333 18.7778 20 18.3333 20H1.66667ZM1.66667 18.3333H18.3333V1.66667H1.66667V18.3333ZM4.05556 15.6389H15.9722C16.1296 15.6389 16.2477 15.5648 16.3264 15.4167C16.4051 15.2685 16.3981 15.1204 16.3056 14.9722L13.0556 10.6389C12.963 10.5278 12.8519 10.4722 12.7222 10.4722C12.5926 10.4722 12.4815 10.5278 12.3889 10.6389L9.05556 14.9444L6.80556 11.8611C6.71296 11.75 6.60185 11.6944 6.47222 11.6944C6.34259 11.6944 6.23148 11.75 6.13889 11.8611L3.75 14.9722C3.63889 15.1204 3.62269 15.2685 3.70139 15.4167C3.78009 15.5648 3.89815 15.6389 4.05556 15.6389Z" fill="white"/>
</svg>
