<svg width="17" height="20" viewBox="0 0 17 20" fill="none" xmlns="http://www.w3.org/2000/svg">
<path d="M4.948 16.7429C4.48335 16.7429 4.08536 16.5773 3.75405 16.246C3.42273 15.9147 3.25707 15.5167 3.25707 15.052V1.69093C3.25707 1.22628 3.42273 0.828293 3.75405 0.496976C4.08536 0.165659 4.48335 0 4.948 0H15.0658C15.5305 0 15.9285 0.165659 16.2598 0.496976C16.5911 0.828293 16.7567 1.22628 16.7567 1.69093V15.052C16.7567 15.5167 16.5911 15.9147 16.2598 16.246C15.9285 16.5773 15.5305 16.7429 15.0658 16.7429H4.948ZM4.948 15.3847H15.0658C15.149 15.3847 15.2252 15.35 15.2945 15.2807C15.3638 15.2114 15.3985 15.1352 15.3985 15.052V1.69093C15.3985 1.60776 15.3638 1.53152 15.2945 1.46223C15.2252 1.39291 15.149 1.35825 15.0658 1.35825H4.948C4.86483 1.35825 4.78859 1.39291 4.7193 1.46223C4.64998 1.53152 4.61532 1.60776 4.61532 1.69093V15.052C4.61532 15.1352 4.64998 15.2114 4.7193 15.2807C4.78859 15.35 4.86483 15.3847 4.948 15.3847ZM1.69093 20C1.22626 20 0.828275 19.8343 0.496976 19.503C0.165659 19.1717 0 18.7738 0 18.3091V4.26889C0 4.07611 0.0653157 3.91473 0.195947 3.78475C0.32656 3.65475 0.488715 3.58975 0.682409 3.58975C0.876104 3.58975 1.03717 3.65475 1.1656 3.78475C1.29403 3.91473 1.35825 4.07611 1.35825 4.26889V18.3091C1.35825 18.3923 1.39291 18.4685 1.46222 18.5378C1.53152 18.6071 1.60776 18.6417 1.69093 18.6417H12.4879C12.6806 18.6417 12.842 18.7071 12.972 18.8377C13.102 18.9683 13.167 19.1305 13.167 19.3242C13.167 19.5179 13.102 19.6789 12.972 19.8074C12.842 19.9358 12.6806 20 12.4879 20H1.69093Z" fill="white"/>
</svg>
