<svg width="15" height="15" viewBox="0 0 15 15" fill="none" xmlns="http://www.w3.org/2000/svg">
<path id="Vector" d="M7.5 8.7069L1.46552 14.7414C1.2931 14.9138 1.09195 15 0.862069 15C0.632184 15 0.431034 14.9138 0.258621 14.7414C0.0862069 14.569 0 14.3678 0 14.1379C0 13.908 0.0862069 13.7069 0.258621 13.5345L6.2931 7.5L0.258621 1.46552C0.0862069 1.2931 0 1.09195 0 0.862069C0 0.632184 0.0862069 0.431034 0.258621 0.258621C0.431034 0.0862069 0.632184 0 0.862069 0C1.09195 0 1.2931 0.0862069 1.46552 0.258621L7.5 6.2931L13.5345 0.258621C13.7069 0.0862069 13.908 0 14.1379 0C14.3678 0 14.569 0.0862069 14.7414 0.258621C14.9138 0.431034 15 0.632184 15 0.862069C15 1.09195 14.9138 1.2931 14.7414 1.46552L8.7069 7.5L14.7414 13.5345C14.9138 13.7069 15 13.908 15 14.1379C15 14.3678 14.9138 14.569 14.7414 14.7414C14.569 14.9138 14.3678 15 14.1379 15C13.908 15 13.7069 14.9138 13.5345 14.7414L7.5 8.7069Z" fill="white"/>
</svg>
