<svg width="22" height="20" viewBox="0 0 22 20" fill="none" xmlns="http://www.w3.org/2000/svg">
<path d="M2.17484 17.0588V18.2353V1.76468V17.0588ZM2.53687 20C1.95014 20 1.44901 19.7922 1.03348 19.3767C0.617931 18.9611 0.410156 18.46 0.410156 17.8733V2.12671C0.410156 1.53999 0.617931 1.03886 1.03348 0.623325C1.44901 0.207775 1.95014 0 2.53687 0H18.2834C18.8702 0 19.3713 0.207775 19.7868 0.623325C20.2024 1.03886 20.4102 1.53999 20.4102 2.12671V5.32808H18.6455V2.12671C18.6455 2.02112 18.6115 1.93439 18.5436 1.86651C18.4758 1.79862 18.389 1.76468 18.2834 1.76468H2.53687C2.43128 1.76468 2.34454 1.79862 2.27666 1.86651C2.20878 1.93439 2.17484 2.02112 2.17484 2.12671V17.8733C2.17484 17.9789 2.20878 18.0656 2.27666 18.1335C2.34454 18.2014 2.43128 18.2353 2.53687 18.2353H18.2834C18.389 18.2353 18.4758 18.2014 18.5436 18.1335C18.6115 18.0656 18.6455 17.9789 18.6455 17.8733V14.6719H20.4102V17.8733C20.4102 18.46 20.2024 18.9611 19.7868 19.3767C19.3713 19.7922 18.8702 20 18.2834 20H2.53687ZM11.9487 15.2941C11.3619 15.2941 10.8608 15.0863 10.4453 14.6708C10.0297 14.2552 9.82195 13.7541 9.82195 13.1674V6.83261C9.82195 6.24588 10.0297 5.74475 10.4453 5.32922C10.8608 4.91367 11.3619 4.7059 11.9487 4.7059H19.4599C20.0466 4.7059 20.5478 4.91367 20.9633 5.32922C21.3789 5.74475 21.5866 6.24588 21.5866 6.83261V13.1674C21.5866 13.7541 21.3789 14.2552 20.9633 14.6708C20.5478 15.0863 20.0466 15.2941 19.4599 15.2941H11.9487ZM19.4599 13.5294C19.5655 13.5294 19.6522 13.4955 19.7201 13.4276C19.788 13.3597 19.8219 13.273 19.8219 13.1674V6.83261C19.8219 6.72702 19.788 6.64028 19.7201 6.5724C19.6522 6.50452 19.5655 6.47058 19.4599 6.47058H11.9487C11.8431 6.47058 11.7563 6.50452 11.6885 6.5724C11.6206 6.64028 11.5866 6.72702 11.5866 6.83261V13.1674C11.5866 13.273 11.6206 13.3597 11.6885 13.4276C11.7563 13.4955 11.8431 13.5294 11.9487 13.5294H19.4599ZM15.1161 11.7647C15.6062 11.7647 16.0229 11.5931 16.3661 11.25C16.7092 10.9069 16.8808 10.4902 16.8808 10C16.8808 9.5098 16.7092 9.09313 16.3661 8.75C16.0229 8.40686 15.6062 8.23529 15.1161 8.23529C14.6259 8.23529 14.2092 8.40686 13.866 8.75C13.5229 9.09313 13.3513 9.5098 13.3513 10C13.3513 10.4902 13.5229 10.9069 13.866 11.25C14.2092 11.5931 14.6259 11.7647 15.1161 11.7647Z" fill="white"/>
</svg>
