<svg width="18" height="20" viewBox="0 0 18 20" fill="none" xmlns="http://www.w3.org/2000/svg">
<path d="M2.84062 20C2.39062 20 1.99687 19.8333 1.65937 19.5C1.32187 19.1667 1.15312 18.7778 1.15312 18.3333V2.5H0.84375C0.604687 2.5 0.404297 2.41968 0.242578 2.25903C0.0808594 2.09836 0 1.89929 0 1.66181C0 1.42431 0.0808594 1.22685 0.242578 1.06944C0.404297 0.912037 0.604687 0.833333 0.84375 0.833333H5.2875C5.2875 0.592593 5.36836 0.393519 5.53008 0.236111C5.6918 0.0787037 5.89219 0 6.13125 0H11.8687C12.1078 0 12.3082 0.0798611 12.4699 0.239583C12.6316 0.399306 12.7125 0.597222 12.7125 0.833333H17.1562C17.3953 0.833333 17.5957 0.913657 17.7574 1.07431C17.9191 1.23497 18 1.43405 18 1.67153C18 1.90903 17.9191 2.10648 17.7574 2.26389C17.5957 2.4213 17.3953 2.5 17.1562 2.5H16.8469V18.3333C16.8469 18.7778 16.6781 19.1667 16.3406 19.5C16.0031 19.8333 15.6094 20 15.1594 20H2.84062ZM2.84062 2.5V18.3333H15.1594V2.5H2.84062ZM5.82187 15.1111C5.82187 15.3472 5.9032 15.5451 6.06586 15.7049C6.22853 15.8646 6.4301 15.9444 6.67055 15.9444C6.91102 15.9444 7.11094 15.8646 7.27031 15.7049C7.42969 15.5451 7.50937 15.3472 7.50937 15.1111V5.69444C7.50937 5.45833 7.42805 5.26042 7.26539 5.10069C7.10272 4.94097 6.90115 4.86111 6.6607 4.86111C6.42023 4.86111 6.22031 4.94097 6.06094 5.10069C5.90156 5.26042 5.82187 5.45833 5.82187 5.69444V15.1111ZM10.4906 15.1111C10.4906 15.3472 10.572 15.5451 10.7346 15.7049C10.8973 15.8646 11.0988 15.9444 11.3393 15.9444C11.5798 15.9444 11.7797 15.8646 11.9391 15.7049C12.0984 15.5451 12.1781 15.3472 12.1781 15.1111V5.69444C12.1781 5.45833 12.0968 5.26042 11.9341 5.10069C11.7715 4.94097 11.5699 4.86111 11.3295 4.86111C11.089 4.86111 10.8891 4.94097 10.7297 5.10069C10.5703 5.26042 10.4906 5.45833 10.4906 5.69444V15.1111Z" fill="white"/>
</svg>
