<svg width="28" height="28" viewBox="0 0 28 28" fill="none" xmlns="http://www.w3.org/2000/svg">
<circle cx="14" cy="14" r="14" fill="#2DA1D7"/>
<path d="M13.9473 22C13.6955 22 13.4844 21.9148 13.314 21.7444C13.1436 21.5741 13.0584 21.363 13.0584 21.1111V20.0889C12.3918 19.9407 11.8066 19.6815 11.3029 19.3111C10.7992 18.9407 10.3918 18.4222 10.0807 17.7556C9.97695 17.5481 9.97325 17.3296 10.0695 17.1C10.1658 16.8704 10.3399 16.7037 10.5918 16.6C10.7992 16.5111 11.014 16.5148 11.2362 16.6111C11.4584 16.7074 11.6288 16.8667 11.7473 17.0889C11.9992 17.5333 12.3177 17.8704 12.7029 18.1C13.0881 18.3296 13.5621 18.4444 14.1251 18.4444C14.7325 18.4444 15.2473 18.3074 15.6695 18.0333C16.0918 17.7593 16.3029 17.3333 16.3029 16.7556C16.3029 16.237 16.1399 15.8259 15.814 15.5222C15.4881 15.2185 14.7325 14.8741 13.5473 14.4889C12.2733 14.0889 11.3992 13.6111 10.9251 13.0556C10.451 12.5 10.214 11.8222 10.214 11.0222C10.214 10.0593 10.5251 9.31111 11.1473 8.77778C11.7695 8.24444 12.4066 7.94074 13.0584 7.86667V6.88889C13.0584 6.63704 13.1436 6.42593 13.314 6.25556C13.4844 6.08519 13.6955 6 13.9473 6C14.1992 6 14.4103 6.08519 14.5807 6.25556C14.751 6.42593 14.8362 6.63704 14.8362 6.88889V7.86667C15.3992 7.95556 15.8881 8.13704 16.3029 8.41111C16.7177 8.68519 17.0584 9.02222 17.3251 9.42222C17.4584 9.61481 17.4844 9.82963 17.4029 10.0667C17.3214 10.3037 17.1547 10.4741 16.9029 10.5778C16.6955 10.6667 16.4807 10.6704 16.2584 10.5889C16.0362 10.5074 15.8288 10.363 15.6362 10.1556C15.4436 9.94815 15.2177 9.78889 14.9584 9.67778C14.6992 9.56667 14.377 9.51111 13.9918 9.51111C13.3399 9.51111 12.8436 9.65556 12.5029 9.94444C12.1621 10.2333 11.9918 10.5926 11.9918 11.0222C11.9918 11.5111 12.214 11.8963 12.6584 12.1778C13.1029 12.4593 13.8733 12.7556 14.9695 13.0667C15.9918 13.363 16.7658 13.8333 17.2918 14.4778C17.8177 15.1222 18.0807 15.8667 18.0807 16.7111C18.0807 17.763 17.7695 18.563 17.1473 19.1111C16.5251 19.6593 15.7547 20 14.8362 20.1333V21.1111C14.8362 21.363 14.751 21.5741 14.5807 21.7444C14.4103 21.9148 14.1992 22 13.9473 22Z" fill="white"/>
</svg>
