<svg width="20" height="20" viewBox="0 0 20 20" fill="none" xmlns="http://www.w3.org/2000/svg">
<path id="Vector" d="M1.66898 18.331H2.89291L15.9944 5.22949L15.3825 4.61752L14.7705 4.00556L1.66898 17.1071V18.331ZM0.834492 20C0.593417 20 0.394066 19.9212 0.236439 19.7636C0.0788132 19.6059 0 19.4066 0 19.1655V17.1349C0 16.9124 0.0463607 16.6945 0.139082 16.4812C0.231803 16.268 0.352341 16.0872 0.500695 15.9388L15.9666 0.472879C16.1335 0.305981 16.319 0.185443 16.5229 0.111266C16.7269 0.0370885 16.9309 0 17.1349 0C17.3389 0 17.5475 0.0370885 17.7608 0.111266C17.974 0.185443 18.1548 0.305981 18.3032 0.472879L19.5271 1.6968C19.694 1.84516 19.8146 2.02596 19.8887 2.23922C19.9629 2.45248 20 2.6611 20 2.86509C20 3.06908 19.9629 3.27306 19.8887 3.47705C19.8146 3.68104 19.694 3.86648 19.5271 4.03338L4.0612 19.4993C3.91284 19.6477 3.73204 19.7682 3.51878 19.8609C3.30552 19.9536 3.08762 20 2.86509 20H0.834492ZM15.9944 5.22949L15.3825 4.61752L14.7705 4.00556L15.9944 5.22949Z" fill="white"/>
</svg>
