<svg xmlns="http://www.w3.org/2000/svg" width="15" height="12" viewBox="0 0 15 12" fill="none">
  <path d="M7.50167 8.99893C8.33514 8.99893 9.04304 8.70722 9.62537 8.12378C10.2077 7.54034 10.4989 6.83188 10.4989 5.9984C10.4989 5.16493 10.2071 4.45703 9.62371 3.87471C9.04027 3.29238 8.33181 3.00121 7.49833 3.00121C6.66486 3.00121 5.95696 3.29293 5.37463 3.87636C4.79231 4.4598 4.50114 5.16827 4.50114 6.00175C4.50114 6.83521 4.79286 7.54311 5.37629 8.12544C5.95973 8.70777 6.6682 8.99893 7.50167 8.99893ZM7.5 7.98612C6.94832 7.98612 6.47939 7.79303 6.09322 7.40686C5.70704 7.02068 5.51395 6.55175 5.51395 6.00007C5.51395 5.44839 5.70704 4.97946 6.09322 4.59329C6.47939 4.20711 6.94832 4.01402 7.5 4.01402C8.05168 4.01402 8.52061 4.20711 8.90679 4.59329C9.29296 4.97946 9.48605 5.44839 9.48605 6.00007C9.48605 6.55175 9.29296 7.02068 8.90679 7.40686C8.52061 7.79303 8.05168 7.98612 7.5 7.98612ZM7.5 11.1491C5.95153 11.1491 4.53533 10.736 3.25138 9.9099C1.96743 9.08381 0.942576 7.99695 0.176832 6.64934C0.115534 6.54373 0.0707376 6.43728 0.0424426 6.33001C0.0141475 6.22273 0 6.11263 0 5.9997C0 5.88678 0.0141475 5.77681 0.0424426 5.66978C0.0707376 5.56274 0.115534 5.45642 0.176832 5.3508C0.942576 4.00319 1.96743 2.91634 3.25138 2.09024C4.53533 1.26413 5.95153 0.851074 7.5 0.851074C9.04847 0.851074 10.4647 1.26413 11.7486 2.09024C13.0326 2.91634 14.0574 4.00319 14.8232 5.3508C14.8845 5.45642 14.9293 5.56286 14.9576 5.67013C14.9859 5.77741 15 5.88752 15 6.00044C15 6.11336 14.9859 6.22334 14.9576 6.33036C14.9293 6.4374 14.8845 6.54373 14.8232 6.64934C14.0574 7.99695 13.0326 9.08381 11.7486 9.9099C10.4647 10.736 9.04847 11.1491 7.5 11.1491Z" fill="#666666"/>
</svg>