<svg width="20" height="20" viewBox="0 0 20 20" fill="none" xmlns="http://www.w3.org/2000/svg">
<path id="Vector" d="M9.16667 10.8333V14.7222C9.16667 14.9583 9.24699 15.1562 9.40764 15.316C9.56831 15.4757 9.76738 15.5556 10.0049 15.5556C10.2424 15.5556 10.4398 15.4757 10.5972 15.316C10.7546 15.1562 10.8333 14.9583 10.8333 14.7222V10.8333H14.7222C14.9583 10.8333 15.1562 10.753 15.316 10.5924C15.4757 10.4317 15.5556 10.2326 15.5556 9.99514C15.5556 9.75764 15.4757 9.56019 15.316 9.40278C15.1562 9.24537 14.9583 9.16667 14.7222 9.16667H10.8333V5.27778C10.8333 5.04167 10.753 4.84375 10.5924 4.68403C10.4317 4.52431 10.2326 4.44444 9.99514 4.44444C9.75764 4.44444 9.56019 4.52431 9.40278 4.68403C9.24537 4.84375 9.16667 5.04167 9.16667 5.27778V9.16667H5.27778C5.04167 9.16667 4.84375 9.24699 4.68403 9.40764C4.52431 9.56831 4.44444 9.76738 4.44444 10.0049C4.44444 10.2424 4.52431 10.4398 4.68403 10.5972C4.84375 10.7546 5.04167 10.8333 5.27778 10.8333H9.16667ZM1.66667 20C1.22222 20 0.833333 19.8333 0.5 19.5C0.166667 19.1667 0 18.7778 0 18.3333V1.66667C0 1.22222 0.166667 0.833333 0.5 0.5C0.833333 0.166667 1.22222 0 1.66667 0H18.3333C18.7778 0 19.1667 0.166667 19.5 0.5C19.8333 0.833333 20 1.22222 20 1.66667V18.3333C20 18.7778 19.8333 19.1667 19.5 19.5C19.1667 19.8333 18.7778 20 18.3333 20H1.66667ZM1.66667 18.3333H18.3333V1.66667H1.66667V18.3333Z" fill="white"/>
</svg>
