<svg width="20" height="20" viewBox="0 0 20 20" fill="none" xmlns="http://www.w3.org/2000/svg">
<path id="Vector" d="M3.65 15.45C4.63333 14.7445 5.64444 14.1986 6.68333 13.8125C7.72223 13.4264 8.82778 13.2333 10 13.2333C11.1722 13.2333 12.2806 13.4264 13.325 13.8125C14.3695 14.1986 15.3833 14.7445 16.3667 15.45C17.05 14.6222 17.5486 13.7583 17.8625 12.8583C18.1764 11.9583 18.3333 11.0056 18.3333 10C18.3333 7.65 17.532 5.67361 15.9292 4.07083C14.3264 2.46804 12.35 1.66665 10 1.66665C7.65 1.66665 5.67361 2.46804 4.07083 4.07083C2.46804 5.67361 1.66665 7.65 1.66665 10C1.66665 11.0056 1.82637 11.9583 2.14582 12.8583C2.46527 13.7583 2.96667 14.6222 3.65 15.45ZM9.9969 10.8333C9.02675 10.8333 8.20973 10.5003 7.54583 9.8344C6.88194 9.16845 6.55 8.35039 6.55 7.38022C6.55 6.41007 6.88298 5.59306 7.54892 4.92917C8.21489 4.26528 9.03295 3.93333 10.0031 3.93333C10.9733 3.93333 11.7903 4.26631 12.4542 4.93228C13.1181 5.59823 13.45 6.41627 13.45 7.38642C13.45 8.35659 13.117 9.17362 12.4511 9.8375C11.7851 10.5014 10.9671 10.8333 9.9969 10.8333ZM10.0078 20C8.63038 20 7.33334 19.7375 6.11667 19.2125C4.90001 18.6875 3.83889 17.9722 2.93332 17.0667C2.02777 16.1611 1.3125 15.1013 0.7875 13.8872C0.2625 12.6732 0 11.3759 0 9.99557C0 8.61519 0.2625 7.31944 0.7875 6.10833C1.3125 4.89723 2.02777 3.83889 2.93332 2.93333C3.83889 2.02778 4.89871 1.3125 6.11277 0.7875C7.32684 0.2625 8.62406 0 10.0044 0C11.3848 0 12.6806 0.2625 13.8917 0.7875C15.1028 1.3125 16.1611 2.02778 17.0667 2.93333C17.9722 3.83889 18.6875 4.89741 19.2125 6.10887C19.7375 7.32034 20 8.61478 20 9.9922C20 11.3696 19.7375 12.6667 19.2125 13.8833C18.6875 15.1 17.9722 16.1611 17.0667 17.0667C16.1611 17.9722 15.1026 18.6875 13.8911 19.2125C12.6797 19.7375 11.3852 20 10.0078 20ZM10 18.3333C10.9056 18.3333 11.7806 18.2014 12.625 17.9375C13.4694 17.6736 14.2833 17.2389 15.0667 16.6333C14.2833 16.0722 13.4667 15.6431 12.6167 15.3458C11.7667 15.0486 10.8945 14.9 10 14.9C9.10555 14.9 8.23333 15.0486 7.38333 15.3458C6.53333 15.6431 5.71666 16.0722 4.93333 16.6333C5.71666 17.2389 6.53055 17.6736 7.375 17.9375C8.21945 18.2014 9.09445 18.3333 10 18.3333ZM10 9.16667C10.5222 9.16667 10.95 9.00001 11.2833 8.66667C11.6167 8.33334 11.7833 7.90556 11.7833 7.38333C11.7833 6.86111 11.6167 6.43333 11.2833 6.1C10.95 5.76667 10.5222 5.6 10 5.6C9.47778 5.6 9.05 5.76667 8.71665 6.1C8.38332 6.43333 8.21665 6.86111 8.21665 7.38333C8.21665 7.90556 8.38332 8.33334 8.71665 8.66667C9.05 9.00001 9.47778 9.16667 10 9.16667Z" fill="white"/>
</svg>
