<svg width="20" height="20" viewBox="0 0 20 20" fill="none" xmlns="http://www.w3.org/2000/svg">
<path id="Vector" d="M14.6482 7.68519C14.9105 7.68519 15.1304 7.59615 15.3079 7.41806C15.4853 7.23996 15.5741 7.01928 15.5741 6.756C15.5741 6.49274 15.4853 6.27315 15.3079 6.09722C15.1304 5.9213 14.9105 5.83333 14.6482 5.83333H10.4259C10.1636 5.83333 9.94366 5.92238 9.76619 6.10047C9.58871 6.27856 9.49997 6.49924 9.49997 6.7625C9.49997 7.02578 9.58871 7.24538 9.76619 7.42131C9.94366 7.59723 10.1636 7.68519 10.4259 7.68519H14.6482ZM14.6482 14.1667C14.9105 14.1667 15.1304 14.0776 15.3079 13.8995C15.4853 13.7214 15.5741 13.5008 15.5741 13.2375C15.5741 12.9742 15.4853 12.7546 15.3079 12.5787C15.1304 12.4028 14.9105 12.3148 14.6482 12.3148H10.4259C10.1636 12.3148 9.94366 12.4039 9.76619 12.5819C9.58871 12.76 9.49997 12.9807 9.49997 13.244C9.49997 13.5073 9.58871 13.7269 9.76619 13.9028C9.94366 14.0787 10.1636 14.1667 10.4259 14.1667H14.6482ZM6.44444 8.46294C6.91296 8.46294 7.31404 8.29613 7.64767 7.9625C7.98132 7.62885 8.14814 7.22777 8.14814 6.75925C8.14814 6.29075 7.98132 5.88968 7.64767 5.55603C7.31404 5.2224 6.91296 5.05558 6.44444 5.05558C5.97593 5.05558 5.57484 5.2224 5.24119 5.55603C4.90757 5.88968 4.74075 6.29075 4.74075 6.75925C4.74075 7.22777 4.90757 7.62885 5.24119 7.9625C5.57484 8.29613 5.97593 8.46294 6.44444 8.46294ZM6.44444 14.9444C6.91296 14.9444 7.31404 14.7776 7.64767 14.444C7.98132 14.1103 8.14814 13.7092 8.14814 13.2408C8.14814 12.7722 7.98132 12.3711 7.64767 12.0375C7.31404 11.7039 6.91296 11.5371 6.44444 11.5371C5.97593 11.5371 5.57484 11.7039 5.24119 12.0375C4.90757 12.3711 4.74075 12.7722 4.74075 13.2408C4.74075 13.7092 4.90757 14.1103 5.24119 14.444C5.57484 14.7776 5.97593 14.9444 6.44444 14.9444ZM1.85183 20C1.35183 20 0.918194 19.8164 0.550916 19.4491C0.183639 19.0818 0 18.6482 0 18.1482V1.85183C0 1.35183 0.183639 0.918195 0.550916 0.550917C0.918194 0.183639 1.35183 0 1.85183 0H18.1482C18.6482 0 19.0818 0.183639 19.4491 0.550917C19.8164 0.918195 20 1.35183 20 1.85183V18.1482C20 18.6482 19.8164 19.0818 19.4491 19.4491C19.0818 19.8164 18.6482 20 18.1482 20H1.85183ZM1.85183 18.1482H18.1482V1.85183H1.85183V18.1482Z" fill="white"/>
</svg>
