<svg width="23" height="20" viewBox="0 0 23 20" fill="none" xmlns="http://www.w3.org/2000/svg">
<path id="Vector" d="M11.0972 15.9167C12.4398 15.9167 13.5648 15.463 14.4722 14.5556C15.3796 13.6481 15.8333 12.5231 15.8333 11.1806C15.8333 9.83796 15.3796 8.71759 14.4722 7.81944C13.5648 6.9213 12.4398 6.47222 11.0972 6.47222C9.75463 6.47222 8.63426 6.9213 7.73611 7.81944C6.83796 8.71759 6.38889 9.83796 6.38889 11.1806C6.38889 12.5231 6.83796 13.6481 7.73611 14.5556C8.63426 15.463 9.75463 15.9167 11.0972 15.9167ZM11.0972 14.25C10.2176 14.25 9.49074 13.9583 8.91667 13.375C8.34259 12.7917 8.05556 12.0602 8.05556 11.1806C8.05556 10.3009 8.34259 9.57407 8.91667 9C9.49074 8.42593 10.2176 8.13889 11.0972 8.13889C11.9769 8.13889 12.7083 8.42593 13.2917 9C13.875 9.57407 14.1667 10.3009 14.1667 11.1806C14.1667 12.0602 13.875 12.7917 13.2917 13.375C12.7083 13.9583 11.9769 14.25 11.0972 14.25ZM1.66667 20C1.22222 20 0.833333 19.8333 0.5 19.5C0.166667 19.1667 0 18.7778 0 18.3333V4.08333C0 3.65741 0.166667 3.27315 0.5 2.93056C0.833333 2.58796 1.22222 2.41667 1.66667 2.41667H5.75L7.27778 0.583333C7.42593 0.37963 7.61111 0.231481 7.83333 0.138889C8.05556 0.0462963 8.2963 0 8.55556 0H13.6667C13.9259 0 14.1667 0.0462963 14.3889 0.138889C14.6111 0.231481 14.7963 0.37963 14.9444 0.583333L16.4722 2.41667H20.5556C20.9815 2.41667 21.3657 2.58796 21.7083 2.93056C22.0509 3.27315 22.2222 3.65741 22.2222 4.08333V18.3333C22.2222 18.7778 22.0509 19.1667 21.7083 19.5C21.3657 19.8333 20.9815 20 20.5556 20H1.66667ZM1.66667 18.3333H20.5556V4.08333H15.6944L13.6667 1.66667H8.55556L6.52778 4.08333H1.66667V18.3333Z" fill="white"/>
</svg>
