<svg width="17" height="20" viewBox="0 0 17 20" fill="none" xmlns="http://www.w3.org/2000/svg">
<path id="Vector" d="M8.22974 18.3112C10.4472 16.288 12.0875 14.4521 13.1505 12.8033C14.2135 11.1545 14.745 9.69853 14.745 8.43549C14.745 6.46618 14.1161 4.85369 12.8583 3.59802C11.6005 2.34235 10.0576 1.71451 8.22974 1.71451C6.40187 1.71451 4.85902 2.34235 3.60121 3.59802C2.34341 4.85369 1.71451 6.46618 1.71451 8.43549C1.71451 9.69853 2.25459 11.1545 3.33474 12.8033C4.41491 14.4521 6.04658 16.288 8.22974 18.3112ZM8.22545 20C8.02257 20 7.82111 19.9657 7.62108 19.8971C7.42106 19.8285 7.2439 19.72 7.08959 19.5714C6.23805 18.7941 5.38936 17.9597 4.54351 17.0682C3.69768 16.1766 2.939 15.2522 2.26747 14.2949C1.59594 13.3376 1.05015 12.3632 0.63009 11.3716C0.21003 10.3801 0 9.40135 0 8.43549C0 5.86369 0.827261 3.81483 2.48178 2.2889C4.1363 0.762966 6.05229 0 8.22974 0C10.4072 0 12.3232 0.762966 13.9777 2.2889C15.6322 3.81483 16.4595 5.86369 16.4595 8.43549C16.4595 9.40135 16.2495 10.3801 15.8294 11.3716C15.4093 12.3632 14.8635 13.3376 14.192 14.2949C13.5205 15.2522 12.7618 16.1766 11.916 17.0682C11.0701 17.9597 10.2214 18.7941 9.3699 19.5714C9.21559 19.72 9.037 19.8285 8.83412 19.8971C8.63124 19.9657 8.42835 20 8.22545 20ZM8.23126 10.1157C8.75032 10.1157 9.19416 9.9309 9.56278 9.56126C9.93141 9.19163 10.1157 8.74728 10.1157 8.22823C10.1157 7.70917 9.9309 7.26533 9.56126 6.89671C9.19163 6.52808 8.74728 6.34377 8.22823 6.34377C7.70917 6.34377 7.26533 6.52859 6.89671 6.89822C6.52808 7.26786 6.34377 7.7122 6.34377 8.23126C6.34377 8.75032 6.52859 9.19416 6.89822 9.56278C7.26786 9.93141 7.7122 10.1157 8.23126 10.1157Z" fill="white"/>
</svg>
