<svg width="16" height="20" viewBox="0 0 16 20" fill="none" xmlns="http://www.w3.org/2000/svg">
<path id="Vector" d="M1.66665 20C1.21665 20 0.826375 19.8347 0.495825 19.5042C0.165275 19.1736 0 18.7833 0 18.3333V1.66665C0 1.21665 0.165275 0.826375 0.495825 0.495825C0.826375 0.165275 1.21665 0 1.66665 0H9.65835C9.88552 0 10.102 0.0444419 10.3079 0.133325C10.5137 0.222225 10.6917 0.341675 10.8417 0.491675L15.5083 5.15833C15.6583 5.30833 15.7778 5.48626 15.8667 5.69212C15.9556 5.89797 16 6.11448 16 6.34165V18.3333C16 18.7833 15.8347 19.1736 15.5042 19.5042C15.1736 19.8347 14.7833 20 14.3334 20H1.66665ZM9.51667 5.6V1.66665H1.66665V18.3333H14.3334V6.43333H10.35C10.1139 6.43333 9.91599 6.35346 9.75627 6.19373C9.59654 6.03401 9.51667 5.8361 9.51667 5.6Z" fill="#666666"/>
</svg>
