<svg width="16" height="20" viewBox="0 0 16 20" fill="none" xmlns="http://www.w3.org/2000/svg">
<path id="Vector" d="M4.81665 15.8333H11.1833C11.4194 15.8333 11.6174 15.7532 11.7771 15.5929C11.9368 15.4326 12.0167 15.234 12.0167 14.9971C12.0167 14.7601 11.9368 14.5625 11.7771 14.4042C11.6174 14.2458 11.4194 14.1667 11.1833 14.1667H4.81665C4.58055 14.1667 4.38264 14.2468 4.22292 14.4071C4.06319 14.5674 3.98333 14.766 3.98333 15.0029C3.98333 15.2399 4.06319 15.4375 4.22292 15.5958C4.38264 15.7542 4.58055 15.8333 4.81665 15.8333ZM4.81665 11.6666H11.1833C11.4194 11.6666 11.6174 11.5865 11.7771 11.4262C11.9368 11.2659 12.0167 11.0673 12.0167 10.8304C12.0167 10.5935 11.9368 10.3958 11.7771 10.2375C11.6174 10.0792 11.4194 10 11.1833 10H4.81665C4.58055 10 4.38264 10.0801 4.22292 10.2404C4.06319 10.4007 3.98333 10.5993 3.98333 10.8363C3.98333 11.0732 4.06319 11.2708 4.22292 11.4291C4.38264 11.5875 4.58055 11.6666 4.81665 11.6666ZM1.66665 20C1.21665 20 0.826375 19.8347 0.495825 19.5042C0.165275 19.1736 0 18.7833 0 18.3333V1.66665C0 1.21665 0.165275 0.826375 0.495825 0.495825C0.826375 0.165275 1.21665 0 1.66665 0H9.65835C9.88552 0 10.102 0.0444419 10.3079 0.133325C10.5137 0.222225 10.6917 0.341675 10.8417 0.491675L15.5083 5.15833C15.6583 5.30833 15.7778 5.48626 15.8667 5.69212C15.9556 5.89797 16 6.11448 16 6.34165V18.3333C16 18.7833 15.8347 19.1736 15.5042 19.5042C15.1736 19.8347 14.7833 20 14.3334 20H1.66665ZM9.51667 5.6V1.66665H1.66665V18.3333H14.3334V6.43333H10.35C10.1139 6.43333 9.91599 6.35346 9.75627 6.19373C9.59654 6.03401 9.51667 5.8361 9.51667 5.6Z" fill="white"/>
</svg>
