<svg width="22" height="15" viewBox="0 0 22 15" fill="none" xmlns="http://www.w3.org/2000/svg">
<path id="Vector" d="M9.74321 14.2353C9.46821 14.2353 9.2377 14.1422 9.05167 13.9561C8.86566 13.77 8.77265 13.5394 8.77265 13.2643C8.77265 12.9891 8.86566 12.7587 9.05167 12.5728C9.2377 12.387 9.46821 12.2941 9.74321 12.2941H12.2443C12.5193 12.2941 12.7498 12.3872 12.9359 12.5733C13.1219 12.7594 13.2149 12.99 13.2149 13.2651C13.2149 13.5402 13.1219 13.7707 12.9359 13.9565C12.7498 14.1424 12.5193 14.2353 12.2443 14.2353H9.74321ZM4.72849 8.08819C4.45351 8.08819 4.22301 7.99515 4.03698 7.80905C3.85095 7.62294 3.75793 7.39232 3.75793 7.11722C3.75793 6.84208 3.85095 6.61161 4.03698 6.4258C4.22301 6.23998 4.45351 6.14708 4.72849 6.14708H17.259C17.534 6.14708 17.7646 6.24012 17.9506 6.42622C18.1366 6.61234 18.2296 6.84295 18.2296 7.11806C18.2296 7.39319 18.1366 7.62366 17.9506 7.80947C17.7646 7.99529 17.534 8.08819 17.259 8.08819H4.72849ZM0.970591 1.94115C0.69559 1.94115 0.465075 1.84809 0.279045 1.66198C0.093015 1.47588 0 1.24527 0 0.970139C0 0.69503 0.093015 0.464569 0.279045 0.278755C0.465075 0.0929188 0.69559 0 0.970591 0H21.0294C21.3044 0 21.5349 0.093059 21.721 0.279175C21.907 0.465291 22 0.695903 22 0.971012C22 1.24614 21.907 1.47662 21.721 1.66243C21.5349 1.84824 21.3044 1.94115 21.0294 1.94115H0.970591Z" fill="white"/>
</svg>
