<svg width="23" height="20" viewBox="0 0 23 20" fill="none" xmlns="http://www.w3.org/2000/svg">
<path id="Vector" d="M5.23671 17.3039C4.93995 17.3039 4.6912 17.2035 4.49046 17.0028C4.28972 16.8021 4.18935 16.5533 4.18935 16.2566V14.4807H18.8408L19.2165 14.8564V4.14383H20.9924C21.2891 4.14383 21.5379 4.24419 21.7386 4.44494C21.9394 4.64568 22.0397 4.89442 22.0397 5.19115V18.9068C22.0397 19.3841 21.8208 19.7155 21.3829 19.9011C20.945 20.0867 20.5575 20.011 20.2206 19.6741L17.8504 17.3039H5.23671ZM4.18935 12.1128L1.81918 14.4829C1.48223 14.8199 1.09479 14.8956 0.65686 14.71C0.218953 14.5243 0 14.1929 0 13.7156V1.04736C0 0.7506 0.10037 0.501851 0.30111 0.301111C0.50185 0.100371 0.7506 0 1.04736 0H15.8013C16.098 0 16.3467 0.100371 16.5475 0.301111C16.7482 0.501851 16.8486 0.7506 16.8486 1.04736V11.0654C16.8486 11.3622 16.7482 11.6109 16.5475 11.8116C16.3467 12.0124 16.098 12.1128 15.8013 12.1128H4.18935ZM15.0727 10.3368V1.77591H1.77591V11.1566L2.59562 10.3368H15.0727Z" fill="white"/>
</svg>
