<svg width="22" height="20" viewBox="0 0 22 20" fill="none" xmlns="http://www.w3.org/2000/svg">
<path id="Vector" d="M21.1011 10.94H17.2069C16.9596 10.94 16.7523 10.8562 16.585 10.6887C16.4177 10.5212 16.3341 10.3136 16.3341 10.066C16.3341 9.81831 16.4177 9.61113 16.585 9.44441C16.7523 9.27767 16.9596 9.1943 17.2069 9.1943H21.1011C21.3484 9.1943 21.5557 9.27806 21.723 9.44559C21.8903 9.61309 21.974 9.82067 21.974 10.0683C21.974 10.316 21.8903 10.5232 21.723 10.6899C21.5557 10.8566 21.3484 10.94 21.1011 10.94ZM14.2593 16.2435C14.416 16.0376 14.6096 15.9167 14.8401 15.8809C15.0707 15.8451 15.2889 15.9055 15.4948 16.0622L18.59 18.392C18.7959 18.5487 18.9168 18.7423 18.9526 18.9728C18.9884 19.2033 18.928 19.4216 18.7713 19.6275C18.6147 19.8334 18.4211 19.9542 18.1905 19.99C17.96 20.0258 17.7418 19.9654 17.5359 19.8087L14.4406 17.4789C14.2347 17.3222 14.1139 17.1286 14.0781 16.8981C14.0423 16.6676 14.1027 16.4494 14.2593 16.2435ZM18.4557 1.60796L15.3605 3.9378C15.1546 4.09447 14.9364 4.1549 14.7058 4.11909C14.4753 4.08327 14.2817 3.96241 14.1251 3.75651C13.9684 3.5506 13.908 3.33239 13.9438 3.10187C13.9796 2.87136 14.1004 2.67776 14.3064 2.52108L17.4016 0.191286C17.6075 0.0346099 17.8257 -0.0258197 18.0562 0.00999607C18.2868 0.0458118 18.4804 0.166671 18.637 0.372575C18.7937 0.578479 18.8541 0.79669 18.8183 1.02721C18.7825 1.25773 18.6616 1.45131 18.4557 1.60796ZM5.97563 13.5585H1.40999C1.01049 13.5585 0.675626 13.4234 0.405393 13.1532C0.135131 12.8829 0 12.548 0 12.1486V7.98571C0 7.58624 0.135131 7.25138 0.405393 6.98111C0.675626 6.71088 1.01049 6.57576 1.40999 6.57576H5.97563L10.6621 1.88924C10.9464 1.60501 11.2771 1.53976 11.6542 1.69346C12.0313 1.8472 12.2199 2.12172 12.2199 2.51704V17.6173C12.2199 18.0126 12.0313 18.2871 11.6542 18.4408C11.2771 18.5945 10.9464 18.5293 10.6621 18.245L5.97563 13.5585ZM10.4741 4.56822L6.7209 8.32145H1.74569V11.8128H6.7209L10.4741 15.5661V4.56822Z" fill="white"/>
</svg>
