<svg width="20" height="15" viewBox="0 0 20 15" fill="none" xmlns="http://www.w3.org/2000/svg">
<path d="M18.413 6.32352L13.8578 1.75731C13.7228 1.61774 13.6553 1.45711 13.6553 1.27543C13.6553 1.09376 13.7228 0.933141 13.8578 0.793574C13.9974 0.657666 14.1579 0.591426 14.3393 0.594853C14.5207 0.59828 14.676 0.66452 14.805 0.793574L19.7481 5.73662C19.8364 5.82493 19.9005 5.91622 19.9403 6.01049C19.9801 6.10476 20 6.2091 20 6.32352C20 6.43334 19.9801 6.53653 19.9403 6.6331C19.9005 6.72966 19.8364 6.82209 19.7481 6.9104L14.816 11.8356C14.681 11.9752 14.5225 12.044 14.3403 12.0422C14.1582 12.0404 13.9974 11.9715 13.8578 11.8356C13.7228 11.7006 13.6531 11.5422 13.6488 11.3603C13.6444 11.1784 13.7086 11.0233 13.8413 10.8952L18.413 6.32352ZM13.1206 6.9962H5.0645C4.01197 6.9962 3.12898 7.35292 2.41553 8.06637C1.7021 8.77981 1.34538 9.6605 1.34538 10.7085V13.7329C1.34538 13.9269 1.28177 14.0876 1.15456 14.2148C1.02734 14.342 0.866715 14.4056 0.672678 14.4056C0.478658 14.4056 0.318041 14.342 0.190824 14.2148C0.0636081 14.0876 0 13.9269 0 13.7329V10.7085C0 9.28344 0.487823 8.08424 1.46347 7.11086C2.43913 6.1375 3.63948 5.65082 5.0645 5.65082H13.1206L9.23809 1.75731C9.1031 1.61774 9.0356 1.45711 9.0356 1.27543C9.0356 1.09376 9.1031 0.933141 9.23809 0.793574C9.37766 0.657666 9.53816 0.591426 9.7196 0.594853C9.90105 0.59828 10.0563 0.66452 10.1853 0.793574L15.1284 5.73662C15.2167 5.82493 15.2808 5.91622 15.3206 6.01049C15.3604 6.10476 15.3803 6.2091 15.3803 6.32352C15.3803 6.43334 15.3604 6.53653 15.3206 6.6331C15.2808 6.72966 15.2167 6.82209 15.1284 6.9104L10.1963 11.8356C10.0613 11.9752 9.90277 12.044 9.72064 12.0422C9.53851 12.0404 9.37766 11.9715 9.23809 11.8356C9.1031 11.7006 9.03342 11.5422 9.02906 11.3603C9.02473 11.1784 9.08891 11.0233 9.2216 10.8952L13.1206 6.9962Z" fill="white"/>
</svg>
