<svg width="20" height="21" viewBox="0 0 20 21" fill="none" xmlns="http://www.w3.org/2000/svg">
<path d="M2.12671 20.5C1.53244 20.5 1.02941 20.2941 0.617649 19.8824C0.205883 19.4706 0 18.9676 0 18.3733V2.62671C0 2.03244 0.205883 1.52941 0.617649 1.11765C1.02941 0.705883 1.53244 0.5 2.12671 0.5H17.8733C18.4676 0.5 18.9706 0.705883 19.3824 1.11765C19.7941 1.52941 20 2.03244 20 2.62671V18.3733C20 18.9676 19.7941 19.4706 19.3824 19.8824C18.9706 20.2941 18.4676 20.5 17.8733 20.5H2.12671ZM2.12671 18.7353H17.8733C17.9638 18.7353 18.0468 18.6976 18.1222 18.6222C18.1976 18.5468 18.2353 18.4638 18.2353 18.3733V2.62671C18.2353 2.5362 18.1976 2.45323 18.1222 2.3778C18.0468 2.30239 17.9638 2.26468 17.8733 2.26468H2.12671C2.0362 2.26468 1.95323 2.30239 1.8778 2.3778C1.80239 2.45323 1.76468 2.5362 1.76468 2.62671V18.3733C1.76468 18.4638 1.80239 18.5468 1.8778 18.6222C1.95323 18.6976 2.0362 18.7353 2.12671 18.7353ZM5.88234 12.7851H7.05881C7.36952 12.7851 7.63196 12.678 7.84614 12.4638C8.06032 12.2496 8.16741 11.9872 8.16741 11.6765V11.0882C8.16741 10.9465 8.11612 10.8243 8.01355 10.7217C7.911 10.6192 7.78884 10.5679 7.64705 10.5679C7.50527 10.5679 7.3831 10.6192 7.28055 10.7217C7.17798 10.8243 7.1267 10.9465 7.1267 11.0882V11.6765C7.1267 11.6916 7.11916 11.7066 7.10408 11.7217C7.08898 11.7368 7.07389 11.7444 7.05881 11.7444H5.88234C5.86726 11.7444 5.85217 11.7368 5.83708 11.7217C5.822 11.7066 5.81446 11.6916 5.81446 11.6765V9.32353C5.81446 9.30845 5.82011 9.29336 5.83143 9.27826C5.84274 9.26318 5.85594 9.25564 5.87102 9.25564H7.63573C7.77751 9.25564 7.89969 9.20436 8.00226 9.10179C8.10481 8.99924 8.15608 8.87707 8.15608 8.73529C8.15608 8.5935 8.10481 8.47134 8.00226 8.36879C7.89969 8.26622 7.77751 8.21493 7.63573 8.21493H5.88234C5.57163 8.21493 5.30919 8.32202 5.09501 8.5362C4.88084 8.75038 4.77375 9.01282 4.77375 9.32353V11.6765C4.77375 11.9872 4.88084 12.2496 5.09501 12.4638C5.30919 12.678 5.57163 12.7851 5.88234 12.7851ZM10 12.7851C10.1418 12.7851 10.264 12.7338 10.3665 12.6312C10.4691 12.5287 10.5204 12.4065 10.5204 12.2647V8.73529C10.5204 8.5935 10.4691 8.47134 10.3665 8.36879C10.264 8.26622 10.1418 8.21493 10 8.21493C9.85821 8.21493 9.73605 8.26622 9.6335 8.36879C9.53093 8.47134 9.47964 8.5935 9.47964 8.73529V12.2647C9.47964 12.4065 9.53093 12.5287 9.6335 12.6312C9.73605 12.7338 9.85821 12.7851 10 12.7851ZM12.3529 12.7851C12.4947 12.7851 12.6169 12.7338 12.7194 12.6312C12.822 12.5287 12.8733 12.4065 12.8733 12.2647V11.0204H14.1177C14.2594 11.0204 14.3816 10.9691 14.4842 10.8665C14.5867 10.764 14.638 10.6418 14.638 10.5C14.638 10.3582 14.5867 10.236 14.4842 10.1335C14.3816 10.0309 14.2594 9.97965 14.1177 9.97965H12.8733V9.25564H14.7059C14.8477 9.25564 14.9698 9.20436 15.0724 9.10179C15.175 8.99924 15.2263 8.87707 15.2263 8.73529C15.2263 8.5935 15.175 8.47134 15.0724 8.36879C14.9698 8.26622 14.8477 8.21493 14.7059 8.21493H12.3529C12.2112 8.21493 12.089 8.26622 11.9864 8.36879C11.8839 8.47134 11.8326 8.5935 11.8326 8.73529V12.2647C11.8326 12.4065 11.8839 12.5287 11.9864 12.6312C12.089 12.7338 12.2112 12.7851 12.3529 12.7851Z" fill="#765F94"/>
</svg>
