<svg width="26" height="13" viewBox="0 0 26 13" fill="none" xmlns="http://www.w3.org/2000/svg">
<path d="M1.74922 12.1958C1.4827 12.1958 1.25929 12.1056 1.079 11.9253C0.89873 11.745 0.808594 11.5216 0.808594 11.2551V10.8705C0.808594 10.1473 1.18624 9.55329 1.94153 9.08855C2.69682 8.6238 3.68135 8.39143 4.8951 8.39143C5.09577 8.39143 5.29784 8.3977 5.5013 8.41026C5.70476 8.42279 5.90961 8.44718 6.11584 8.48341C5.90403 8.82203 5.74691 9.17355 5.64448 9.53795C5.54207 9.90235 5.49086 10.2762 5.49086 10.6594V12.1958H1.74922ZM8.3171 12.1958C8.03412 12.1958 7.79892 12.1016 7.6115 11.9133C7.42405 11.725 7.33033 11.4917 7.33033 11.2133V10.7012C7.33033 10.1923 7.47317 9.72716 7.75886 9.30575C8.04453 8.88433 8.45632 8.51685 8.99422 8.2033C9.53212 7.88977 10.1676 7.65461 10.9006 7.49784C11.6335 7.34106 12.4348 7.26267 13.3044 7.26267C14.1907 7.26267 15.0003 7.34106 15.7333 7.49784C16.4663 7.65461 17.1018 7.88977 17.6397 8.2033C18.1776 8.51685 18.5866 8.88433 18.8667 9.30575C19.1468 9.72716 19.2868 10.1923 19.2868 10.7012V11.2133C19.2868 11.4917 19.1927 11.725 19.0044 11.9133C18.8161 12.1016 18.5827 12.1958 18.3044 12.1958H8.3171ZM21.1263 12.1958V10.6609C21.1263 10.2516 21.0779 9.86648 20.981 9.50556C20.8842 9.14463 20.7389 8.80392 20.5452 8.48341C20.7584 8.44718 20.9622 8.42279 21.1566 8.41026C21.351 8.3977 21.543 8.39143 21.7325 8.39143C22.9463 8.39143 23.9291 8.62101 24.6809 9.08018C25.4327 9.53935 25.8086 10.1361 25.8086 10.8705V11.2551C25.8086 11.5216 25.7184 11.745 25.5382 11.9253C25.3579 12.1056 25.1345 12.1958 24.868 12.1958H21.1263ZM9.04435 10.5653H17.5895V10.4504C17.4781 10.0114 17.0154 9.64212 16.2016 9.34251C15.3878 9.04289 14.4234 8.89308 13.3086 8.89308C12.1937 8.89308 11.2294 9.04289 10.4156 9.34251C9.60176 9.64212 9.14468 10.0114 9.04435 10.4504V10.5653ZM4.89233 7.33582C4.37997 7.33582 3.94229 7.15367 3.57928 6.78935C3.21627 6.42504 3.03477 5.98709 3.03477 5.47549C3.03477 4.9571 3.21693 4.51919 3.58124 4.16174C3.94555 3.80429 4.38351 3.62557 4.8951 3.62557C5.41349 3.62557 5.85315 3.80429 6.21407 4.16174C6.575 4.51919 6.75546 4.95813 6.75546 5.47859C6.75546 5.98375 6.57691 6.41959 6.21981 6.78609C5.8627 7.15258 5.42021 7.33582 4.89233 7.33582ZM21.7325 7.33582C21.2253 7.33582 20.7884 7.15258 20.4219 6.78609C20.0554 6.41959 19.8722 5.98375 19.8722 5.47859C19.8722 4.95813 20.0554 4.51919 20.4219 4.16174C20.7884 3.80429 21.2259 3.62557 21.7345 3.62557C22.2585 3.62557 22.6993 3.80429 23.0567 4.16174C23.4141 4.51919 23.5929 4.9571 23.5929 5.47549C23.5929 5.98709 23.4146 6.42504 23.058 6.78935C22.7014 7.15367 22.2596 7.33582 21.7325 7.33582ZM13.3123 6.44745C12.5294 6.44745 11.8628 6.1731 11.3124 5.62441C10.7619 5.07571 10.4867 4.40943 10.4867 3.62557C10.4867 2.82604 10.761 2.15584 11.3097 1.61499C11.8584 1.07414 12.5247 0.803711 13.3086 0.803711C14.1081 0.803711 14.7783 1.07378 15.3192 1.61393C15.86 2.15408 16.1305 2.8234 16.1305 3.6219C16.1305 4.40473 15.8604 5.07136 15.3202 5.6218C14.7801 6.17223 14.1108 6.44745 13.3123 6.44745ZM13.3138 4.81707C13.6462 4.81707 13.927 4.70071 14.1562 4.46799C14.3854 4.23525 14.5001 3.95271 14.5001 3.62035C14.5001 3.28799 14.3859 3.0072 14.1575 2.77796C13.9292 2.54872 13.6462 2.4341 13.3086 2.4341C12.9797 2.4341 12.6989 2.54828 12.4662 2.77665C12.2335 3.00502 12.1171 3.28799 12.1171 3.62557C12.1171 3.95445 12.2335 4.23525 12.4662 4.46799C12.6989 4.70071 12.9814 4.81707 13.3138 4.81707Z" fill="#5887B6"/>
</svg>
