<svg width="63" height="63" viewBox="0 0 63 63" fill="none" xmlns="http://www.w3.org/2000/svg">
<g filter="url(#filter0_bd_562_8297)">
<circle cx="31.5" cy="27.5" r="27.5" fill="white" fill-opacity="0.15" shape-rendering="crispEdges"/>
</g>
<path d="M31.9773 40C30.2864 40 28.7273 39.5682 27.3 38.7045C25.8727 37.8409 24.7227 36.6818 23.85 35.2273L20.1136 29.0091C20.0227 28.8455 19.9864 28.6727 20.0045 28.4909C20.0227 28.3091 20.1045 28.1455 20.25 28L20.3318 27.9182C20.6227 27.6273 20.9682 27.4682 21.3682 27.4409C21.7682 27.4136 22.1318 27.5182 22.4591 27.7545L25.7864 30.2091V19C25.7864 18.7818 25.8636 18.5909 26.0182 18.4273C26.1727 18.2636 26.3682 18.1818 26.6045 18.1818C26.8227 18.1818 27.0136 18.2636 27.1773 18.4273C27.3409 18.5909 27.4227 18.7818 27.4227 19V31.7909C27.4227 32.1364 27.2727 32.3818 26.9727 32.5273C26.6727 32.6727 26.3864 32.6455 26.1136 32.4455L22.5409 29.8L25.2136 34.2727C25.9045 35.5273 26.85 36.5227 28.05 37.2591C29.25 37.9955 30.5591 38.3636 31.9773 38.3636C34.0318 38.3636 35.7864 37.6545 37.2409 36.2364C38.6955 34.8182 39.4227 33.0909 39.4227 31.0545V20.0909C39.4227 19.8727 39.5 19.6818 39.6545 19.5182C39.8091 19.3545 40.0045 19.2727 40.2409 19.2727C40.4591 19.2727 40.65 19.3545 40.8136 19.5182C40.9773 19.6818 41.0591 19.8727 41.0591 20.0909V31.0545C41.0591 33.5455 40.1727 35.6591 38.4 37.3955C36.6273 39.1318 34.4864 40 31.9773 40ZM31.1591 16C31.3955 16 31.5909 16.0818 31.7455 16.2455C31.9 16.4091 31.9773 16.6 31.9773 16.8182V26.9091C31.9773 27.1455 31.9 27.3409 31.7455 27.4955C31.5909 27.65 31.3955 27.7273 31.1591 27.7273C30.9227 27.7273 30.7273 27.65 30.5727 27.4955C30.4182 27.3409 30.3409 27.1455 30.3409 26.9091V16.8182C30.3409 16.6 30.4227 16.4091 30.5864 16.2455C30.75 16.0818 30.9409 16 31.1591 16ZM35.7136 17.0909C35.9318 17.0909 36.1227 17.1727 36.2864 17.3364C36.45 17.5 36.5318 17.6909 36.5318 17.9091V26.9091C36.5318 27.1455 36.4545 27.3409 36.3 27.4955C36.1455 27.65 35.95 27.7273 35.7136 27.7273C35.4773 27.7273 35.2818 27.65 35.1273 27.4955C34.9727 27.3409 34.8955 27.1455 34.8955 26.9091V17.9091C34.8955 17.6909 34.9727 17.5 35.1273 17.3364C35.2818 17.1727 35.4773 17.0909 35.7136 17.0909Z" fill="white"/>
<defs>
<filter id="filter0_bd_562_8297" x="-16" y="-20" width="95" height="95" filterUnits="userSpaceOnUse" color-interpolation-filters="sRGB">
<feFlood flood-opacity="0" result="BackgroundImageFix"/>
<feGaussianBlur in="BackgroundImageFix" stdDeviation="10"/>
<feComposite in2="SourceAlpha" operator="in" result="effect1_backgroundBlur_562_8297"/>
<feColorMatrix in="SourceAlpha" type="matrix" values="0 0 0 0 0 0 0 0 0 0 0 0 0 0 0 0 0 0 127 0" result="hardAlpha"/>
<feOffset dy="4"/>
<feGaussianBlur stdDeviation="2"/>
<feComposite in2="hardAlpha" operator="out"/>
<feColorMatrix type="matrix" values="0 0 0 0 0 0 0 0 0 0 0 0 0 0 0 0 0 0 0.25 0"/>
<feBlend mode="normal" in2="effect1_backgroundBlur_562_8297" result="effect2_dropShadow_562_8297"/>
<feBlend mode="normal" in="SourceGraphic" in2="effect2_dropShadow_562_8297" result="shape"/>
</filter>
</defs>
</svg>
