<svg width="20" height="20" viewBox="0 0 20 20" fill="none" xmlns="http://www.w3.org/2000/svg">
<path fill-rule="evenodd" clip-rule="evenodd" d="M6.125 19.2125C7.34167 19.7375 8.63333 20 10 20C11.3833 20 12.6833 19.7375 13.9 19.2125C15.1167 18.6875 16.175 17.9708 17.075 17.0625C17.975 16.1542 18.6875 15.0917 19.2125 13.875C19.7375 12.6583 20 11.3667 20 10C20 8.61667 19.7375 7.31667 19.2125 6.1C18.6875 4.88333 17.975 3.825 17.075 2.925C16.175 2.025 15.1167 1.3125 13.9 0.7875C12.6833 0.2625 11.3833 0 10 0C8.63333 0 7.34167 0.2625 6.125 0.7875C4.90833 1.3125 3.84583 2.025 2.9375 2.925C2.02917 3.825 1.3125 4.88333 0.7875 6.1C0.2625 7.31667 0 8.61667 0 10C0 11.3667 0.2625 12.6583 0.7875 13.875C1.3125 15.0917 2.02917 16.1542 2.9375 17.0625C3.84583 17.9708 4.90833 18.6875 6.125 19.2125ZM16.025 16.0125C14.375 17.6708 12.3667 18.5 10 18.5C7.65 18.5 5.64583 17.6708 3.9875 16.0125C2.32917 14.3542 1.5 12.35 1.5 10C1.5 7.63333 2.32917 5.625 3.9875 3.975C5.64583 2.325 7.65 1.5 10 1.5C12.3667 1.5 14.375 2.325 16.025 3.975C17.675 5.625 18.5 7.63333 18.5 10C18.5 12.35 17.675 14.3542 16.025 16.0125ZM5.22195 5.2098L9.66982 9.41404C9.68775 9.43099 9.69879 9.45397 9.70079 9.47857L9.93023 12.2876C9.94017 12.4094 10.1181 12.4104 10.1295 12.2888L10.3919 9.4773C10.3941 9.45347 10.4048 9.43123 10.4221 9.41462L14.7794 5.2127C14.8491 5.14555 14.964 5.20656 14.9474 5.30186L14.0302 10.5613C14.0257 10.5867 14.0116 10.6094 13.9908 10.6247L12.4915 11.725C12.4611 11.7474 12.4458 11.785 12.452 11.8222L12.7143 13.3868C12.7185 13.4123 12.7127 13.4385 12.6981 13.4599L11.0629 15.8407C11.017 15.9076 10.9147 15.8948 10.8866 15.8187L10.122 13.745C10.0893 13.6563 9.9631 13.6583 9.93331 13.7481L9.24848 15.8119C9.22263 15.8898 9.11912 15.9051 9.07183 15.838L7.39578 13.4602C7.3806 13.4387 7.37453 13.412 7.37889 13.3861L7.64083 11.8231C7.64715 11.7854 7.6314 11.7474 7.60025 11.7252L6.05629 10.6245C6.0351 10.6094 6.02064 10.5866 6.01597 10.561L5.05489 5.30044C5.03752 5.20537 5.15172 5.14341 5.22195 5.2098Z" fill="white"/>
</svg>
