<svg width="22" height="24" viewBox="0 0 22 24" fill="none" xmlns="http://www.w3.org/2000/svg">
<path id="Vector" d="M2.18944 21.8106H7.0737V14.4561C7.0737 14.0823 7.20013 13.769 7.45299 13.5161C7.70585 13.2633 8.01919 13.1369 8.39301 13.1369H13.5017C13.8755 13.1369 14.1889 13.2633 14.4417 13.5161C14.6946 13.769 14.821 14.0823 14.821 14.4561V21.8106H19.7053V8.89823C19.7053 8.82338 19.6889 8.75554 19.6562 8.69472C19.6234 8.6339 19.579 8.5801 19.5228 8.53332L11.214 2.28768C11.1392 2.22219 11.0503 2.18944 10.9474 2.18944C10.8444 2.18944 10.7555 2.22219 10.6807 2.28768L2.3719 8.53332C2.31578 8.5801 2.27133 8.6339 2.23856 8.69472C2.20582 8.75554 2.18944 8.82338 2.18944 8.89823V21.8106ZM0 21.8106V8.89823C0 8.48046 0.0934543 8.08467 0.280363 7.71088C0.467272 7.33709 0.72563 7.02926 1.05544 6.78739L9.36423 0.527737C9.82531 0.175912 10.3523 0 10.9451 0C11.5379 0 12.0664 0.175912 12.5305 0.527737L20.8393 6.78739C21.1691 7.02926 21.4275 7.33709 21.6144 7.71088C21.8013 8.08467 21.8947 8.48046 21.8947 8.89823V21.8106C21.8947 22.4075 21.6791 22.9216 21.2477 23.353C20.8164 23.7843 20.3022 24 19.7053 24H13.9509C13.5771 24 13.2638 23.8736 13.0109 23.6207C12.758 23.3678 12.6316 23.0545 12.6316 22.6807V15.3263H9.26315V22.6807C9.26315 23.0545 9.13672 23.3678 8.88386 23.6207C8.63097 23.8736 8.31763 24 7.94384 24H2.18944C1.59249 24 1.07836 23.7843 0.647028 23.353C0.215676 22.9216 0 22.4075 0 21.8106Z" fill="white"/>
</svg>
