<svg width="75" height="75" viewBox="0 0 75 75" fill="none" xmlns="http://www.w3.org/2000/svg">
<rect width="75" height="75" rx="10" fill="#343535"/>
<circle cx="37.5" cy="37.5" r="17.5" fill="#666666"/>
<path d="M37.4831 41.9375C38.49 41.9375 39.3338 41.5972 40.0143 40.9167C40.6949 40.2361 41.0352 39.3924 41.0352 38.3854C41.0352 37.3785 40.6949 36.5382 40.0143 35.8646C39.3338 35.191 38.49 34.8542 37.4831 34.8542C36.4761 34.8542 35.6359 35.191 34.9622 35.8646C34.2886 36.5382 33.9518 37.3785 33.9518 38.3854C33.9518 39.3924 34.2886 40.2361 34.9622 40.9167C35.6359 41.5972 36.4761 41.9375 37.4831 41.9375ZM37.4831 40.6875C36.8234 40.6875 36.2782 40.4688 35.8477 40.0312C35.4171 39.5938 35.2018 39.0451 35.2018 38.3854C35.2018 37.7257 35.4171 37.1806 35.8477 36.75C36.2782 36.3194 36.8234 36.1042 37.4831 36.1042C38.1428 36.1042 38.6914 36.3194 39.1289 36.75C39.5664 37.1806 39.7852 37.7257 39.7852 38.3854C39.7852 39.0451 39.5664 39.5938 39.1289 40.0312C38.6914 40.4688 38.1428 40.6875 37.4831 40.6875ZM30.4102 45C30.0768 45 29.7852 44.875 29.5352 44.625C29.2852 44.375 29.1602 44.0833 29.1602 43.75V33.0625C29.1602 32.7431 29.2852 32.4549 29.5352 32.1979C29.7852 31.941 30.0768 31.8125 30.4102 31.8125H33.4727L34.6185 30.4375C34.7296 30.2847 34.8685 30.1736 35.0352 30.1042C35.2018 30.0347 35.3824 30 35.5768 30H39.4102C39.6046 30 39.7852 30.0347 39.9518 30.1042C40.1185 30.1736 40.2574 30.2847 40.3685 30.4375L41.5143 31.8125H44.5768C44.8963 31.8125 45.1845 31.941 45.4414 32.1979C45.6983 32.4549 45.8268 32.7431 45.8268 33.0625V43.75C45.8268 44.0833 45.6983 44.375 45.4414 44.625C45.1845 44.875 44.8963 45 44.5768 45H30.4102ZM30.4102 43.75H44.5768V33.0625H40.931L39.4102 31.25H35.5768L34.056 33.0625H30.4102V43.75Z" fill="white"/>
</svg>
