<svg width="20" height="21" viewBox="0 0 20 21" fill="none" xmlns="http://www.w3.org/2000/svg">
<path d="M10.0794 15.5C10.2931 15.5 10.4708 15.4281 10.6125 15.2844C10.7542 15.1406 10.825 14.9625 10.825 14.75V10.25C10.825 10.0375 10.7527 9.85938 10.6081 9.71562C10.4635 9.57188 10.2844 9.5 10.0706 9.5C9.85688 9.5 9.67917 9.57188 9.5375 9.71562C9.39583 9.85938 9.325 10.0375 9.325 10.25V14.75C9.325 14.9625 9.39729 15.1406 9.54187 15.2844C9.68647 15.4281 9.86564 15.5 10.0794 15.5ZM9.99955 7.65C10.2332 7.65 10.4292 7.57333 10.5875 7.42C10.7458 7.26667 10.825 7.07667 10.825 6.85C10.825 6.60917 10.746 6.40729 10.588 6.24438C10.4299 6.08146 10.2341 6 10.0005 6C9.76682 6 9.57083 6.08146 9.4125 6.24438C9.25417 6.40729 9.175 6.60917 9.175 6.85C9.175 7.07667 9.25402 7.26667 9.41205 7.42C9.5701 7.57333 9.76593 7.65 9.99955 7.65ZM10.0066 20.5C8.62775 20.5 7.33192 20.2375 6.11915 19.7125C4.90638 19.1875 3.84583 18.4708 2.9375 17.5625C2.02917 16.6542 1.3125 15.593 0.7875 14.379C0.2625 13.165 0 11.8678 0 10.4875C0 9.10718 0.2625 7.81003 0.7875 6.59602C1.3125 5.38201 2.02917 4.325 2.9375 3.425C3.84583 2.525 4.90701 1.8125 6.12103 1.2875C7.33503 0.7625 8.63218 0.5 10.0125 0.5C11.3928 0.5 12.69 0.7625 13.904 1.2875C15.118 1.8125 16.175 2.525 17.075 3.425C17.975 4.325 18.6875 5.38333 19.2125 6.6C19.7375 7.81667 20 9.11445 20 10.4934C20 11.8723 19.7375 13.1681 19.2125 14.3809C18.6875 15.5936 17.975 16.6526 17.075 17.5579C16.175 18.4632 15.1167 19.1798 13.9 19.7079C12.6833 20.236 11.3855 20.5 10.0066 20.5ZM10.0125 19C12.3708 19 14.375 18.1708 16.025 16.5125C17.675 14.8542 18.5 12.8458 18.5 10.4875C18.5 8.12917 17.6766 6.125 16.0297 4.475C14.3828 2.825 12.3729 2 10 2C7.65 2 5.64583 2.82343 3.9875 4.4703C2.32917 6.11718 1.5 8.12708 1.5 10.5C1.5 12.85 2.32917 14.8542 3.9875 16.5125C5.64583 18.1708 7.65417 19 10.0125 19Z" fill="#666666"/>
</svg>
