<svg width="20" height="20" viewBox="0 0 20 20" fill="none" xmlns="http://www.w3.org/2000/svg">
<path d="M10.0427 15C10.2311 15 10.3878 14.9366 10.5128 14.8099C10.6379 14.6831 10.7004 14.5261 10.7004 14.3387V9.6086C10.7004 9.42125 10.6367 9.26421 10.5093 9.13747C10.3818 9.01073 10.2239 8.94737 10.0356 8.94737C9.84723 8.94737 9.69052 9.01073 9.56547 9.13747C9.44042 9.26421 9.37789 9.42125 9.37789 9.6086V14.3387C9.37789 14.5261 9.4416 14.6831 9.56902 14.8099C9.69645 14.9366 9.85433 15 10.0427 15ZM9.9991 7.22404C10.2145 7.22404 10.3953 7.15239 10.5417 7.00907C10.688 6.86575 10.7611 6.68817 10.7611 6.47631C10.7611 6.25452 10.6882 6.06998 10.5424 5.9227C10.3966 5.77544 10.2159 5.7018 10.0003 5.7018C9.78081 5.7018 9.59902 5.77578 9.45497 5.92373C9.3109 6.07167 9.23887 6.255 9.23887 6.4737C9.23887 6.6863 9.31173 6.8645 9.45744 7.00831C9.60315 7.15213 9.7837 7.22404 9.9991 7.22404ZM10.0064 20C8.62194 20 7.32323 19.7375 6.11028 19.2126C4.89731 18.6877 3.83826 17.9724 2.93314 17.0667C2.028 16.161 1.31285 15.102 0.787713 13.8897C0.262571 12.6774 0 11.3796 0 9.99637C0 8.61315 0.262457 7.31398 0.787371 6.09883C1.31228 4.88371 2.02758 3.82603 2.93327 2.9258C3.83896 2.02555 4.89797 1.31286 6.1103 0.787714C7.32264 0.262572 8.62042 0 10.0036 0C11.3868 0 12.686 0.262458 13.9012 0.787372C15.1163 1.31229 16.174 2.02465 17.0742 2.92448C17.9744 3.82433 18.6871 4.88248 19.2123 6.09894C19.7374 7.31538 20 8.61359 20 9.99358C20 11.3781 19.7375 12.6768 19.2126 13.8897C18.6877 15.1027 17.9753 16.1607 17.0755 17.0636C16.1757 17.9666 15.1175 18.6817 13.9011 19.209C12.6846 19.7363 11.3864 20 10.0064 20ZM10.0054 18.6775C12.4193 18.6775 14.4681 17.8338 16.1518 16.1464C17.8356 14.4591 18.6775 12.4085 18.6775 9.99461C18.6775 7.58074 17.8369 5.53193 16.1556 3.84817C14.4743 2.16439 12.4225 1.3225 10 1.3225C7.58973 1.3225 5.54092 2.16314 3.85356 3.84441C2.16619 5.52567 1.3225 7.57754 1.3225 10C1.3225 12.4103 2.16619 14.4591 3.85356 16.1464C5.54092 17.8338 7.59153 18.6775 10.0054 18.6775Z" fill="white"/>
</svg>
