<svg width="24" height="20" viewBox="0 0 24 20" fill="none" xmlns="http://www.w3.org/2000/svg">
<path d="M19.7654 12.6912C19.4901 12.6912 19.2612 12.5986 19.0787 12.4135C18.8962 12.2283 18.805 11.9989 18.805 11.7251V9.47097H16.5508C16.2771 9.47097 16.0476 9.37786 15.8624 9.19162C15.6773 9.00536 15.5847 8.77458 15.5847 8.49927C15.5847 8.22393 15.6773 7.99503 15.8624 7.81255C16.0476 7.63007 16.2771 7.53883 16.5508 7.53883H18.805V5.28465C18.805 5.01093 18.8981 4.78149 19.0843 4.59632C19.2706 4.41116 19.5014 4.31858 19.7767 4.31858C20.052 4.31858 20.2809 4.41116 20.4634 4.59632C20.6459 4.78149 20.7371 5.01093 20.7371 5.28465V7.53883H22.9913C23.265 7.53883 23.4944 7.63194 23.6796 7.81818C23.8648 8.00444 23.9573 8.23523 23.9573 8.51054C23.9573 8.78587 23.8648 9.01477 23.6796 9.19725C23.4944 9.37973 23.265 9.47097 22.9913 9.47097H20.7371V11.7251C20.7371 11.9989 20.644 12.2283 20.4577 12.4135C20.2715 12.5986 20.0407 12.6912 19.7654 12.6912ZM10.1867 9.66074C8.76984 9.66074 7.61055 9.20991 6.70888 8.30824C5.80721 7.40657 5.35638 6.24728 5.35638 4.83037C5.35638 3.41346 5.80721 2.25417 6.70888 1.3525C7.61055 0.450835 8.76984 0 10.1867 0C11.6037 0 12.7629 0.450835 13.6646 1.3525C14.5663 2.25417 15.0171 3.41346 15.0171 4.83037C15.0171 6.24728 14.5663 7.40657 13.6646 8.30824C12.7629 9.20991 11.6037 9.66074 10.1867 9.66074ZM1.00904 19.9977C0.735322 19.9977 0.505879 19.9052 0.320715 19.72C0.135551 19.5348 0.0429688 19.3054 0.0429688 19.0317V16.9707C0.0429688 16.2193 0.241551 15.5377 0.638715 14.9258C1.03588 14.314 1.56722 13.8578 2.23274 13.5572C3.77846 12.8703 5.1578 12.3765 6.37076 12.0759C7.58372 11.7754 8.85571 11.6251 10.1867 11.6251C11.5178 11.6251 12.7844 11.7754 13.9866 12.0759C15.1889 12.3765 16.5628 12.8703 18.1086 13.5572C18.7741 13.8578 19.3108 14.314 19.7187 14.9258C20.1266 15.5377 20.3305 16.2193 20.3305 16.9707V19.0317C20.3305 19.3054 20.2379 19.5348 20.0528 19.72C19.8676 19.9052 19.6382 19.9977 19.3645 19.9977H1.00904ZM10.1867 7.72859C11.024 7.72859 11.7164 7.45487 12.2638 6.90743C12.8113 6.35999 13.085 5.66764 13.085 4.83037C13.085 3.99311 12.8113 3.30075 12.2638 2.75331C11.7164 2.20587 11.024 1.93215 10.1867 1.93215C9.34949 1.93215 8.65713 2.20587 8.10969 2.75331C7.56225 3.30075 7.28853 3.99311 7.28853 4.83037C7.28853 5.66764 7.56225 6.35999 8.10969 6.90743C8.65713 7.45487 9.34949 7.72859 10.1867 7.72859ZM1.97512 18.0656H18.3984V16.9707C18.3984 16.6272 18.3125 16.3052 18.1408 16.0046C17.969 15.7041 17.7007 15.4679 17.3357 15.2962C15.8544 14.6092 14.5985 14.1476 13.568 13.9115C12.5375 13.6753 11.4104 13.5572 10.1867 13.5572C8.96306 13.5572 7.84134 13.6753 6.82159 13.9115C5.80185 14.1476 4.52985 14.6092 3.0056 15.2962C2.68357 15.4465 2.43132 15.6772 2.24884 15.9885C2.06636 16.2998 1.97512 16.6272 1.97512 16.9707V18.0656Z" fill="white"/>
</svg>
