<svg width="70" height="70" viewBox="0 0 70 70" fill="none" xmlns="http://www.w3.org/2000/svg">
<path id="Vector" d="M35 59.5C41.825 59.5 47.6146 57.1229 52.3687 52.3687C57.1229 47.6146 59.5 41.825 59.5 35C59.5 28.7583 57.4437 23.3187 53.3312 18.6812C49.2188 14.0437 44.0708 11.4042 37.8875 10.7625C37.0708 10.6458 36.3854 10.85 35.8312 11.375C35.2771 11.9 35 12.5708 35 13.3875V35L20.2125 50.4875C19.6875 51.0708 19.4396 51.7417 19.4688 52.5C19.4979 53.2583 19.8042 53.8708 20.3875 54.3375C22.4292 56.0292 24.7042 57.3125 27.2125 58.1875C29.7208 59.0625 32.3167 59.5 35 59.5ZM35 70C30.2167 70 25.6958 69.0813 21.4375 67.2438C17.1792 65.4062 13.4604 62.8979 10.2812 59.7188C7.10208 56.5396 4.59375 52.8208 2.75625 48.5625C0.91875 44.3042 0 39.7833 0 35C0 30.1583 0.91875 25.6083 2.75625 21.35C4.59375 17.0917 7.10208 13.3875 10.2812 10.2375C13.4604 7.0875 17.1792 4.59375 21.4375 2.75625C25.6958 0.91875 30.2167 0 35 0C39.8417 0 44.3917 0.91875 48.65 2.75625C52.9083 4.59375 56.6125 7.0875 59.7625 10.2375C62.9125 13.3875 65.4062 17.0917 67.2438 21.35C69.0813 25.6083 70 30.1583 70 35C70 39.7833 69.0813 44.3042 67.2438 48.5625C65.4062 52.8208 62.9125 56.5396 59.7625 59.7188C56.6125 62.8979 52.9083 65.4062 48.65 67.2438C44.3917 69.0813 39.8417 70 35 70ZM35 64.75C43.2833 64.75 50.3125 61.8479 56.0875 56.0438C61.8625 50.2396 64.75 43.225 64.75 35C64.75 26.7167 61.8625 19.6875 56.0875 13.9125C50.3125 8.1375 43.2833 5.25 35 5.25C26.775 5.25 19.7604 8.1375 13.9563 13.9125C8.15208 19.6875 5.25 26.7167 5.25 35C5.25 43.225 8.15208 50.2396 13.9563 56.0438C19.7604 61.8479 26.775 64.75 35 64.75Z" fill="#2DA1D7"/>
</svg>
