<svg width="57" height="70" viewBox="0 0 57 70" fill="none" xmlns="http://www.w3.org/2000/svg">
<path d="M6.86002 70C4.96745 70 3.35098 69.366 2.01063 68.0981C0.670209 66.8301 0 65.3011 0 63.5108V29.8225C0 28.0322 0.670209 26.5031 2.01063 25.2352C3.35098 23.9673 4.96745 23.3333 6.86002 23.3333H11.3847V16.1537C11.3847 11.6712 13.0461 7.85829 16.3691 4.71497C19.6921 1.57166 23.7229 0 28.4616 0C33.2003 0 37.2311 1.57166 40.5541 4.71497C43.877 7.85829 45.5385 11.6712 45.5385 16.1537V23.3333H50.0631C51.9557 23.3333 53.5722 23.9673 54.9126 25.2352C56.253 26.5031 56.9232 28.0322 56.9232 29.8225V63.5108C56.9232 65.3011 56.253 66.8301 54.9126 68.0981C53.5722 69.366 51.9557 70 50.0631 70H6.86002ZM6.86002 64.6154H50.0631C50.4037 64.6154 50.6835 64.5119 50.9025 64.3048C51.1215 64.0976 51.2309 63.833 51.2309 63.5108V29.8225C51.2309 29.5003 51.1215 29.2356 50.9025 29.0285C50.6835 28.8214 50.4037 28.7178 50.0631 28.7178H6.86002C6.51943 28.7178 6.23966 28.8214 6.02069 29.0285C5.80172 29.2356 5.69224 29.5003 5.69224 29.8225V63.5108C5.69224 63.833 5.80172 64.0976 6.02069 64.3048C6.23966 64.5119 6.51943 64.6154 6.86002 64.6154ZM28.4616 52.9486C30.3055 52.9486 31.8733 52.3377 33.165 51.1158C34.4567 49.894 35.1026 48.4109 35.1026 46.6666C35.1026 44.9224 34.4567 43.4393 33.165 42.2175C31.8733 40.9956 30.3055 40.3846 28.4616 40.3846C26.6177 40.3846 25.0499 40.9956 23.7582 42.2175C22.4665 43.4393 21.8206 44.9224 21.8206 46.6666C21.8206 48.4109 22.4665 49.894 23.7582 51.1158C25.0499 52.3377 26.6177 52.9486 28.4616 52.9486ZM17.0769 23.3333H39.8463V16.1537C39.8463 13.1623 38.7394 10.6195 36.5257 8.5255C34.312 6.43148 31.624 5.38446 28.4616 5.38446C25.2992 5.38446 22.6111 6.43148 20.3974 8.5255C18.1838 10.6195 17.0769 13.1623 17.0769 16.1537V23.3333Z" fill="#2DA1D7"/>
</svg>
