<svg width="28" height="28" viewBox="0 0 28 28" fill="none" xmlns="http://www.w3.org/2000/svg">
<circle cx="14" cy="14" r="14" fill="#2DA1D7"/>
<path d="M10.3905 22C10.0081 22 9.68079 21.8638 9.40848 21.5915C9.13616 21.3192 9 20.9919 9 20.6095V13.3905C9 13.0081 9.13616 12.6808 9.40848 12.4085C9.68079 12.1361 10.0081 12 10.3905 12H11.3077V10.4615C11.3077 9.50097 11.6445 8.68392 12.3181 8.01035C12.9916 7.33678 13.8087 7 14.7692 7C15.7298 7 16.5468 7.33678 17.2204 8.01035C17.894 8.68392 18.2308 9.50097 18.2308 10.4615V12H19.1479C19.5303 12 19.8577 12.1361 20.13 12.4085C20.4023 12.6808 20.5385 13.0081 20.5385 13.3905V20.6095C20.5385 20.9919 20.4023 21.3192 20.13 21.5915C19.8577 21.8638 19.5303 22 19.1479 22H10.3905ZM14.7692 18.3461C15.143 18.3461 15.4608 18.2152 15.7226 17.9534C15.9845 17.6916 16.1154 17.3738 16.1154 17C16.1154 16.6262 15.9845 16.3084 15.7226 16.0466C15.4608 15.7848 15.143 15.6539 14.7692 15.6539C14.3955 15.6539 14.0777 15.7848 13.8159 16.0466C13.554 16.3084 13.4231 16.6262 13.4231 17C13.4231 17.3738 13.554 17.6916 13.8159 17.9534C14.0777 18.2152 14.3955 18.3461 14.7692 18.3461ZM12.4615 12H17.0769V10.4615C17.0769 9.82049 16.8526 9.27561 16.4039 8.82689C15.9551 8.37817 15.4103 8.15381 14.7692 8.15381C14.1282 8.15381 13.5833 8.37817 13.1346 8.82689C12.6859 9.27561 12.4615 9.82049 12.4615 10.4615V12Z" fill="white"/>
</svg>
