<svg width="19" height="19" viewBox="0 0 19 19" fill="none" xmlns="http://www.w3.org/2000/svg">
<path d="M5.20011 16.1796L9.43102 13.6319L13.6619 16.2096L12.5457 11.3864L16.2697 8.15708L11.3618 7.72246L9.43102 3.17923L7.50019 7.69245L2.59233 8.12708L6.31629 11.3741L5.20011 16.1796ZM9.43102 15.3988L4.47012 18.3927C4.32602 18.4727 4.18024 18.508 4.0328 18.4985C3.88538 18.489 3.75166 18.4417 3.63166 18.3566C3.51165 18.2714 3.42063 18.1598 3.35859 18.0216C3.29653 17.8834 3.28755 17.7299 3.33165 17.5612L4.64014 11.9233L0.270802 8.12015C0.138498 8.00784 0.0552951 7.87849 0.021194 7.73209C-0.012907 7.58566 -0.00585677 7.44169 0.0423447 7.30016C0.0854261 7.16374 0.162349 7.05027 0.273112 6.95977C0.383875 6.86925 0.52567 6.81451 0.698495 6.79555L6.47482 6.28784L8.72024 0.957694C8.78896 0.806409 8.88858 0.692304 9.0191 0.615382C9.14961 0.53846 9.28691 0.5 9.43102 0.5C9.57512 0.5 9.71243 0.53846 9.84293 0.615382C9.97346 0.692304 10.0731 0.806409 10.1418 0.957694L12.3872 6.28784L18.1635 6.79555C18.3364 6.81451 18.4782 6.86925 18.5889 6.95977C18.6997 7.05027 18.7792 7.16374 18.8274 7.30016C18.8705 7.44169 18.8749 7.58566 18.8408 7.73209C18.8067 7.87849 18.7235 8.00784 18.5912 8.12015L14.2219 11.9233L15.5381 17.5612C15.5771 17.7299 15.5655 17.8834 15.5035 18.0216C15.4414 18.1598 15.3504 18.2714 15.2304 18.3566C15.1104 18.4417 14.9767 18.489 14.8292 18.4985C14.6818 18.508 14.536 18.4727 14.3919 18.3927L9.43102 15.3988Z" fill="white"/>
</svg>
