<svg width="20" height="20" viewBox="0 0 20 20" fill="none" xmlns="http://www.w3.org/2000/svg">
<path id="Vector" d="M18.7778 20C16.5741 20 14.3519 19.4861 12.1111 18.4583C9.87037 17.4306 7.80556 15.9722 5.91667 14.0833C4.02778 12.1944 2.56944 10.1296 1.54167 7.88889C0.513889 5.64815 0 3.42593 0 1.22222C0 0.873019 0.116398 0.582009 0.349194 0.349194C0.582009 0.116398 0.873019 0 1.22222 0H5.31481C5.57407 0 5.79937 0.0910465 5.99072 0.273139C6.18209 0.45525 6.30864 0.679019 6.37036 0.944444L7.10978 4.56742C7.1477 4.84345 7.14197 5.08641 7.09258 5.29628C7.04319 5.50617 6.94302 5.68658 6.79206 5.83753L4.04628 8.61111C4.49072 9.38272 4.97683 10.1096 5.50461 10.7917C6.03239 11.4738 6.61419 12.1235 7.25 12.7408C7.89815 13.4012 8.58025 14.0077 9.29631 14.5602C10.0124 15.1127 10.7654 15.6049 11.5556 16.0371L14.1852 13.3519C14.3642 13.1605 14.5796 13.0262 14.8315 12.9491C15.0834 12.8719 15.3309 12.8519 15.5741 12.8889L19.0556 13.6296C19.3272 13.7037 19.5525 13.8475 19.7315 14.061C19.9105 14.2745 20 14.5134 20 14.7778V18.7778C20 19.127 19.8836 19.418 19.6508 19.6508C19.418 19.8836 19.127 20 18.7778 20ZM3.13889 6.88889L5.25 4.75925L4.66667 1.85183H1.86111C1.91667 2.62344 2.0432 3.41974 2.24072 4.24072C2.43826 5.06172 2.73765 5.94444 3.13889 6.88889ZM13.287 16.9259C14.034 17.2654 14.8287 17.5401 15.6713 17.75C16.5139 17.9599 17.3395 18.0864 18.1482 18.1296V15.3333L15.3704 14.7685L13.287 16.9259Z" fill="white"/>
</svg>
