<svg width="24" height="22" viewBox="0 0 24 22" fill="none" xmlns="http://www.w3.org/2000/svg">
<path id="Vector" d="M1 22C0.716667 22 0.479167 21.8916 0.2875 21.6747C0.0958333 21.4578 0 21.189 0 20.8684C0 20.5478 0.0958333 20.2812 0.2875 20.0688C0.479167 19.8563 0.716667 19.75 1 19.75H23C23.2833 19.75 23.5208 19.8584 23.7125 20.0753C23.9042 20.2922 24 20.561 24 20.8816C24 21.2022 23.9042 21.4688 23.7125 21.6813C23.5208 21.8938 23.2833 22 23 22H1ZM1 12.125C0.716667 12.125 0.479167 12.0166 0.2875 11.7997C0.0958333 11.5828 0 11.314 0 10.9934C0 10.6728 0.0958333 10.4062 0.2875 10.1938C0.479167 9.98125 0.716667 9.875 1 9.875H23C23.2833 9.875 23.5208 9.98344 23.7125 10.2003C23.9042 10.4172 24 10.686 24 11.0066C24 11.3272 23.9042 11.5938 23.7125 11.8063C23.5208 12.0188 23.2833 12.125 23 12.125H1ZM1 2.25C0.716667 2.25 0.479167 2.14156 0.2875 1.92469C0.0958333 1.70779 0 1.43904 0 1.11844C0 0.797813 0.0958333 0.53125 0.2875 0.31875C0.479167 0.10625 0.716667 0 1 0H23C23.2833 0 23.5208 0.108437 23.7125 0.325312C23.9042 0.542212 24 0.810962 24 1.13156C24 1.45219 23.9042 1.71875 23.7125 1.93125C23.5208 2.14375 23.2833 2.25 23 2.25H1Z" fill="white"/>
</svg>
