<svg width="19" height="19" viewBox="0 0 19 19" fill="none" xmlns="http://www.w3.org/2000/svg">
<path id="Vector" d="M14.2602 15.7609C13.9993 15.945 13.7269 16.1138 13.4431 16.2673C13.1592 16.4207 12.8638 16.5588 12.5569 16.6816C12.3727 16.7583 12.1847 16.7583 11.9929 16.6816C11.8011 16.6049 11.6668 16.4744 11.5901 16.2903C11.5134 16.1215 11.5172 15.9527 11.6016 15.7839C11.686 15.6151 11.8203 15.4923 12.0044 15.4156C12.2653 15.3235 12.5223 15.2123 12.7755 15.0818C13.0287 14.9514 13.2628 14.7864 13.4776 14.587L9.47247 10.9501V14.7481C9.47247 15.055 9.33053 15.266 9.04664 15.3811C8.76275 15.4962 8.51339 15.4463 8.29856 15.2315L4.86889 11.8018H1.87656C1.67708 11.8018 1.51211 11.7366 1.38168 11.6061C1.25125 11.4757 1.18603 11.3107 1.18603 11.1113V6.96803C1.18603 6.76854 1.25125 6.60358 1.38168 6.47315C1.51211 6.34271 1.67708 6.27749 1.87656 6.27749H4.77682L0.196258 1.69693C0.0581505 1.55882 -0.0070669 1.39386 0.000605734 1.20205C0.00827837 1.01023 0.0811684 0.845269 0.219276 0.707161C0.357383 0.569054 0.522345 0.5 0.714161 0.5C0.905977 0.5 1.07094 0.569054 1.20905 0.707161L17.805 17.3031C17.9431 17.4412 18.0121 17.6061 18.0121 17.798C18.0121 17.9898 17.9431 18.1547 17.805 18.2928C17.6668 18.4309 17.498 18.5 17.2986 18.5C17.0991 18.5 16.9303 18.4309 16.7922 18.2928L14.2602 15.7609ZM16.4699 13.4591L15.4801 12.4693C15.7871 11.9476 16.0134 11.3951 16.1592 10.812C16.305 10.2289 16.3778 9.63043 16.3778 9.01662C16.3778 7.58951 15.975 6.29668 15.1694 5.13811C14.3638 3.97954 13.3088 3.13939 12.0044 2.61765C11.8203 2.54092 11.6899 2.41816 11.6131 2.24936C11.5364 2.08056 11.5364 1.91176 11.6131 1.74297C11.6899 1.55882 11.8241 1.43223 12.016 1.36317C12.2078 1.29412 12.4034 1.29795 12.6029 1.37468C14.1528 2.00384 15.3996 3.00512 16.3433 4.37852C17.2871 5.75192 17.7589 7.29795 17.7589 9.01662C17.7589 9.79923 17.6515 10.5665 17.4367 11.3184C17.2218 12.0703 16.8996 12.7839 16.4699 13.4591ZM13.3855 10.3747L11.3139 8.30307V5.93222C11.3139 5.79412 11.3714 5.69054 11.4865 5.62148C11.6016 5.55243 11.7206 5.55627 11.8433 5.63299C12.4264 5.98593 12.8676 6.47315 13.1668 7.09463C13.4661 7.71611 13.6157 8.36445 13.6157 9.03964C13.6157 9.26982 13.5965 9.49616 13.5582 9.71867C13.5198 9.94118 13.4622 10.1598 13.3855 10.3747ZM9.47247 6.46164L7.07861 4.06777L8.29856 2.84783C8.51339 2.63299 8.76275 2.58312 9.04664 2.69821C9.33053 2.8133 9.47247 3.0243 9.47247 3.3312V6.46164ZM8.0914 13.0448V9.59207L6.15789 7.65857H2.5671V10.4207H5.46736L8.0914 13.0448Z" fill="white"/>
</svg>
