<svg width="50" height="50" viewBox="0 0 50 50" fill="none" xmlns="http://www.w3.org/2000/svg">
<g id="Group 245">
<g id="Group 236">
<rect id="Rectangle Copy 15" width="50" height="50" rx="10" fill="#333333"/>
</g>
<path id="Vector" d="M32.6253 27.9398L31.3047 26.6192C31.6527 26.1892 31.924 25.7183 32.1185 25.2064C32.3131 24.6945 32.441 24.1622 32.5025 23.6093C32.5483 23.379 32.659 23.1832 32.8346 23.022C33.0102 22.8607 33.2049 22.7801 33.4186 22.7801C33.7088 22.7801 33.9459 22.8774 34.1302 23.0719C34.3145 23.2664 34.3862 23.4967 34.3452 23.7629C34.2428 24.5205 34.0483 25.2576 33.7617 25.9742C33.475 26.6908 33.0962 27.346 32.6253 27.9398ZM28.6941 24.0086L27.0663 22.4115V15.102C27.0663 14.7452 26.9457 14.4461 26.7043 14.2048C26.463 13.9634 26.1639 13.8428 25.8071 13.8428C25.4503 13.8428 25.1513 13.9634 24.91 14.2048C24.6686 14.4461 24.5479 14.7452 24.5479 15.102V19.8624L22.7052 18.0197V15.102C22.7052 14.2403 23.0066 13.5079 23.6094 12.9047C24.2122 12.3016 24.9442 12 25.8053 12C26.6665 12 27.3991 12.3016 28.0031 12.9047C28.6071 13.5079 28.9091 14.2403 28.9091 15.102V22.7801C28.9091 22.9439 28.8937 23.1486 28.863 23.3943C28.8323 23.64 28.776 23.8448 28.6941 24.0086ZM36.4644 36.7543L13.2457 13.5356C13.0819 13.3805 13 13.183 13 12.9432C13 12.7034 13.0819 12.5016 13.2457 12.3378C13.4095 12.174 13.604 12.0921 13.8292 12.0921C14.0545 12.0921 14.249 12.174 14.4128 12.3378L37.6622 35.5872C37.826 35.751 37.9079 35.9455 37.9079 36.1708C37.9079 36.396 37.826 36.5905 37.6622 36.7543C37.4984 36.9181 37.2966 37 37.0568 37C36.817 37 36.6195 36.9181 36.4644 36.7543ZM24.8857 34.4201V31.1646C22.8792 30.9394 21.1644 30.1357 19.7414 28.7537C18.3184 27.3716 17.4943 25.708 17.269 23.7629C17.2281 23.4967 17.3049 23.2664 17.4994 23.0719C17.6939 22.8774 17.9345 22.7801 18.2211 22.7801C18.4361 22.7801 18.6281 22.862 18.797 23.0258C18.9659 23.1896 19.0708 23.3841 19.1118 23.6093C19.337 25.2678 20.0824 26.6448 21.348 27.7402C22.6136 28.8356 24.0978 29.3833 25.8006 29.3833C26.583 29.3833 27.3336 29.257 28.0525 29.0044C28.7714 28.7518 29.4255 28.3969 30.0147 27.9398L31.3354 29.2604C30.7007 29.7928 29.9941 30.2183 29.2158 30.5371C28.4374 30.8558 27.6084 31.065 26.7285 31.1646V34.4201C26.7285 34.6812 26.6397 34.9 26.4621 35.0766C26.2844 35.2532 26.0643 35.3415 25.8018 35.3415C25.5392 35.3415 25.3208 35.2532 25.1468 35.0766C24.9728 34.9 24.8857 34.6812 24.8857 34.4201Z" fill="white"/>
</g>
</svg>
