<svg width="21" height="20" viewBox="0 0 21 20" fill="none" xmlns="http://www.w3.org/2000/svg">
<path d="M15.8447 16.9565C15.5548 17.1611 15.2522 17.3487 14.9367 17.5192C14.6213 17.6897 14.2931 17.8431 13.9521 17.9795C13.7475 18.0648 13.5386 18.0648 13.3255 17.9795C13.1124 17.8943 12.9632 17.7494 12.8779 17.5448C12.7927 17.3572 12.7969 17.1697 12.8907 16.9821C12.9845 16.7945 13.1337 16.6581 13.3383 16.5729C13.6281 16.4706 13.9137 16.347 14.195 16.202C14.4764 16.0571 14.7364 15.8738 14.9751 15.6522L10.525 11.6113V15.8312C10.525 16.1722 10.3673 16.4067 10.0518 16.5345C9.73639 16.6624 9.45933 16.607 9.22062 16.3683L5.40988 12.5575H2.08507C1.86342 12.5575 1.68013 12.4851 1.5352 12.3402C1.39027 12.1952 1.31781 12.0119 1.31781 11.7903V7.1867C1.31781 6.96505 1.39027 6.78176 1.5352 6.63683C1.68013 6.4919 1.86342 6.41944 2.08507 6.41944H5.30758L0.218064 1.32992C0.0646116 1.17647 -0.00785211 0.99318 0.000673038 0.780051C0.00919819 0.566922 0.0901871 0.383632 0.24364 0.230179C0.397092 0.0767263 0.580383 0 0.793512 0C1.00664 0 1.18993 0.0767263 1.34338 0.230179L19.7833 18.6701C19.9367 18.8235 20.0135 19.0068 20.0135 19.2199C20.0135 19.4331 19.9367 19.6164 19.7833 19.7698C19.6298 19.9233 19.4423 20 19.2206 20C18.999 20 18.8114 19.9233 18.658 19.7698L15.8447 16.9565ZM18.2999 14.399L17.2002 13.2992C17.5412 12.7195 17.7927 12.1057 17.9546 11.4578C18.1166 10.8099 18.1976 10.1449 18.1976 9.46292C18.1976 7.87724 17.75 6.44075 16.8549 5.15345C15.9598 3.86616 14.7875 2.93265 13.3383 2.35294C13.1337 2.26769 12.9887 2.13129 12.9035 1.94373C12.8182 1.75618 12.8182 1.56863 12.9035 1.38107C12.9887 1.17647 13.1379 1.03581 13.3511 0.959079C13.5642 0.882353 13.7816 0.886616 14.0032 0.971867C15.7253 1.67093 17.1106 2.78346 18.1592 4.30946C19.2078 5.83546 19.7321 7.55328 19.7321 9.46292C19.7321 10.3325 19.6128 11.185 19.3741 12.0205C19.1354 12.8559 18.7773 13.6488 18.2999 14.399ZM14.8728 10.9719L12.571 8.67008V6.03581C12.571 5.88235 12.6349 5.76726 12.7628 5.69054C12.8907 5.61381 13.0228 5.61807 13.1592 5.70332C13.8072 6.09548 14.2973 6.63683 14.6298 7.32737C14.9623 8.0179 15.1286 8.73828 15.1286 9.48849C15.1286 9.74425 15.1072 9.99574 15.0646 10.243C15.022 10.4902 14.958 10.7332 14.8728 10.9719ZM10.525 6.62404L7.86512 3.96419L9.22062 2.6087C9.45933 2.36999 9.73639 2.31458 10.0518 2.44246C10.3673 2.57033 10.525 2.80477 10.525 3.14578V6.62404ZM8.99044 13.9386V10.1023L6.8421 7.95396H2.85234V11.023H6.07484L8.99044 13.9386Z" fill="white"/>
</svg>
