<svg width="22" height="21" viewBox="0 0 22 21" fill="none" xmlns="http://www.w3.org/2000/svg">
<path d="M10.806 10.1618C9.38889 10.1618 8.22947 9.71095 7.3277 8.80918C6.42593 7.90741 5.97504 6.74799 5.97504 5.33092C5.97504 3.91385 6.42593 2.75443 7.3277 1.85266C8.22947 0.950886 9.38889 0.5 10.806 0.5C12.223 0.5 13.3824 0.950886 14.2842 1.85266C15.186 2.75443 15.6369 3.91385 15.6369 5.33092C15.6369 6.74799 15.186 7.90741 14.2842 8.80918C13.3824 9.71095 12.223 10.1618 10.806 10.1618ZM0.5 20.5V17.4726C0.5 16.6567 0.703972 15.9589 1.11192 15.3792C1.51986 14.7995 2.04589 14.3594 2.69002 14.0588C4.12856 13.4147 5.50805 12.9316 6.8285 12.6095C8.14895 12.2874 9.47477 12.1264 10.806 12.1264C12.1371 12.1264 13.4576 12.2928 14.7673 12.6256C16.077 12.9584 17.4503 13.4382 18.8871 14.065C19.5592 14.3683 20.098 14.8081 20.5036 15.3844C20.9091 15.9607 21.1119 16.6567 21.1119 17.4726V20.5H0.5ZM2.43237 18.5676H19.1795V17.4726C19.1795 17.1291 19.0776 16.8017 18.8736 16.4903C18.6696 16.179 18.4173 15.9482 18.1167 15.7979C16.7426 15.1323 15.4866 14.6761 14.3486 14.4291C13.2107 14.1822 12.0298 14.0588 10.806 14.0588C9.58213 14.0588 8.3905 14.1822 7.23108 14.4291C6.07166 14.6761 4.81562 15.1323 3.46296 15.7979C3.16237 15.9482 2.91546 16.179 2.72222 16.4903C2.52899 16.8017 2.43237 17.1291 2.43237 17.4726V18.5676ZM10.806 8.22947C11.6433 8.22947 12.3357 7.95572 12.8833 7.40821C13.4308 6.86071 13.7045 6.16828 13.7045 5.33092C13.7045 4.49356 13.4308 3.80113 12.8833 3.25362C12.3357 2.70612 11.6433 2.43237 10.806 2.43237C9.9686 2.43237 9.27617 2.70612 8.72866 3.25362C8.18116 3.80113 7.90741 4.49356 7.90741 5.33092C7.90741 6.16828 8.18116 6.86071 8.72866 7.40821C9.27617 7.95572 9.9686 8.22947 10.806 8.22947Z" fill="white"/>
</svg>
