<svg width="16" height="20" viewBox="0 0 16 20" fill="none" xmlns="http://www.w3.org/2000/svg">
<path d="M0.75 17C0.5375 17 0.359375 16.9277 0.215625 16.7831C0.071875 16.6385 0 16.4594 0 16.2456C0 16.0319 0.071875 15.8542 0.215625 15.7125C0.359375 15.5708 0.5375 15.5 0.75 15.5H2V7.9C2 6.5 2.4125 5.24583 3.2375 4.1375C4.0625 3.02917 5.15 2.33333 6.5 2.05V1.5C6.5 1.08333 6.64583 0.729167 6.9375 0.4375C7.22917 0.145833 7.58333 0 8 0C8.41667 0 8.77083 0.145833 9.0625 0.4375C9.35417 0.729167 9.5 1.08333 9.5 1.5V2.05C10.85 2.33333 11.9375 3.02917 12.7625 4.1375C13.5875 5.24583 14 6.5 14 7.9V15.5H15.25C15.4625 15.5 15.6406 15.5723 15.7844 15.7169C15.9281 15.8615 16 16.0406 16 16.2544C16 16.4681 15.9281 16.6458 15.7844 16.7875C15.6406 16.9292 15.4625 17 15.25 17H0.75ZM8 20C7.45 20 6.97917 19.8042 6.5875 19.4125C6.19583 19.0208 6 18.55 6 18H10C10 18.55 9.80417 19.0208 9.4125 19.4125C9.02083 19.8042 8.55 20 8 20ZM3.5 15.5H12.5V7.9C12.5 6.65 12.0625 5.5875 11.1875 4.7125C10.3125 3.8375 9.25 3.4 8 3.4C6.75 3.4 5.6875 3.8375 4.8125 4.7125C3.9375 5.5875 3.5 6.65 3.5 7.9V15.5Z" fill="white"/>
</svg>
