<svg width="16" height="20" viewBox="0 0 16 20" fill="none" xmlns="http://www.w3.org/2000/svg">
<path d="M1.58729 20C1.15078 20 0.777103 19.8446 0.466262 19.5337C0.15542 19.2229 0 18.8492 0 18.4127V8.34919C0 7.9127 0.15542 7.53902 0.466262 7.22817C0.777103 6.91733 1.15078 6.7619 1.58729 6.7619H10.6349V4.60317C10.6349 3.76542 10.3417 3.05334 9.75529 2.46693C9.16887 1.8805 8.45679 1.58729 7.61905 1.58729C6.89313 1.58729 6.25794 1.81348 5.71348 2.26586C5.16903 2.71824 4.8201 3.28306 4.66667 3.96031C4.62433 4.15079 4.52248 4.30555 4.36112 4.4246C4.19974 4.54364 4.01736 4.60317 3.814 4.60317C3.58351 4.60317 3.39551 4.52116 3.25 4.35714C3.10451 4.19313 3.05028 4.00265 3.08731 3.78571C3.27779 2.71164 3.7963 1.81217 4.64286 1.08731C5.48941 0.362436 6.48148 0 7.61905 0C8.89259 0 9.97817 0.448809 10.8758 1.34643C11.7734 2.24405 12.2222 3.32963 12.2222 4.60317V6.7619H13.6508C14.0873 6.7619 14.461 6.91733 14.7718 7.22817C15.0827 7.53902 15.2381 7.9127 15.2381 8.34919V18.4127C15.2381 18.8492 15.0827 19.2229 14.7718 19.5337C14.461 19.8446 14.0873 20 13.6508 20H1.58729ZM1.58729 18.4127H13.6508V8.34919H1.58729V18.4127ZM7.62172 15.2381C8.13316 15.2381 8.5701 15.0594 8.93255 14.7019C9.29498 14.3444 9.47619 13.9147 9.47619 13.4127C9.47619 12.9206 9.29409 12.4828 8.92988 12.0992C8.56566 11.7156 8.12783 11.5238 7.61638 11.5238C7.10494 11.5238 6.66799 11.7156 6.30555 12.0992C5.94312 12.4828 5.76191 12.9233 5.76191 13.4206C5.76191 13.918 5.94401 14.3452 6.30822 14.7024C6.67244 15.0595 7.11027 15.2381 7.62172 15.2381Z" fill="#666666"/>
</svg>
