<svg width="20" height="16" viewBox="0 0 20 16" fill="none" xmlns="http://www.w3.org/2000/svg">
<path id="Vector" d="M20 2.00807V13.9918C20 14.5236 19.8158 14.9736 19.4474 15.3421C19.0789 15.7105 18.6289 15.8947 18.0972 15.8947H1.90285C1.37113 15.8947 0.921055 15.7105 0.552633 15.3421C0.184211 14.9736 0 14.5236 0 13.9918V2.00807C0 1.47635 0.184211 1.02628 0.552633 0.657858C0.921055 0.289436 1.37113 0.105225 1.90285 0.105225H18.0972C18.6289 0.105225 19.0789 0.289436 19.4474 0.657858C19.8158 1.02628 20 1.47635 20 2.00807ZM1.57893 4.21455H18.4211V2.00807C18.4211 1.92709 18.3873 1.85285 18.3199 1.78536C18.2524 1.71789 18.1781 1.68415 18.0972 1.68415H1.90285C1.82186 1.68415 1.74763 1.71789 1.68014 1.78536C1.61266 1.85285 1.57893 1.92709 1.57893 2.00807V4.21455ZM1.57893 7.57482V13.9918C1.57893 14.0728 1.61266 14.1471 1.68014 14.2145C1.74763 14.282 1.82186 14.3158 1.90285 14.3158H18.0972C18.1781 14.3158 18.2524 14.282 18.3199 14.2145C18.3873 14.1471 18.4211 14.0728 18.4211 13.9918V7.57482H1.57893Z" fill="white"/>
</svg>
