<svg width="20" height="17" viewBox="0 0 20 17" fill="none" xmlns="http://www.w3.org/2000/svg">
<path d="M20 2.50832V14.4921C20 15.0238 19.8158 15.4739 19.4474 15.8423C19.0789 16.2107 18.6289 16.3949 18.0972 16.3949H1.90285C1.37113 16.3949 0.921055 16.2107 0.552633 15.8423C0.184211 15.4739 0 15.0238 0 14.4921V2.50832C0 1.9766 0.184211 1.52652 0.552633 1.1581C0.921055 0.78968 1.37113 0.605469 1.90285 0.605469H18.0972C18.6289 0.605469 19.0789 0.78968 19.4474 1.1581C19.8158 1.52652 20 1.9766 20 2.50832ZM1.57893 4.7148H18.4211V2.50832C18.4211 2.42733 18.3873 2.3531 18.3199 2.28561C18.2524 2.21813 18.1781 2.18439 18.0972 2.18439H1.90285C1.82186 2.18439 1.74763 2.21813 1.68014 2.28561C1.61266 2.3531 1.57893 2.42733 1.57893 2.50832V4.7148ZM1.57893 8.07507V14.4921C1.57893 14.5731 1.61266 14.6473 1.68014 14.7148C1.74763 14.7823 1.82186 14.816 1.90285 14.816H18.0972C18.1781 14.816 18.2524 14.7823 18.3199 14.7148C18.3873 14.6473 18.4211 14.5731 18.4211 14.4921V8.07507H1.57893Z" fill="white"/>
</svg>
