<svg width="20" height="17" viewBox="0 0 20 17" fill="none" xmlns="http://www.w3.org/2000/svg">
<path id="Vector" d="M20 2.50807V14.4918C20 15.0236 19.8158 15.4736 19.4474 15.8421C19.0789 16.2105 18.6289 16.3947 18.0972 16.3947H1.90285C1.37113 16.3947 0.921055 16.2105 0.552633 15.8421C0.184211 15.4736 0 15.0236 0 14.4918V2.50807C0 1.97635 0.184211 1.52628 0.552633 1.15786C0.921055 0.789436 1.37113 0.605225 1.90285 0.605225H18.0972C18.6289 0.605225 19.0789 0.789436 19.4474 1.15786C19.8158 1.52628 20 1.97635 20 2.50807ZM1.57893 4.71455H18.4211V2.50807C18.4211 2.42709 18.3873 2.35285 18.3199 2.28536C18.2524 2.21789 18.1781 2.18415 18.0972 2.18415H1.90285C1.82186 2.18415 1.74763 2.21789 1.68014 2.28536C1.61266 2.35285 1.57893 2.42709 1.57893 2.50807V4.71455ZM1.57893 8.07482V14.4918C1.57893 14.5728 1.61266 14.6471 1.68014 14.7145C1.74763 14.782 1.82186 14.8158 1.90285 14.8158H18.0972C18.1781 14.8158 18.2524 14.782 18.3199 14.7145C18.3873 14.6471 18.4211 14.5728 18.4211 14.4918V8.07482H1.57893Z" fill="white"/>
</svg>
