<svg width="20" height="16" viewBox="0 0 20 16" fill="none" xmlns="http://www.w3.org/2000/svg">
<path d="M20 2.00832V13.9921C20 14.5238 19.8158 14.9739 19.4474 15.3423C19.0789 15.7107 18.6289 15.8949 18.0972 15.8949H1.90285C1.37113 15.8949 0.921055 15.7107 0.552633 15.3423C0.184211 14.9739 0 14.5238 0 13.9921V2.00832C0 1.4766 0.184211 1.02652 0.552633 0.658102C0.921055 0.28968 1.37113 0.105469 1.90285 0.105469H18.0972C18.6289 0.105469 19.0789 0.28968 19.4474 0.658102C19.8158 1.02652 20 1.4766 20 2.00832ZM1.57893 4.2148H18.4211V2.00832C18.4211 1.92733 18.3873 1.8531 18.3199 1.78561C18.2524 1.71813 18.1781 1.68439 18.0972 1.68439H1.90285C1.82186 1.68439 1.74763 1.71813 1.68014 1.78561C1.61266 1.8531 1.57893 1.92733 1.57893 2.00832V4.2148ZM1.57893 7.57507V13.9921C1.57893 14.0731 1.61266 14.1473 1.68014 14.2148C1.74763 14.2823 1.82186 14.316 1.90285 14.316H18.0972C18.1781 14.316 18.2524 14.2823 18.3199 14.2148C18.3873 14.1473 18.4211 14.0731 18.4211 13.9921V7.57507H1.57893Z" fill="white"/>
</svg>
