<svg width="15" height="15" viewBox="0 0 15 15" fill="none" xmlns="http://www.w3.org/2000/svg">
<path d="M7.5 7.24638C6.46875 7.24638 5.625 6.90821 4.96875 6.23188C4.3125 5.55556 3.98438 4.68599 3.98438 3.62319C3.98438 2.56039 4.3125 1.69082 4.96875 1.01449C5.625 0.338164 6.46875 0 7.5 0C8.53125 0 9.375 0.338164 10.0312 1.01449C10.6875 1.69082 11.0156 2.56039 11.0156 3.62319C11.0156 4.68599 10.6875 5.55556 10.0312 6.23188C9.375 6.90821 8.53125 7.24638 7.5 7.24638ZM0 13.5507V12.7295C0 12.1176 0.148438 11.5942 0.445312 11.1594C0.742188 10.7246 1.125 10.3945 1.59375 10.1691C2.64062 9.68599 3.64453 9.32367 4.60547 9.08213C5.56641 8.84058 6.53125 8.71981 7.5 8.71981C8.46875 8.71981 9.42969 8.84461 10.3828 9.0942C11.3359 9.3438 12.3359 9.70209 13.3828 10.1691C13.8672 10.3945 14.2578 10.7246 14.5547 11.1594C14.8516 11.5942 15 12.1176 15 12.7295V13.5507C15 13.9533 14.8633 14.2955 14.5898 14.5773C14.3164 14.8591 13.9844 15 13.5938 15H1.40625C1.01562 15 0.683594 14.8591 0.410156 14.5773C0.136719 14.2955 0 13.9533 0 13.5507Z" fill="white"/>
</svg>
