<svg width="20" height="19" viewBox="0 0 20 19" fill="none" xmlns="http://www.w3.org/2000/svg">
<path d="M19.2056 10.3557H15.6612C15.4361 10.3557 15.2474 10.2794 15.0951 10.1269C14.9429 9.97448 14.8667 9.78555 14.8667 9.56015C14.8667 9.33474 14.9429 9.14617 15.0951 8.99443C15.2474 8.84267 15.4361 8.76679 15.6612 8.76679H19.2056C19.4307 8.76679 19.6193 8.84303 19.7716 8.9955C19.9239 9.14795 20 9.33689 20 9.56229C20 9.7877 19.9239 9.97627 19.7716 10.128C19.6193 10.2798 19.4307 10.3557 19.2056 10.3557ZM12.9784 15.1827C13.121 14.9953 13.2972 14.8853 13.507 14.8527C13.7168 14.8201 13.9154 14.8751 14.1028 15.0177L16.92 17.1383C17.1074 17.2808 17.2174 17.457 17.25 17.6668C17.2826 17.8767 17.2276 18.0753 17.085 18.2627C16.9424 18.4501 16.7662 18.5601 16.5564 18.5927C16.3466 18.6253 16.148 18.5703 15.9606 18.4277L13.1434 16.3072C12.956 16.1646 12.846 15.9884 12.8134 15.7786C12.7808 15.5687 12.8358 15.3701 12.9784 15.1827ZM16.7978 1.86195L13.9806 3.98249C13.7932 4.12509 13.5946 4.18009 13.3848 4.14749C13.175 4.1149 12.9988 4.00489 12.8562 3.81749C12.7136 3.63008 12.6586 3.43147 12.6912 3.22166C12.7238 3.01185 12.8338 2.83565 13.0212 2.69305L15.8384 0.572539C16.0258 0.429938 16.2244 0.374937 16.4342 0.407536C16.644 0.440134 16.8202 0.550136 16.9628 0.737543C17.1054 0.92495 17.1604 1.12356 17.1278 1.33337C17.0952 1.54318 16.9852 1.71937 16.7978 1.86195ZM5.43882 12.739H1.28333C0.919717 12.739 0.614932 12.616 0.368975 12.37C0.122992 12.124 0 11.8193 0 11.4557V7.66677C0 7.30319 0.122992 6.9984 0.368975 6.75242C0.614932 6.50646 0.919717 6.38348 1.28333 6.38348H5.43882L9.70434 2.11796C9.96303 1.85927 10.264 1.79987 10.6073 1.93977C10.9505 2.0797 11.1221 2.32956 11.1221 2.68936V16.4331C11.1221 16.7929 10.9505 17.0427 10.6073 17.1827C10.264 17.3226 9.96303 17.2632 9.70434 17.0045L5.43882 12.739ZM9.53322 4.55628L6.11715 7.97235H1.58887V11.1501H6.11715L9.53322 14.5662V4.55628Z" fill="white"/>
</svg>
