<svg width="17" height="20" viewBox="0 0 17 20" fill="none" xmlns="http://www.w3.org/2000/svg">
<path id="Vector" d="M8.07062 10.7692C7.09542 10.7692 6.27575 10.4372 5.6116 9.77301C4.94746 9.10887 4.61538 8.2892 4.61538 7.314C4.61538 6.3388 4.94746 5.51913 5.6116 4.85498C6.27575 4.19084 7.09542 3.85876 8.07062 3.85876C9.04582 3.85876 9.86549 4.19084 10.5296 4.85498C11.1938 5.51913 11.5259 6.3388 11.5259 7.314C11.5259 8.2892 11.1938 9.10887 10.5296 9.77301C9.86549 10.4372 9.04582 10.7692 8.07062 10.7692ZM8.07062 9.25599C8.64229 9.25599 9.10887 9.07524 9.47037 8.71375C9.83186 8.35225 10.0126 7.88567 10.0126 7.314C10.0126 6.74233 9.83186 6.27575 9.47037 5.91425C9.10887 5.55275 8.64229 5.372 8.07062 5.372C7.49895 5.372 7.03237 5.55275 6.67087 5.91425C6.30937 6.27575 6.12863 6.74233 6.12863 7.314C6.12863 7.88567 6.30937 8.35225 6.67087 8.71375C7.03237 9.07524 7.49895 9.25599 8.07062 9.25599ZM8.07062 1.51324L1.51324 3.98487V8.92812C1.51324 9.98739 1.66036 11.0004 1.9546 11.9672C2.24884 12.934 2.66499 13.8293 3.20303 14.6532C3.97646 14.2329 4.76251 13.9176 5.56116 13.7074C6.35982 13.4973 7.1963 13.3922 8.07062 13.3922C8.94493 13.3922 9.78142 13.4973 10.5801 13.7074C11.3787 13.9176 12.1648 14.2329 12.9382 14.6532C13.4763 13.8293 13.8924 12.934 14.1866 11.9672C14.4809 11.0004 14.628 9.98739 14.628 8.92812V3.98487L8.07062 1.51324ZM8.07062 14.9054C7.41488 14.9054 6.75914 14.9895 6.1034 15.1576C5.44767 15.3258 4.80034 15.578 4.16141 15.9142C4.69945 16.5027 5.29634 17.0198 5.95208 17.4653C6.60782 17.9109 7.314 18.2598 8.07062 18.512C8.82724 18.2598 9.53342 17.9109 10.1892 17.4653C10.8449 17.0198 11.4418 16.5027 11.9798 15.9142C11.3409 15.578 10.6936 15.3258 10.0378 15.1576C9.38209 14.9895 8.72636 14.9054 8.07062 14.9054ZM8.07062 20C7.98655 20 7.90668 19.9916 7.83102 19.9748C7.75536 19.958 7.67549 19.9327 7.59142 19.8991C5.25431 19.1089 3.40479 17.6923 2.04288 15.6494C0.680958 13.6066 0 11.3661 0 8.92812V3.98487C0 3.66541 0.0924758 3.37537 0.277427 3.11475C0.462379 2.85414 0.697772 2.66499 0.983607 2.54729L7.54098 0.100883C7.72594 0.0336276 7.90248 0 8.07062 0C8.23876 0 8.4153 0.0336276 8.60025 0.100883L15.1576 2.54729C15.4435 2.66499 15.6789 2.85414 15.8638 3.11475C16.0488 3.37537 16.1412 3.66541 16.1412 3.98487V8.92812C16.1412 11.3661 15.4603 13.6066 14.0984 15.6494C12.7364 17.6923 10.8869 19.1089 8.54981 19.8991C8.46574 19.9327 8.38588 19.958 8.31021 19.9748C8.23455 19.9916 8.15469 20 8.07062 20Z" fill="white"/>
</svg>
