<svg width="33" height="33" viewBox="0 0 33 33" fill="none" xmlns="http://www.w3.org/2000/svg">
<path id="Vector" d="M18.3333 33V29.3333H22V33H18.3333ZM14.6667 29.3333V20.1667H18.3333V29.3333H14.6667ZM29.3333 23.8333V16.5H33V23.8333H29.3333ZM25.6667 16.5V12.8333H29.3333V16.5H25.6667ZM3.66667 20.1667V16.5H7.33333V20.1667H3.66667ZM0 16.5V12.8333H3.66667V16.5H0ZM16.5 3.66667V0H20.1667V3.66667H16.5ZM2.29167 8.70833H8.70833V2.29167H2.29167V8.70833ZM1.375 11C0.985417 11 0.658854 10.8682 0.395313 10.6047C0.131771 10.3411 0 10.0146 0 9.625V1.375C0 0.985417 0.131771 0.658854 0.395313 0.395313C0.658854 0.131771 0.985417 0 1.375 0H9.625C10.0146 0 10.3411 0.131771 10.6047 0.395313C10.8682 0.658854 11 0.985417 11 1.375V9.625C11 10.0146 10.8682 10.3411 10.6047 10.6047C10.3411 10.8682 10.0146 11 9.625 11H1.375ZM2.29167 30.7083H8.70833V24.2917H2.29167V30.7083ZM1.375 33C0.985417 33 0.658854 32.8682 0.395313 32.6047C0.131771 32.3411 0 32.0146 0 31.625V23.375C0 22.9854 0.131771 22.6589 0.395313 22.3953C0.658854 22.1318 0.985417 22 1.375 22H9.625C10.0146 22 10.3411 22.1318 10.6047 22.3953C10.8682 22.6589 11 22.9854 11 23.375V31.625C11 32.0146 10.8682 32.3411 10.6047 32.6047C10.3411 32.8682 10.0146 33 9.625 33H1.375ZM24.2917 8.70833H30.7083V2.29167H24.2917V8.70833ZM23.375 11C22.9854 11 22.6589 10.8682 22.3953 10.6047C22.1318 10.3411 22 10.0146 22 9.625V1.375C22 0.985417 22.1318 0.658854 22.3953 0.395313C22.6589 0.131771 22.9854 0 23.375 0H31.625C32.0146 0 32.3411 0.131771 32.6047 0.395313C32.8682 0.658854 33 0.985417 33 1.375V9.625C33 10.0146 32.8682 10.3411 32.6047 10.6047C32.3411 10.8682 32.0146 11 31.625 11H23.375ZM25.6667 33V27.5H22V23.8333H29.3333V29.3333H33V33H25.6667ZM18.3333 20.1667V16.5H25.6667V20.1667H18.3333ZM11 20.1667V16.5H7.33333V12.8333H18.3333V16.5H14.6667V20.1667H11ZM12.8333 11V3.66667H16.5V7.33333H20.1667V11H12.8333ZM4.125 6.875V4.125H6.875V6.875H4.125ZM4.125 28.875V26.125H6.875V28.875H4.125ZM26.125 6.875V4.125H28.875V6.875H26.125Z" fill="white"/>
</svg>
