<svg width="20" height="17" viewBox="0 0 20 17" fill="none" xmlns="http://www.w3.org/2000/svg">
<path d="M2.5278 7.93582L6.89204 12.3001C7.04059 12.4435 7.11242 12.617 7.10755 12.8206C7.10269 13.0242 7.02471 13.2016 6.87361 13.3527C6.71737 13.5048 6.53733 13.5819 6.33348 13.5839C6.12961 13.586 5.95213 13.5089 5.80102 13.3527L0.280447 7.83978C0.0934822 7.65284 0 7.43387 0 7.18288C0 6.93189 0.0934822 6.71291 0.280447 6.52594L5.81331 0.993082C5.95776 0.848629 6.13358 0.774485 6.34076 0.770649C6.54796 0.766814 6.72967 0.840958 6.88589 0.993082C7.04211 1.1493 7.12022 1.32909 7.12022 1.53243C7.12022 1.7358 7.04211 1.91559 6.88589 2.07181L2.5278 6.4299H14.3388C15.9288 6.4299 17.2698 6.97466 18.3619 8.06416C19.454 9.15369 20 10.496 20 12.091V15.4764C20 15.6936 19.9288 15.8734 19.7864 16.0158C19.644 16.1581 19.4642 16.2293 19.247 16.2293C19.0299 16.2293 18.8501 16.1581 18.7077 16.0158C18.5653 15.8734 18.4941 15.6936 18.4941 15.4764V12.091C18.4941 10.918 18.0948 9.93225 17.2962 9.13369C16.4976 8.33511 15.5118 7.93582 14.3388 7.93582H2.5278Z" fill="white"/>
</svg>
