<svg width="20" height="16" viewBox="0 0 20 16" fill="none" xmlns="http://www.w3.org/2000/svg">
<path d="M1.5 16C1.1 16 0.75 15.85 0.45 15.55C0.15 15.25 0 14.9 0 14.5V1.5C0 1.1 0.15 0.75 0.45 0.45C0.75 0.15 1.1 0 1.5 0H7C7.2125 0 7.39062 0.0722914 7.53438 0.216875C7.67812 0.361475 7.75 0.540641 7.75 0.754375C7.75 0.968125 7.67812 1.14583 7.53438 1.2875C7.39062 1.42917 7.2125 1.5 7 1.5H1.5V14.5H18.5V1.5H13C12.7875 1.5 12.6094 1.42771 12.4656 1.28313C12.3219 1.13853 12.25 0.959359 12.25 0.745625C12.25 0.531875 12.3219 0.354167 12.4656 0.2125C12.6094 0.0708333 12.7875 0 13 0H18.5C18.9 0 19.25 0.15 19.55 0.45C19.85 0.75 20 1.1 20 1.5V14.5C20 14.9 19.85 15.25 19.55 15.55C19.25 15.85 18.9 16 18.5 16H1.5ZM9.99668 11.075C9.89889 11.075 9.80833 11.0583 9.725 11.025C9.64167 10.9917 9.55833 10.9333 9.475 10.85L5.525 6.9C5.39167 6.76667 5.325 6.59333 5.325 6.38C5.325 6.16667 5.40326 5.98 5.55977 5.82C5.70326 5.67333 5.87917 5.6 6.0875 5.6C6.29583 5.6 6.475 5.675 6.625 5.825L9.25 8.475V0.75C9.25 0.5375 9.32229 0.359375 9.46688 0.215625C9.61147 0.071875 9.79064 0 10.0044 0C10.2181 0 10.3958 0.071875 10.5375 0.215625C10.6792 0.359375 10.75 0.5375 10.75 0.75V8.475L13.4 5.825C13.5407 5.69167 13.7134 5.625 13.918 5.625C14.1227 5.625 14.3 5.7 14.45 5.85C14.6 6 14.675 6.17917 14.675 6.3875C14.675 6.59583 14.6 6.775 14.45 6.925L10.525 10.85C10.4417 10.9333 10.3572 10.9917 10.2717 11.025C10.1861 11.0583 10.0944 11.075 9.99668 11.075Z" fill="white"/>
</svg>
