<svg width="24" height="25" viewBox="0 0 24 25" fill="none" xmlns="http://www.w3.org/2000/svg">
<path id="Vector" d="M8.75813 17.7867C6.31034 17.7867 4.2387 16.9381 2.54322 15.2408C0.84774 13.5435 0 11.4954 0 9.09649C0 6.69762 0.848656 4.64953 2.54597 2.95222C4.24328 1.25491 6.29703 0.40625 8.70721 0.40625C11.1174 0.40625 13.1655 1.25491 14.8515 2.95222C16.5375 4.64953 17.3805 6.69932 17.3805 9.10158C17.3805 10.0713 17.2221 11.0088 16.9052 11.914C16.5884 12.8193 16.1132 13.6679 15.4795 14.46L23.6945 22.6071C23.8982 22.8007 24 23.0472 24 23.3464C24 23.6456 23.8982 23.8971 23.6945 24.1007C23.4908 24.3044 23.2394 24.4063 22.9401 24.4063C22.6409 24.4063 22.3945 24.3044 22.2008 24.1007L14.0198 15.9197C13.3409 16.5081 12.5493 16.9664 11.645 17.2945C10.7407 17.6227 9.77838 17.7867 8.75813 17.7867ZM8.72419 15.75C10.5629 15.75 12.1259 15.0993 13.413 13.798C14.7001 12.4968 15.3437 10.9296 15.3437 9.09649C15.3437 7.26339 14.7001 5.69621 13.413 4.39493C12.1259 3.09366 10.5629 2.44303 8.72419 2.44303C6.86658 2.44303 5.2876 3.09366 3.98726 4.39493C2.68694 5.69621 2.03678 7.26339 2.03678 9.09649C2.03678 10.9296 2.68694 12.4968 3.98726 13.798C5.2876 15.0993 6.86658 15.75 8.72419 15.75Z" fill="url(#paint0_linear_996_2966)"/>
<defs>
<linearGradient id="paint0_linear_996_2966" x1="6.81213" y1="-0.68466" x2="22.3842" y2="26.3375" gradientUnits="userSpaceOnUse">
<stop stop-color="#2DA1D7"/>
<stop offset="1" stop-color="#B791B6"/>
</linearGradient>
</defs>
</svg>
