<svg width="20" height="20" viewBox="0 0 20 20" fill="none" xmlns="http://www.w3.org/2000/svg">
<path d="M18.4746 19.7175L11.6667 12.9096C11.1017 13.3992 10.4429 13.7806 9.69042 14.0537C8.9379 14.3267 8.13714 14.4633 7.28814 14.4633C5.25119 14.4633 3.52726 13.7571 2.11636 12.3446C0.705452 10.9322 0 9.22787 0 7.23164C0 5.23541 0.706215 3.53107 2.11864 2.11864C3.53107 0.706215 5.24011 0 7.24576 0C9.25141 0 10.9557 0.706215 12.3588 2.11864C13.7618 3.53107 14.4633 5.23682 14.4633 7.23588C14.4633 8.04284 14.3315 8.82298 14.0678 9.57627C13.8041 10.3296 13.4087 11.0358 12.8814 11.6949L19.7458 18.5028C19.9153 18.6618 20 18.8569 20 19.0882C20 19.3194 19.9067 19.5284 19.72 19.7151C19.5488 19.8862 19.3388 19.9718 19.0898 19.9718C18.8408 19.9718 18.6357 19.887 18.4746 19.7175ZM7.25989 12.7684C8.79002 12.7684 10.0906 12.2269 11.1617 11.1441C12.2328 10.0612 12.7684 8.75706 12.7684 7.23164C12.7684 5.70621 12.2328 4.40207 11.1617 3.31921C10.0906 2.23635 8.79002 1.69492 7.25989 1.69492C5.71407 1.69492 4.40011 2.23635 3.31802 3.31921C2.23595 4.40207 1.69492 5.70621 1.69492 7.23164C1.69492 8.75706 2.23595 10.0612 3.31802 11.1441C4.40011 12.2269 5.71407 12.7684 7.25989 12.7684Z" fill="#666666"/>
</svg>
