<svg width="28" height="28" viewBox="0 0 28 28" fill="none" xmlns="http://www.w3.org/2000/svg">
<circle cx="14" cy="14" r="14" fill="#2DA1D7"/>
<path d="M14.2578 21.8438C14.9375 21.8438 15.3906 21.375 15.3906 20.6719V12L15.3203 10.3047L16.8906 12.1172L18.6484 13.8672C18.8594 14.0781 19.125 14.2188 19.4609 14.2188C20.0703 14.2188 20.5312 13.7656 20.5312 13.125C20.5312 12.8281 20.4141 12.5547 20.1797 12.3125L15.0938 7.22656C14.8828 7.00781 14.5703 6.88281 14.2578 6.88281C13.9531 6.88281 13.6328 7.00781 13.4219 7.22656L8.34375 12.3125C8.10938 12.5547 7.99219 12.8281 7.99219 13.125C7.99219 13.7656 8.45312 14.2188 9.0625 14.2188C9.40625 14.2188 9.67188 14.0781 9.875 13.8672L11.6328 12.1172L13.2031 10.3047L13.125 12V20.6719C13.125 21.375 13.5859 21.8438 14.2578 21.8438Z" fill="white"/>
</svg>
