<svg width="18" height="19" viewBox="0 0 18 19" fill="none" xmlns="http://www.w3.org/2000/svg">
<path id="Vector" d="M10.2825 18.5H7.3125C7.1475 18.5 7.00125 18.4475 6.87375 18.3425C6.74625 18.2375 6.6675 18.1025 6.6375 17.9375L6.2775 15.665C5.9925 15.56 5.6925 15.4175 5.3775 15.2375C5.0625 15.0575 4.785 14.87 4.545 14.675L2.4525 15.6425C2.2875 15.7175 2.1225 15.7288 1.9575 15.6763C1.7925 15.6238 1.665 15.515 1.575 15.35L0.09 12.7175C0 12.5675 -0.0225 12.41 0.0225 12.245C0.0675 12.08 0.1575 11.945 0.2925 11.84L2.2275 10.4225C2.1975 10.2875 2.17875 10.1337 2.17125 9.96125C2.16375 9.78875 2.16 9.635 2.16 9.5C2.16 9.365 2.16375 9.21125 2.17125 9.03875C2.17875 8.86625 2.1975 8.7125 2.2275 8.5775L0.2925 7.16C0.1575 7.055 0.0675 6.92 0.0225 6.755C-0.0225 6.59 0 6.4325 0.09 6.2825L1.575 3.65C1.665 3.485 1.7925 3.37625 1.9575 3.32375C2.1225 3.27125 2.2875 3.2825 2.4525 3.3575L4.545 4.325C4.785 4.13 5.0625 3.9425 5.3775 3.7625C5.6925 3.5825 5.9925 3.4475 6.2775 3.3575L6.6375 1.0625C6.6675 0.8975 6.74625 0.7625 6.87375 0.6575C7.00125 0.5525 7.1475 0.5 7.3125 0.5H10.2825C10.4475 0.5 10.5938 0.5525 10.7213 0.6575C10.8488 0.7625 10.9275 0.8975 10.9575 1.0625L11.3175 3.335C11.6025 3.44 11.9063 3.57875 12.2288 3.75125C12.5513 3.92375 12.825 4.115 13.05 4.325L15.1425 3.3575C15.3075 3.2825 15.4725 3.27125 15.6375 3.32375C15.8025 3.37625 15.93 3.485 16.02 3.65L17.505 6.26C17.595 6.41 17.6213 6.57125 17.5838 6.74375C17.5463 6.91625 17.4525 7.055 17.3025 7.16L15.3675 8.5325C15.3975 8.6825 15.4163 8.84375 15.4238 9.01625C15.4313 9.18875 15.435 9.35 15.435 9.5C15.435 9.65 15.4313 9.8075 15.4238 9.9725C15.4163 10.1375 15.3975 10.295 15.3675 10.445L17.3025 11.84C17.4375 11.945 17.5275 12.08 17.5725 12.245C17.6175 12.41 17.595 12.5675 17.505 12.7175L16.02 15.35C15.93 15.515 15.8025 15.6238 15.6375 15.6763C15.4725 15.7288 15.3075 15.7175 15.1425 15.6425L13.05 14.675C12.81 14.87 12.5363 15.0613 12.2288 15.2488C11.9213 15.4363 11.6175 15.575 11.3175 15.665L10.9575 17.9375C10.9275 18.1025 10.8488 18.2375 10.7213 18.3425C10.5938 18.4475 10.4475 18.5 10.2825 18.5ZM8.7975 12.425C9.6075 12.425 10.2975 12.14 10.8675 11.57C11.4375 11 11.7225 10.31 11.7225 9.5C11.7225 8.69 11.4375 8 10.8675 7.43C10.2975 6.86 9.6075 6.575 8.7975 6.575C7.9875 6.575 7.2975 6.86 6.7275 7.43C6.1575 8 5.8725 8.69 5.8725 9.5C5.8725 10.31 6.1575 11 6.7275 11.57C7.2975 12.14 7.9875 12.425 8.7975 12.425ZM8.7975 11.075C8.3625 11.075 7.99125 10.9213 7.68375 10.6138C7.37625 10.3063 7.2225 9.935 7.2225 9.5C7.2225 9.065 7.37625 8.69375 7.68375 8.38625C7.99125 8.07875 8.3625 7.925 8.7975 7.925C9.2325 7.925 9.60375 8.07875 9.91125 8.38625C10.2188 8.69375 10.3725 9.065 10.3725 9.5C10.3725 9.935 10.2188 10.3063 9.91125 10.6138C9.60375 10.9213 9.2325 11.075 8.7975 11.075ZM7.8075 17.15H9.7875L10.1025 14.63C10.5975 14.51 11.0663 14.3225 11.5088 14.0675C11.9513 13.8125 12.3525 13.505 12.7125 13.145L15.0975 14.18L15.9975 12.56L13.8825 11.0075C13.9425 10.7525 13.9913 10.5013 14.0288 10.2538C14.0663 10.0063 14.085 9.755 14.085 9.5C14.085 9.245 14.07 8.99375 14.04 8.74625C14.01 8.49875 13.9575 8.2475 13.8825 7.9925L15.9975 6.44L15.0975 4.82L12.7125 5.855C12.3675 5.465 11.9775 5.13875 11.5425 4.87625C11.1075 4.61375 10.6275 4.445 10.1025 4.37L9.7875 1.85H7.8075L7.4925 4.37C6.9825 4.475 6.50625 4.655 6.06375 4.91C5.62125 5.165 5.2275 5.48 4.8825 5.855L2.4975 4.82L1.5975 6.44L3.7125 7.9925C3.6525 8.2475 3.60375 8.49875 3.56625 8.74625C3.52875 8.99375 3.51 9.245 3.51 9.5C3.51 9.755 3.52875 10.0063 3.56625 10.2538C3.60375 10.5013 3.6525 10.7525 3.7125 11.0075L1.5975 12.56L2.4975 14.18L4.8825 13.145C5.2425 13.505 5.64375 13.8125 6.08625 14.0675C6.52875 14.3225 6.9975 14.51 7.4925 14.63L7.8075 17.15Z" fill="white"/>
</svg>
