<svg width="20" height="20" viewBox="0 0 20 20" fill="none" xmlns="http://www.w3.org/2000/svg">
<path d="M11.6477 20H8.34766C8.16432 20 8.00182 19.9417 7.86016 19.825C7.71849 19.7083 7.63099 19.5583 7.59766 19.375L7.19766 16.85C6.88099 16.7333 6.54766 16.575 6.19766 16.375C5.84766 16.175 5.53932 15.9667 5.27266 15.75L2.94766 16.825C2.76432 16.9083 2.58099 16.9208 2.39766 16.8625C2.21432 16.8042 2.07266 16.6833 1.97266 16.5L0.322656 13.575C0.222656 13.4083 0.197656 13.2333 0.247656 13.05C0.297656 12.8667 0.397656 12.7167 0.547656 12.6L2.69766 11.025C2.66432 10.875 2.64349 10.7042 2.63516 10.5125C2.62682 10.3208 2.62266 10.15 2.62266 10C2.62266 9.85 2.62682 9.67917 2.63516 9.4875C2.64349 9.29583 2.66432 9.125 2.69766 8.975L0.547656 7.4C0.397656 7.28333 0.297656 7.13333 0.247656 6.95C0.197656 6.76667 0.222656 6.59167 0.322656 6.425L1.97266 3.5C2.07266 3.31667 2.21432 3.19583 2.39766 3.1375C2.58099 3.07917 2.76432 3.09167 2.94766 3.175L5.27266 4.25C5.53932 4.03333 5.84766 3.825 6.19766 3.625C6.54766 3.425 6.88099 3.275 7.19766 3.175L7.59766 0.625C7.63099 0.441667 7.71849 0.291667 7.86016 0.175C8.00182 0.0583333 8.16432 0 8.34766 0H11.6477C11.831 0 11.9935 0.0583333 12.1352 0.175C12.2768 0.291667 12.3643 0.441667 12.3977 0.625L12.7977 3.15C13.1143 3.26667 13.4518 3.42083 13.8102 3.6125C14.1685 3.80417 14.4727 4.01667 14.7227 4.25L17.0477 3.175C17.231 3.09167 17.4143 3.07917 17.5977 3.1375C17.781 3.19583 17.9227 3.31667 18.0227 3.5L19.6727 6.4C19.7727 6.56667 19.8018 6.74583 19.7602 6.9375C19.7185 7.12917 19.6143 7.28333 19.4477 7.4L17.2977 8.925C17.331 9.09167 17.3518 9.27083 17.3602 9.4625C17.3685 9.65417 17.3727 9.83333 17.3727 10C17.3727 10.1667 17.3685 10.3417 17.3602 10.525C17.3518 10.7083 17.331 10.8833 17.2977 11.05L19.4477 12.6C19.5977 12.7167 19.6977 12.8667 19.7477 13.05C19.7977 13.2333 19.7727 13.4083 19.6727 13.575L18.0227 16.5C17.9227 16.6833 17.781 16.8042 17.5977 16.8625C17.4143 16.9208 17.231 16.9083 17.0477 16.825L14.7227 15.75C14.456 15.9667 14.1518 16.1792 13.8102 16.3875C13.4685 16.5958 13.131 16.75 12.7977 16.85L12.3977 19.375C12.3643 19.5583 12.2768 19.7083 12.1352 19.825C11.9935 19.9417 11.831 20 11.6477 20ZM9.99766 13.25C10.8977 13.25 11.6643 12.9333 12.2977 12.3C12.931 11.6667 13.2477 10.9 13.2477 10C13.2477 9.1 12.931 8.33333 12.2977 7.7C11.6643 7.06667 10.8977 6.75 9.99766 6.75C9.09766 6.75 8.33099 7.06667 7.69766 7.7C7.06432 8.33333 6.74766 9.1 6.74766 10C6.74766 10.9 7.06432 11.6667 7.69766 12.3C8.33099 12.9333 9.09766 13.25 9.99766 13.25ZM9.99766 11.75C9.51432 11.75 9.10182 11.5792 8.76016 11.2375C8.41849 10.8958 8.24766 10.4833 8.24766 10C8.24766 9.51667 8.41849 9.10417 8.76016 8.7625C9.10182 8.42083 9.51432 8.25 9.99766 8.25C10.481 8.25 10.8935 8.42083 11.2352 8.7625C11.5768 9.10417 11.7477 9.51667 11.7477 10C11.7477 10.4833 11.5768 10.8958 11.2352 11.2375C10.8935 11.5792 10.481 11.75 9.99766 11.75ZM8.89766 18.5H11.0977L11.4477 15.7C11.9977 15.5667 12.5185 15.3583 13.0102 15.075C13.5018 14.7917 13.9477 14.45 14.3477 14.05L16.9977 15.2L17.9977 13.4L15.6477 11.675C15.7143 11.3917 15.7685 11.1125 15.8102 10.8375C15.8518 10.5625 15.8727 10.2833 15.8727 10C15.8727 9.71667 15.856 9.4375 15.8227 9.1625C15.7893 8.8875 15.731 8.60833 15.6477 8.325L17.9977 6.6L16.9977 4.8L14.3477 5.95C13.9643 5.51667 13.531 5.15417 13.0477 4.8625C12.5643 4.57083 12.031 4.38333 11.4477 4.3L11.0977 1.5H8.89766L8.54766 4.3C7.98099 4.41667 7.45182 4.61667 6.96016 4.9C6.46849 5.18333 6.03099 5.53333 5.64766 5.95L2.99766 4.8L1.99766 6.6L4.34766 8.325C4.28099 8.60833 4.22682 8.8875 4.18516 9.1625C4.14349 9.4375 4.12266 9.71667 4.12266 10C4.12266 10.2833 4.14349 10.5625 4.18516 10.8375C4.22682 11.1125 4.28099 11.3917 4.34766 11.675L1.99766 13.4L2.99766 15.2L5.64766 14.05C6.04766 14.45 6.49349 14.7917 6.98516 15.075C7.47682 15.3583 7.99766 15.5667 8.54766 15.7L8.89766 18.5Z" fill="white"/>
</svg>
