<svg width="18" height="20" viewBox="0 0 18 20" fill="none" xmlns="http://www.w3.org/2000/svg">
<path id="Vector" d="M15.154 20C14.3634 20 13.6914 19.7221 13.138 19.1663C12.5846 18.6106 12.3079 17.9357 12.3079 17.1417C12.3079 17.0306 12.3204 16.8946 12.3454 16.7339C12.3703 16.5732 12.4078 16.4286 12.4577 16.3L4.8932 11.9C4.64355 12.1833 4.33564 12.4125 3.96949 12.5875C3.60333 12.7625 3.22885 12.85 2.84605 12.85C2.05548 12.85 1.3835 12.5729 0.830097 12.0188C0.276699 11.4646 0 10.7917 0 10C0 9.20833 0.276699 8.53542 0.830097 7.98125C1.3835 7.42708 2.05548 7.15 2.84605 7.15C3.22885 7.15 3.59501 7.225 3.94452 7.375C4.29404 7.525 4.61026 7.74167 4.8932 8.025L12.4577 3.675C12.4078 3.55715 12.3703 3.42456 12.3454 3.27722C12.3204 3.12991 12.3079 2.9875 12.3079 2.85C12.3079 2.05833 12.5846 1.38542 13.138 0.83125C13.6914 0.277083 14.3634 0 15.154 0C15.9445 0 16.6165 0.277083 17.1699 0.83125C17.7233 1.38542 18 2.05833 18 2.85C18 3.64167 17.7233 4.31458 17.1699 4.86875C16.6165 5.42292 15.9445 5.7 15.154 5.7C14.7653 5.7 14.3935 5.6375 14.0386 5.5125C13.6837 5.3875 13.3814 5.18333 13.1318 4.9L5.56727 9.1C5.60055 9.23333 5.62968 9.3875 5.65465 9.5625C5.67961 9.7375 5.69209 9.88534 5.69209 10.006C5.69209 10.1267 5.67961 10.2517 5.65465 10.381C5.62968 10.5103 5.60055 10.6417 5.56727 10.775L13.1318 15.075C13.3814 14.8417 13.6727 14.6542 14.0055 14.5125C14.3384 14.3708 14.7212 14.3 15.154 14.3C15.9445 14.3 16.6165 14.5771 17.1699 15.1313C17.7233 15.6854 18 16.3583 18 17.15C18 17.9417 17.7233 18.6146 17.1699 19.1688C16.6165 19.7229 15.9445 20 15.154 20Z" fill="white"/>
</svg>
