<svg width="24" height="20" viewBox="0 0 24 20" fill="none" xmlns="http://www.w3.org/2000/svg">
<path id="Vector" d="M23.717 7.30601C23.717 8.7434 23.4969 10.0191 23.0567 11.1331C22.6165 12.2471 21.9921 13.2892 21.1836 14.2594C21.0039 14.475 20.7838 14.5918 20.5233 14.6098C20.2628 14.6277 20.0337 14.5379 19.836 14.3403C19.6384 14.1426 19.5441 13.909 19.5531 13.6395C19.562 13.37 19.6564 13.1275 19.836 12.9118C20.4829 12.1213 20.977 11.2903 21.3184 10.4189C21.6597 9.54745 21.8304 8.50983 21.8304 7.30601C21.8304 6.10219 21.6597 5.06457 21.3184 4.19315C20.977 3.32173 20.4829 2.49074 19.836 1.70017C19.6564 1.48456 19.562 1.242 19.5531 0.972487C19.5441 0.702976 19.6384 0.469399 19.836 0.271757C20.0337 0.0741156 20.2628 -0.0157215 20.5233 0.00224593C20.7838 0.0202134 21.0039 0.137002 21.1836 0.352611C21.9921 1.32285 22.6165 2.36496 23.0567 3.47894C23.4969 4.59293 23.717 5.86861 23.717 7.30601ZM18.3268 7.30601C18.3268 7.88097 18.2414 8.42897 18.0707 8.95003C17.9001 9.47108 17.662 9.96519 17.3565 10.4323C17.2128 10.648 17.0152 10.7647 16.7636 10.7827C16.5121 10.8007 16.2875 10.7108 16.0898 10.5132C15.8922 10.3156 15.7844 10.091 15.7664 9.83942C15.7485 9.58787 15.8113 9.34531 15.9551 9.11174C16.0988 8.86019 16.2156 8.5817 16.3054 8.27625C16.3953 7.9708 16.4402 7.64739 16.4402 7.30601C16.4402 6.96463 16.3953 6.64121 16.3054 6.33577C16.2156 6.03032 16.0988 5.75182 15.9551 5.50028C15.8113 5.2667 15.7485 5.02414 15.7664 4.7726C15.7844 4.52106 15.8922 4.29646 16.0898 4.09882C16.2875 3.90118 16.5121 3.81134 16.7636 3.82931C17.0152 3.84728 17.2128 3.96407 17.3565 4.17967C17.662 4.64683 17.9001 5.14093 18.0707 5.66199C18.2414 6.18304 18.3268 6.73105 18.3268 7.30601ZM8.62437 11.3487C7.43852 11.3487 6.46828 10.9714 5.71364 10.2167C4.95901 9.4621 4.5817 8.49186 4.5817 7.30601C4.5817 6.12016 4.95901 5.14992 5.71364 4.39528C6.46828 3.64065 7.43852 3.26334 8.62437 3.26334C9.81022 3.26334 10.7805 3.64065 11.5351 4.39528C12.2897 5.14992 12.667 6.12016 12.667 7.30601C12.667 8.49186 12.2897 9.4621 11.5351 10.2167C10.7805 10.9714 9.81022 11.3487 8.62437 11.3487ZM0 18.3829V17.4666C0 16.7838 0.170691 16.2044 0.512072 15.7282C0.853453 15.2521 1.29366 14.8793 1.83268 14.6098C2.74902 14.1426 3.83156 13.7563 5.08029 13.4509C6.32903 13.1454 7.51039 12.9927 8.62437 12.9927C9.73835 12.9927 10.9152 13.1454 12.155 13.4509C13.3947 13.7563 14.4728 14.1426 15.3891 14.6098C15.9281 14.8793 16.3728 15.2521 16.7232 15.7282C17.0736 16.2044 17.2487 16.7838 17.2487 17.4666V18.3829C17.2487 18.8321 17.0915 19.2139 16.7771 19.5284C16.4627 19.8428 16.0809 20 15.6317 20H1.61707C1.16788 20 0.786075 19.8428 0.471645 19.5284C0.157215 19.2139 0 18.8321 0 18.3829ZM1.61707 18.3829H15.6317V17.4666C15.6317 17.1791 15.5553 16.9141 15.4026 16.6715C15.2499 16.429 15.0298 16.2268 14.7423 16.0651C13.8798 15.58 12.9006 15.2162 11.8046 14.9736C10.7086 14.731 9.64851 14.6098 8.62437 14.6098C7.60022 14.6098 6.53565 14.74 5.43066 15.0006C4.32566 15.2611 3.34194 15.6159 2.47951 16.0651C2.22796 16.1909 2.02134 16.3841 1.85963 16.6446C1.69792 16.9051 1.61707 17.1791 1.61707 17.4666V18.3829ZM8.62437 9.73161C9.3251 9.73161 9.90455 9.50253 10.3627 9.04436C10.8209 8.58619 11.05 8.00674 11.05 7.30601C11.05 6.60528 10.8209 6.02583 10.3627 5.56766C9.90455 5.10949 9.3251 4.8804 8.62437 4.8804C7.92364 4.8804 7.34419 5.10949 6.88602 5.56766C6.42785 6.02583 6.19876 6.60528 6.19876 7.30601C6.19876 8.00674 6.42785 8.58619 6.88602 9.04436C7.34419 9.50253 7.92364 9.73161 8.62437 9.73161Z" fill="white"/>
</svg>
