<svg width="20" height="21" viewBox="0 0 20 21" fill="none" xmlns="http://www.w3.org/2000/svg">
<path d="M2.95548 20.5C2.43052 20.5 1.98214 20.3141 1.61035 19.9423C1.23854 19.5705 1.05263 19.1221 1.05263 18.5972V6.8097C0.743599 6.65045 0.490905 6.42407 0.294553 6.13054C0.0981845 5.83701 0 5.49862 0 5.11535V2.40285C0 1.87788 0.185904 1.4295 0.557712 1.05771C0.929502 0.685904 1.37788 0.5 1.90285 0.5H18.0972C18.6221 0.5 19.0705 0.685904 19.4423 1.05771C19.8141 1.4295 20 1.87788 20 2.40285V5.11535C20 5.49862 19.9018 5.83701 19.7054 6.13054C19.5091 6.42407 19.2564 6.65045 18.9474 6.8097V18.5972C18.9474 19.1221 18.7615 19.5705 18.3897 19.9423C18.0179 20.3141 17.5695 20.5 17.0445 20.5H2.95548ZM2.63156 7.01817V18.5465C2.63156 18.6545 2.67036 18.7439 2.74795 18.8148C2.82557 18.8856 2.92174 18.9211 3.03646 18.9211H17.0445C17.139 18.9211 17.2166 18.8907 17.2773 18.83C17.3381 18.7692 17.3684 18.6916 17.3684 18.5972V7.01817H2.63156ZM1.90285 5.43928H18.0972C18.1916 5.43928 18.2692 5.40891 18.33 5.34817C18.3907 5.28743 18.4211 5.20983 18.4211 5.11535V2.40285C18.4211 2.30837 18.3907 2.23077 18.33 2.17003C18.2692 2.10929 18.1916 2.07893 18.0972 2.07893H1.90285C1.80837 2.07893 1.73077 2.10929 1.67003 2.17003C1.60929 2.23077 1.57893 2.30837 1.57893 2.40285V5.11535C1.57893 5.20983 1.60929 5.28743 1.67003 5.34817C1.73077 5.40891 1.80837 5.43928 1.90285 5.43928ZM7.80363 12.0081H12.2065C12.4238 12.0081 12.6029 11.9359 12.7439 11.7915C12.8849 11.6471 12.9555 11.4662 12.9555 11.249C12.9555 11.0317 12.8849 10.8525 12.7439 10.7115C12.6029 10.5705 12.4238 10.5 12.2065 10.5H7.79352C7.57624 10.5 7.39709 10.5705 7.25607 10.7115C7.11505 10.8525 7.04454 11.0317 7.04454 11.249C7.04454 11.4662 7.11674 11.6471 7.26112 11.7915C7.40553 11.9359 7.58636 12.0081 7.80363 12.0081Z" fill="#7580AE"/>
</svg>
