<svg width="16" height="19" viewBox="0 0 16 19" fill="none" xmlns="http://www.w3.org/2000/svg">
<path id="Vector" d="M2.99319 18.5C2.46323 18.5 2.00956 18.3113 1.63217 17.9339C1.25477 17.5565 1.06606 17.1028 1.06606 16.5729V3.04211H0.799547C0.573009 3.04211 0.383117 2.96545 0.22987 2.81213C0.0766233 2.65883 0 2.46886 0 2.24221C0 2.01559 0.0766233 1.82574 0.22987 1.67267C0.383117 1.51958 0.573009 1.44304 0.799547 1.44304H4.79726C4.79726 1.182 4.88917 0.959562 5.073 0.775738C5.25682 0.591913 5.47925 0.5 5.7403 0.5H10.2506C10.5116 0.5 10.7341 0.591913 10.9179 0.775738C11.1017 0.959562 11.1936 1.182 11.1936 1.44304H15.1914C15.4179 1.44304 15.6078 1.5197 15.761 1.67302C15.9143 1.82633 15.9909 2.01631 15.9909 2.24293C15.9909 2.46958 15.9143 2.65944 15.761 2.81251C15.6078 2.96557 15.4179 3.04211 15.1914 3.04211H14.9248V16.5729C14.9248 17.1028 14.7361 17.5565 14.3587 17.9339C13.9813 18.3113 13.5277 18.5 12.9977 18.5H2.99319ZM13.3258 3.04211H2.66513V16.5729C2.66513 16.6686 2.69589 16.7472 2.7574 16.8087C2.81891 16.8702 2.89751 16.9009 2.99319 16.9009H12.9977C13.0934 16.9009 13.172 16.8702 13.2335 16.8087C13.295 16.7472 13.3258 16.6686 13.3258 16.5729V3.04211ZM6.02771 14.7688C6.25434 14.7688 6.44418 14.6922 6.59725 14.5389C6.75034 14.3857 6.82688 14.1958 6.82688 13.9693V5.97376C6.82688 5.74724 6.75022 5.55735 6.59691 5.4041C6.44359 5.25086 6.25362 5.17423 6.02699 5.17423C5.80034 5.17423 5.61049 5.25086 5.45742 5.4041C5.30435 5.55735 5.22781 5.74724 5.22781 5.97376V13.9693C5.22781 14.1958 5.30447 14.3857 5.45779 14.5389C5.61109 14.6922 5.80106 14.7688 6.02771 14.7688ZM9.96391 14.7688C10.1906 14.7688 10.3804 14.6922 10.5335 14.5389C10.6865 14.3857 10.7631 14.1958 10.7631 13.9693V5.97376C10.7631 5.74724 10.6864 5.55735 10.5331 5.4041C10.3798 5.25086 10.1898 5.17423 9.96319 5.17423C9.73656 5.17423 9.54671 5.25086 9.39364 5.4041C9.24056 5.55735 9.16401 5.74724 9.16401 5.97376V13.9693C9.16401 14.1958 9.24067 14.3857 9.39399 14.5389C9.54731 14.6922 9.73728 14.7688 9.96391 14.7688Z" fill="#EA4646"/>
</svg>
