<svg width="20" height="20" viewBox="0 0 20 20" fill="none" xmlns="http://www.w3.org/2000/svg">
<path id="Vector" d="M10 17C11.95 17 13.6042 16.3208 14.9625 14.9625C16.3208 13.6042 17 11.95 17 10C17 8.21667 16.4125 6.6625 15.2375 5.3375C14.0625 4.0125 12.5917 3.25833 10.825 3.075C10.5917 3.04167 10.3958 3.1 10.2375 3.25C10.0792 3.4 10 3.59167 10 3.825V10L5.775 14.425C5.625 14.5917 5.55417 14.7833 5.5625 15C5.57083 15.2167 5.65833 15.3917 5.825 15.525C6.40833 16.0083 7.05833 16.375 7.775 16.625C8.49167 16.875 9.23333 17 10 17ZM10 20C8.63333 20 7.34167 19.7375 6.125 19.2125C4.90833 18.6875 3.84583 17.9708 2.9375 17.0625C2.02917 16.1542 1.3125 15.0917 0.7875 13.875C0.2625 12.6583 0 11.3667 0 10C0 8.61667 0.2625 7.31667 0.7875 6.1C1.3125 4.88333 2.02917 3.825 2.9375 2.925C3.84583 2.025 4.90833 1.3125 6.125 0.7875C7.34167 0.2625 8.63333 0 10 0C11.3833 0 12.6833 0.2625 13.9 0.7875C15.1167 1.3125 16.175 2.025 17.075 2.925C17.975 3.825 18.6875 4.88333 19.2125 6.1C19.7375 7.31667 20 8.61667 20 10C20 11.3667 19.7375 12.6583 19.2125 13.875C18.6875 15.0917 17.975 16.1542 17.075 17.0625C16.175 17.9708 15.1167 18.6875 13.9 19.2125C12.6833 19.7375 11.3833 20 10 20ZM10 18.5C12.3667 18.5 14.375 17.6708 16.025 16.0125C17.675 14.3542 18.5 12.35 18.5 10C18.5 7.63333 17.675 5.625 16.025 3.975C14.375 2.325 12.3667 1.5 10 1.5C7.65 1.5 5.64583 2.325 3.9875 3.975C2.32917 5.625 1.5 7.63333 1.5 10C1.5 12.35 2.32917 14.3542 3.9875 16.0125C5.64583 17.6708 7.65 18.5 10 18.5Z" fill="#2DA1D7"/>
</svg>
