<svg width="26" height="24" viewBox="0 0 26 24" fill="none" xmlns="http://www.w3.org/2000/svg">
<path id="Vector" d="M6.87154 20.2875C6.57568 20.2875 6.28511 20.1396 5.99981 19.8437C5.71452 19.5479 5.57188 19.252 5.57188 18.9561V15.8496H21.4215V5.07188H24.5914C24.8873 5.07188 25.1726 5.21981 25.4473 5.51567C25.722 5.81152 25.8594 6.11795 25.8594 6.43494V23.0453C25.8594 23.468 25.6639 23.7586 25.2729 23.9171C24.882 24.0756 24.5386 24.0069 24.2427 23.711L20.8192 20.2875H6.87154ZM5.57188 13.9477L2.11666 17.4029C1.8208 17.6987 1.47739 17.7674 1.08644 17.6089C0.695479 17.4504 0.5 17.1598 0.5 16.7372V1.33137C0.5 1.03551 0.637363 0.739649 0.91209 0.443789C1.18682 0.14793 1.47211 0 1.76797 0H18.2199C18.5369 0 18.8327 0.142646 19.1074 0.42794C19.3822 0.713233 19.5195 1.01438 19.5195 1.33137V12.6163C19.5195 12.9122 19.3822 13.208 19.1074 13.5039C18.8327 13.7997 18.5369 13.9477 18.2199 13.9477H5.57188ZM17.6176 12.0457V1.90195H2.40195V12.0457H17.6176Z" fill="white"/>
</svg>
