<svg width="15" height="15" viewBox="0 0 15 15" fill="none" xmlns="http://www.w3.org/2000/svg">
<path id="Vector" d="M7.5 12.75C8.9625 12.75 10.2031 12.2406 11.2219 11.2219C12.2406 10.2031 12.75 8.9625 12.75 7.5C12.75 6.1625 12.3094 4.99688 11.4281 4.00313C10.5469 3.00938 9.44375 2.44375 8.11875 2.30625C7.94375 2.28125 7.79688 2.325 7.67813 2.4375C7.55938 2.55 7.5 2.69375 7.5 2.86875V7.5L4.33125 10.8188C4.21875 10.9438 4.16563 11.0875 4.17188 11.25C4.17813 11.4125 4.24375 11.5438 4.36875 11.6438C4.80625 12.0063 5.29375 12.2813 5.83125 12.4688C6.36875 12.6563 6.925 12.75 7.5 12.75ZM7.5 15C6.475 15 5.50625 14.8031 4.59375 14.4094C3.68125 14.0156 2.88438 13.4781 2.20312 12.7969C1.52188 12.1156 0.984375 11.3188 0.590625 10.4062C0.196875 9.49375 0 8.525 0 7.5C0 6.4625 0.196875 5.4875 0.590625 4.575C0.984375 3.6625 1.52188 2.86875 2.20312 2.19375C2.88438 1.51875 3.68125 0.984375 4.59375 0.590625C5.50625 0.196875 6.475 0 7.5 0C8.5375 0 9.5125 0.196875 10.425 0.590625C11.3375 0.984375 12.1313 1.51875 12.8063 2.19375C13.4813 2.86875 14.0156 3.6625 14.4094 4.575C14.8031 5.4875 15 6.4625 15 7.5C15 8.525 14.8031 9.49375 14.4094 10.4062C14.0156 11.3188 13.4813 12.1156 12.8063 12.7969C12.1313 13.4781 11.3375 14.0156 10.425 14.4094C9.5125 14.8031 8.5375 15 7.5 15Z" fill="#2DA1D7"/>
</svg>
