<svg width="28" height="28" viewBox="0 0 28 28" fill="none" xmlns="http://www.w3.org/2000/svg">
<circle cx="14" cy="14" r="14" fill="#2DA1D7"/>
<path d="M16.6681 5.95047L20.6953 10.143C20.7919 10.2437 20.8685 10.3635 20.9208 10.4955C20.9731 10.6275 21 10.7691 21 10.9121C21 11.0552 20.9731 11.1968 20.9208 11.3288C20.8685 11.4608 20.7919 11.5806 20.6953 11.6813C20.5024 11.8831 20.2413 11.9963 19.9692 11.9963C19.6971 11.9963 19.436 11.8831 19.2431 11.6813L15.5454 7.82464L15.5454 20.9167C15.5454 21.204 15.4369 21.4795 15.2438 21.6827C15.0506 21.8859 14.7886 22 14.5155 22C14.2423 22 13.9803 21.8859 13.7871 21.6827C13.594 21.4795 13.4855 21.204 13.4855 20.9167L13.4855 7.75964L9.76724 11.6813C9.67149 11.7829 9.55757 11.8634 9.43206 11.9184C9.30655 11.9734 9.17192 12.0018 9.03595 12.0018C8.89998 12.0018 8.76536 11.9734 8.63985 11.9184C8.51433 11.8634 8.40042 11.7829 8.30467 11.6813C8.20813 11.5806 8.1315 11.4608 8.07921 11.3288C8.02692 11.1968 8 11.0552 8 10.9121C8 10.7691 8.02692 10.6275 8.07921 10.4955C8.1315 10.3635 8.20813 10.2437 8.30467 10.143L12.301 5.95047C12.8804 5.34185 13.6657 5 14.4845 5C15.3034 5 16.0887 5.34185 16.6681 5.95047Z" fill="white"/>
</svg>
