<svg width="20" height="20" viewBox="0 0 20 20" fill="none" xmlns="http://www.w3.org/2000/svg">
<path id="Vector" d="M11.6472 20H8.34717C8.16384 20 8.00134 19.9417 7.85967 19.825C7.718 19.7083 7.6305 19.5583 7.59717 19.375L7.19717 16.85C6.8805 16.7333 6.54717 16.575 6.19717 16.375C5.84717 16.175 5.53884 15.9667 5.27217 15.75L2.94717 16.825C2.76383 16.9083 2.5805 16.9208 2.39717 16.8625C2.21383 16.8042 2.07217 16.6833 1.97217 16.5L0.322168 13.575C0.222168 13.4083 0.197168 13.2333 0.247168 13.05C0.297168 12.8667 0.397168 12.7167 0.547168 12.6L2.69717 11.025C2.66383 10.875 2.643 10.7042 2.63467 10.5125C2.62633 10.3208 2.62217 10.15 2.62217 10C2.62217 9.85 2.62633 9.67917 2.63467 9.4875C2.643 9.29583 2.66383 9.125 2.69717 8.975L0.547168 7.4C0.397168 7.28333 0.297168 7.13333 0.247168 6.95C0.197168 6.76667 0.222168 6.59167 0.322168 6.425L1.97217 3.5C2.07217 3.31667 2.21383 3.19583 2.39717 3.1375C2.5805 3.07917 2.76383 3.09167 2.94717 3.175L5.27217 4.25C5.53884 4.03333 5.84717 3.825 6.19717 3.625C6.54717 3.425 6.8805 3.275 7.19717 3.175L7.59717 0.625C7.6305 0.441667 7.718 0.291667 7.85967 0.175C8.00134 0.0583333 8.16384 0 8.34717 0H11.6472C11.8305 0 11.993 0.0583333 12.1347 0.175C12.2763 0.291667 12.3638 0.441667 12.3972 0.625L12.7972 3.15C13.1138 3.26667 13.4513 3.42083 13.8097 3.6125C14.168 3.80417 14.4722 4.01667 14.7222 4.25L17.0472 3.175C17.2305 3.09167 17.4138 3.07917 17.5972 3.1375C17.7805 3.19583 17.9222 3.31667 18.0222 3.5L19.6722 6.4C19.7722 6.56667 19.8013 6.74583 19.7597 6.9375C19.718 7.12917 19.6138 7.28333 19.4472 7.4L17.2972 8.925C17.3305 9.09167 17.3513 9.27083 17.3597 9.4625C17.368 9.65417 17.3722 9.83333 17.3722 10C17.3722 10.1667 17.368 10.3417 17.3597 10.525C17.3513 10.7083 17.3305 10.8833 17.2972 11.05L19.4472 12.6C19.5972 12.7167 19.6972 12.8667 19.7472 13.05C19.7972 13.2333 19.7722 13.4083 19.6722 13.575L18.0222 16.5C17.9222 16.6833 17.7805 16.8042 17.5972 16.8625C17.4138 16.9208 17.2305 16.9083 17.0472 16.825L14.7222 15.75C14.4555 15.9667 14.1513 16.1792 13.8097 16.3875C13.468 16.5958 13.1305 16.75 12.7972 16.85L12.3972 19.375C12.3638 19.5583 12.2763 19.7083 12.1347 19.825C11.993 19.9417 11.8305 20 11.6472 20ZM9.99717 13.25C10.8972 13.25 11.6638 12.9333 12.2972 12.3C12.9305 11.6667 13.2472 10.9 13.2472 10C13.2472 9.1 12.9305 8.33333 12.2972 7.7C11.6638 7.06667 10.8972 6.75 9.99717 6.75C9.09717 6.75 8.3305 7.06667 7.69717 7.7C7.06384 8.33333 6.74717 9.1 6.74717 10C6.74717 10.9 7.06384 11.6667 7.69717 12.3C8.3305 12.9333 9.09717 13.25 9.99717 13.25ZM9.99717 11.75C9.51384 11.75 9.10134 11.5792 8.75967 11.2375C8.418 10.8958 8.24717 10.4833 8.24717 10C8.24717 9.51667 8.418 9.10417 8.75967 8.7625C9.10134 8.42083 9.51384 8.25 9.99717 8.25C10.4805 8.25 10.893 8.42083 11.2347 8.7625C11.5763 9.10417 11.7472 9.51667 11.7472 10C11.7472 10.4833 11.5763 10.8958 11.2347 11.2375C10.893 11.5792 10.4805 11.75 9.99717 11.75ZM8.89717 18.5H11.0972L11.4472 15.7C11.9972 15.5667 12.518 15.3583 13.0097 15.075C13.5013 14.7917 13.9472 14.45 14.3472 14.05L16.9972 15.2L17.9972 13.4L15.6472 11.675C15.7138 11.3917 15.768 11.1125 15.8097 10.8375C15.8513 10.5625 15.8722 10.2833 15.8722 10C15.8722 9.71667 15.8555 9.4375 15.8222 9.1625C15.7888 8.8875 15.7305 8.60833 15.6472 8.325L17.9972 6.6L16.9972 4.8L14.3472 5.95C13.9638 5.51667 13.5305 5.15417 13.0472 4.8625C12.5638 4.57083 12.0305 4.38333 11.4472 4.3L11.0972 1.5H8.89717L8.54717 4.3C7.9805 4.41667 7.45134 4.61667 6.95967 4.9C6.468 5.18333 6.0305 5.53333 5.64717 5.95L2.99717 4.8L1.99717 6.6L4.34717 8.325C4.2805 8.60833 4.22634 8.8875 4.18467 9.1625C4.143 9.4375 4.12217 9.71667 4.12217 10C4.12217 10.2833 4.143 10.5625 4.18467 10.8375C4.22634 11.1125 4.2805 11.3917 4.34717 11.675L1.99717 13.4L2.99717 15.2L5.64717 14.05C6.04717 14.45 6.493 14.7917 6.98467 15.075C7.47634 15.3583 7.99717 15.5667 8.54717 15.7L8.89717 18.5Z" fill="white"/>
</svg>
