<svg width="15" height="13" viewBox="0 0 15 13" fill="none" xmlns="http://www.w3.org/2000/svg">
<path id="Vector" d="M1.125 12.5C0.825 12.5 0.5625 12.3875 0.3375 12.1625C0.1125 11.9375 0 11.675 0 11.375V1.625C0 1.325 0.1125 1.0625 0.3375 0.8375C0.5625 0.6125 0.825 0.5 1.125 0.5H10.875C11.175 0.5 11.4375 0.6125 11.6625 0.8375C11.8875 1.0625 12 1.325 12 1.625V5.65625L14.5125 3.14375C14.6 3.05625 14.7031 3.03464 14.8219 3.07891C14.9406 3.12317 15 3.20729 15 3.33125V9.66875C15 9.79271 14.9406 9.87683 14.8219 9.92109C14.7031 9.96536 14.6 9.94375 14.5125 9.85625L12 7.34375V11.375C12 11.675 11.8875 11.9375 11.6625 12.1625C11.4375 12.3875 11.175 12.5 10.875 12.5H1.125ZM1.125 11.375H10.875V1.625H1.125V11.375Z" fill="#666666"/>
</svg>
