<svg width="20" height="20" viewBox="0 0 20 20" fill="none" xmlns="http://www.w3.org/2000/svg">
<path id="Vector" d="M8.51667 13.7167L13.5083 10.525C13.7083 10.3972 13.8083 10.2222 13.8083 10C13.8083 9.77778 13.7083 9.60278 13.5083 9.475L8.51667 6.28333C8.31111 6.13889 8.09861 6.12639 7.87917 6.24583C7.65972 6.36528 7.55 6.55278 7.55 6.80833V13.1917C7.55 13.4472 7.65972 13.6347 7.87917 13.7542C8.09861 13.8736 8.31111 13.8611 8.51667 13.7167ZM10 20C8.62778 20 7.33334 19.7375 6.11667 19.2125C4.90001 18.6875 3.83889 17.9722 2.93332 17.0667C2.02777 16.1611 1.3125 15.1 0.7875 13.8833C0.2625 12.6667 0 11.3722 0 10C0 8.61667 0.2625 7.31667 0.7875 6.1C1.3125 4.88333 2.02777 3.825 2.93332 2.925C3.83889 2.025 4.90001 1.3125 6.11667 0.7875C7.33334 0.2625 8.62778 0 10 0C11.3833 0 12.6833 0.2625 13.9 0.7875C15.1167 1.3125 16.175 2.025 17.075 2.925C17.975 3.825 18.6875 4.88333 19.2125 6.1C19.7375 7.31667 20 8.61667 20 10C20 11.3722 19.7375 12.6667 19.2125 13.8833C18.6875 15.1 17.975 16.1611 17.075 17.0667C16.175 17.9722 15.1167 18.6875 13.9 19.2125C12.6833 19.7375 11.3833 20 10 20ZM10 18.3333C12.3222 18.3333 14.2917 17.5222 15.9083 15.9C17.525 14.2778 18.3333 12.3111 18.3333 10C18.3333 7.67778 17.525 5.70833 15.9083 4.09165C14.2917 2.47498 12.3222 1.66665 10 1.66665C7.68888 1.66665 5.72222 2.47498 4.1 4.09165C2.47777 5.70833 1.66665 7.67778 1.66665 10C1.66665 12.3111 2.47777 14.2778 4.1 15.9C5.72222 17.5222 7.68888 18.3333 10 18.3333Z" fill="#666666"/>
</svg>
