<svg xmlns="http://www.w3.org/2000/svg" width="11" height="10" viewBox="0 0 11 10" fill="none">
  <path d="M4.6663 5.55298L3.82385 4.71852C3.75199 4.64666 3.663 4.6099 3.55686 4.60823C3.45073 4.60657 3.3574 4.646 3.27689 4.72652C3.20169 4.80171 3.16409 4.89287 3.16409 5C3.16409 5.10713 3.20169 5.19829 3.27689 5.27348L4.33792 6.3345C4.43174 6.42833 4.5412 6.47524 4.6663 6.47524C4.7914 6.47524 4.90086 6.42833 4.99468 6.3345L7.14568 4.1835C7.22287 4.10632 7.26097 4.01599 7.25997 3.91251C7.25898 3.80904 7.22088 3.71705 7.14568 3.63654C7.06517 3.55602 6.97268 3.51443 6.86821 3.51177C6.76374 3.50911 6.67125 3.54804 6.59073 3.62855L4.6663 5.55298ZM3.34776 9.76612L2.6301 8.55936L1.27262 8.26791C1.15617 8.24529 1.06318 8.18407 0.993642 8.08425C0.924109 7.98444 0.896327 7.87631 0.910298 7.75985L1.04305 6.36345L0.119767 5.30742C0.0399224 5.22225 0 5.11977 0 5C0 4.88022 0.0399224 4.77775 0.119767 4.69257L1.04305 3.63654L0.910298 2.24014C0.896327 2.12369 0.924109 2.01555 0.993642 1.91574C1.06318 1.81592 1.15617 1.7547 1.27262 1.73208L2.6301 1.44063L3.34776 0.233872C3.41031 0.131397 3.49549 0.0615264 3.60329 0.0242596C3.71108 -0.0129985 3.82054 -0.00734045 3.93167 0.0412327L5.21129 0.582223L6.49091 0.0412327C6.60203 -0.00734045 6.71149 -0.0129985 6.81929 0.0242596C6.92709 0.0615264 7.01227 0.131397 7.07482 0.233872L7.79248 1.44063L9.14995 1.73208C9.26641 1.7547 9.3594 1.81592 9.42893 1.91574C9.49847 2.01555 9.52625 2.12369 9.51228 2.24014L9.37952 3.63654L10.3028 4.69257C10.3827 4.77775 10.4226 4.88022 10.4226 5C10.4226 5.11977 10.3827 5.22225 10.3028 5.30742L9.37952 6.36345L9.51228 7.75985C9.52625 7.87631 9.49847 7.98444 9.42893 8.08425C9.3594 8.18407 9.26641 8.24529 9.14995 8.26791L7.79248 8.55936L7.07482 9.76612C7.01227 9.8686 6.92709 9.93847 6.81929 9.97573C6.71149 10.013 6.60203 10.0073 6.49091 9.95876L5.21129 9.41777L3.93167 9.95876C3.82054 10.0073 3.71108 10.013 3.60329 9.97573C3.49549 9.93847 3.41031 9.8686 3.34776 9.76612Z" fill="#FFB905"/>
</svg>