<svg width="22" height="21" viewBox="0 0 22 21" fill="none" xmlns="http://www.w3.org/2000/svg">
<path d="M10.1412 11.606L8.4563 9.93705C8.31258 9.79333 8.13459 9.7198 7.92232 9.71646C7.71005 9.71314 7.5234 9.792 7.36238 9.95303C7.21198 10.1034 7.13678 10.2857 7.13678 10.5C7.13678 10.7143 7.21198 10.8966 7.36238 11.047L9.48443 13.169C9.67208 13.3567 9.891 13.4505 10.1412 13.4505C10.3914 13.4505 10.6103 13.3567 10.798 13.169L15.1 8.867C15.2543 8.71264 15.3305 8.53198 15.3285 8.32503C15.3266 8.11809 15.2504 7.93411 15.1 7.77308C14.9389 7.61204 14.754 7.52886 14.545 7.52353C14.3361 7.51822 14.1511 7.59607 13.9901 7.7571L10.1412 11.606ZM7.5041 20.0322L6.06879 17.6187L3.35384 17.0358C3.12093 16.9906 2.93494 16.8681 2.79588 16.6685C2.65681 16.4689 2.60125 16.2526 2.62919 16.0197L2.8947 13.2269L1.04813 11.1148C0.888439 10.9445 0.808594 10.7395 0.808594 10.5C0.808594 10.2604 0.888439 10.0555 1.04813 9.88514L2.8947 7.77308L2.62919 4.98028C2.60125 4.74737 2.65681 4.53111 2.79588 4.33149C2.93494 4.13185 3.12093 4.00941 3.35384 3.96417L6.06879 3.38126L7.5041 0.967744C7.62921 0.762794 7.79956 0.623053 8.01517 0.548519C8.23076 0.474003 8.44968 0.485319 8.67193 0.582465L11.2312 1.66445L13.7904 0.582465C14.0127 0.485319 14.2316 0.474003 14.4472 0.548519C14.6628 0.623053 14.8331 0.762794 14.9582 0.967744L16.3936 3.38126L19.1085 3.96417C19.3414 4.00941 19.5274 4.13185 19.6665 4.33149C19.8055 4.53111 19.8611 4.74737 19.8332 4.98028L19.5676 7.77308L21.4142 9.88514C21.5739 10.0555 21.6538 10.2604 21.6538 10.5C21.6538 10.7395 21.5739 10.9445 21.4142 11.1148L19.5676 13.2269L19.8332 16.0197C19.8611 16.2526 19.8055 16.4689 19.6665 16.6685C19.5274 16.8681 19.3414 16.9906 19.1085 17.0358L16.3936 17.6187L14.9582 20.0322C14.8331 20.2372 14.6628 20.3769 14.4472 20.4515C14.2316 20.526 14.0127 20.5147 13.7904 20.4175L11.2312 19.3355L8.67193 20.4175C8.44968 20.5147 8.23076 20.526 8.01517 20.4515C7.79956 20.3769 7.62921 20.2372 7.5041 20.0322ZM8.58409 18.7527L11.2312 17.6307L13.9102 18.7527L15.3835 16.2613L18.2382 15.6065L17.9786 12.6799L19.8991 10.5L17.9786 8.2881L18.2382 5.36154L15.3835 4.7387L13.8783 2.24732L11.2312 3.36925L8.55214 2.24732L7.07888 4.7387L4.22419 5.36154L4.4837 8.2881L2.56327 10.5L4.4837 12.6799L4.22419 15.6384L7.07888 16.2613L8.58409 18.7527Z" fill="#2DA1D7"/>
</svg>
