<svg width="50" height="50" viewBox="0 0 50 50" fill="none" xmlns="http://www.w3.org/2000/svg">
<rect width="50" height="50" rx="10" fill="#333333"/>
<path d="M14.375 35C13.875 35 13.4375 34.8125 13.0625 34.4375C12.6875 34.0625 12.5 33.625 12.5 33.125V16.875C12.5 16.375 12.6875 15.9375 13.0625 15.5625C13.4375 15.1875 13.875 15 14.375 15H30.625C31.125 15 31.5625 15.1875 31.9375 15.5625C32.3125 15.9375 32.5 16.375 32.5 16.875V23.5938L36.6875 19.4062C36.8333 19.2604 37.0052 19.2244 37.2031 19.2982C37.401 19.372 37.5 19.5121 37.5 19.7188V30.2812C37.5 30.4879 37.401 30.628 37.2031 30.7018C37.0052 30.7756 36.8333 30.7396 36.6875 30.5938L32.5 26.4062V33.125C32.5 33.625 32.3125 34.0625 31.9375 34.4375C31.5625 34.8125 31.125 35 30.625 35H14.375ZM14.375 33.125H30.625V16.875H14.375V33.125Z" fill="white" fill-opacity="0.3"/>
</svg>
