<svg width="20" height="20" viewBox="0 0 20 20" fill="none" xmlns="http://www.w3.org/2000/svg">
<path d="M9.43422 0.0115662C4.15225 0.263064 -0.0159775 4.66193 4.6043e-05 9.94989C0.00492485 11.5605 0.393747 13.0806 1.07965 14.4238L0.0265447 19.5357C-0.0304226 19.8122 0.21897 20.0544 0.493666 19.9893L5.50272 18.8026C6.78962 19.4436 8.23509 19.8139 9.76488 19.8372C15.1636 19.9197 19.6651 15.633 19.8334 10.2363C20.0138 4.45142 15.2393 -0.264899 9.43422 0.0115662ZM15.4111 15.4111C13.9442 16.8781 11.9937 17.686 9.91918 17.686C8.70446 17.686 7.54148 17.4134 6.46246 16.8759L5.76488 16.5284L2.69382 17.256L3.34026 14.118L2.99659 13.445C2.43644 12.348 2.15241 11.1617 2.15241 9.91918C2.15241 7.84459 2.96029 5.89421 4.42723 4.42722C5.88106 2.97338 7.86329 2.15236 9.91933 2.15236C11.9939 2.15241 13.9442 2.96028 15.4111 4.42717C16.8781 5.89411 17.686 7.84449 17.686 9.91903C17.686 11.9751 16.8649 13.9573 15.4111 15.4111Z" fill="white"/>
<path d="M14.7336 12.0701L12.8123 11.5184C12.5597 11.4459 12.2877 11.5175 12.1036 11.7051L11.6338 12.1838C11.4356 12.3856 11.135 12.4505 10.8728 12.3444C9.96391 11.9766 8.05199 10.2767 7.56373 9.42635C7.42287 9.18107 7.44616 8.87442 7.61912 8.65062L8.02932 8.11993C8.19003 7.91201 8.22395 7.63277 8.11767 7.39242L7.30931 5.56415C7.11569 5.12626 6.55611 4.99879 6.19054 5.30797C5.6543 5.76151 5.01804 6.45071 4.9407 7.21424C4.80433 8.56041 5.38166 10.2574 7.56483 12.295C10.087 14.649 12.1067 14.96 13.4217 14.6415C14.1676 14.4608 14.7637 13.7365 15.1399 13.1435C15.3964 12.7392 15.1938 12.2022 14.7336 12.0701Z" fill="white"/>
</svg>
