<svg width="22" height="17" viewBox="0 0 22 17" fill="none" xmlns="http://www.w3.org/2000/svg">
<g id="Group 233">
<path id="Vector" d="M1.59375 17C1.16875 17 0.796875 16.8406 0.478125 16.5219C0.159375 16.2031 0 15.8313 0 15.4062V1.59375C0 1.16875 0.159375 0.796875 0.478125 0.478125C0.796875 0.159375 1.16875 0 1.59375 0H15.4062C15.8313 0 16.2031 0.159375 16.5219 0.478125C16.8406 0.796875 17 1.16875 17 1.59375V7.30469L20.5594 3.74531C20.6833 3.62135 20.8294 3.59074 20.9977 3.65346C21.1659 3.71616 21.25 3.83532 21.25 4.01094V12.9891C21.25 13.1647 21.1659 13.2838 20.9977 13.3465C20.8294 13.4093 20.6833 13.3786 20.5594 13.2547L17 9.69531V15.4062C17 15.8313 16.8406 16.2031 16.5219 16.5219C16.2031 16.8406 15.8313 17 15.4062 17H1.59375ZM1.59375 15.4062H15.4062V1.59375H1.59375V15.4062Z" fill="white"/>
</g>
</svg>
