<svg width="21" height="20" viewBox="0 0 21 20" fill="none" xmlns="http://www.w3.org/2000/svg">
<path id="Vector" d="M10.306 9.66184C8.88889 9.66184 7.72947 9.21095 6.8277 8.30918C5.92593 7.40741 5.47504 6.24799 5.47504 4.83092C5.47504 3.41385 5.92593 2.25443 6.8277 1.35266C7.72947 0.450886 8.88889 0 10.306 0C11.723 0 12.8824 0.450886 13.7842 1.35266C14.686 2.25443 15.1369 3.41385 15.1369 4.83092C15.1369 6.24799 14.686 7.40741 13.7842 8.30918C12.8824 9.21095 11.723 9.66184 10.306 9.66184ZM0 18.0676V16.9726C0 16.1567 0.203972 15.4589 0.611916 14.8792C1.01986 14.2995 1.54589 13.8594 2.19002 13.5588C3.62856 12.9147 5.00805 12.4316 6.3285 12.1095C7.64895 11.7874 8.97477 11.6264 10.306 11.6264C11.6371 11.6264 12.9576 11.7928 14.2673 12.1256C15.577 12.4584 16.9503 12.9382 18.3871 13.565C19.0592 13.8683 19.598 14.3081 20.0036 14.8844C20.4091 15.4607 20.6119 16.1567 20.6119 16.9726V18.0676C20.6119 18.599 20.4227 19.0539 20.0443 19.4324C19.6659 19.8108 19.2109 20 18.6795 20H1.93237C1.40097 20 0.946055 19.8108 0.567633 19.4324C0.189211 19.0539 0 18.599 0 18.0676ZM1.93237 18.0676H18.6795V16.9726C18.6795 16.6291 18.5776 16.3017 18.3736 15.9903C18.1696 15.679 17.9173 15.4482 17.6167 15.2979C16.2426 14.6323 14.9866 14.1761 13.8486 13.9291C12.7107 13.6822 11.5298 13.5588 10.306 13.5588C9.08213 13.5588 7.8905 13.6822 6.73108 13.9291C5.57166 14.1761 4.31562 14.6323 2.96296 15.2979C2.66237 15.4482 2.41546 15.679 2.22222 15.9903C2.02899 16.3017 1.93237 16.6291 1.93237 16.9726V18.0676ZM10.306 7.72947C11.1433 7.72947 11.8357 7.45572 12.3833 6.90821C12.9308 6.36071 13.2045 5.66828 13.2045 4.83092C13.2045 3.99356 12.9308 3.30113 12.3833 2.75362C11.8357 2.20612 11.1433 1.93237 10.306 1.93237C9.4686 1.93237 8.77617 2.20612 8.22866 2.75362C7.68116 3.30113 7.40741 3.99356 7.40741 4.83092C7.40741 5.66828 7.68116 6.36071 8.22866 6.90821C8.77617 7.45572 9.4686 7.72947 10.306 7.72947Z" fill="white"/>
</svg>
