<svg width="22" height="15" viewBox="0 0 22 17" fill="none" xmlns="http://www.w3.org/2000/svg">
<path d="M2.34375 17C1.91875 17 1.54688 16.8406 1.22813 16.5219C0.909375 16.2031 0.75 15.8313 0.75 15.4062V1.59375C0.75 1.16875 0.909375 0.796875 1.22813 0.478125C1.54688 0.159375 1.91875 0 2.34375 0H16.1562C16.5813 0 16.9531 0.159375 17.2719 0.478125C17.5906 0.796875 17.75 1.16875 17.75 1.59375V7.30469L21.3094 3.74531C21.4333 3.62135 21.5794 3.59074 21.7477 3.65346C21.9159 3.71616 22 3.83532 22 4.01094V12.9891C22 13.1647 21.9159 13.2838 21.7477 13.3465C21.5794 13.4093 21.4333 13.3786 21.3094 13.2547L17.75 9.69531V15.4062C17.75 15.8313 17.5906 16.2031 17.2719 16.5219C16.9531 16.8406 16.5813 17 16.1562 17H2.34375ZM2.34375 15.4062H16.1562V1.59375H2.34375V15.4062Z" fill="white"/>
</svg>